<svg width="14" height="10" viewBox="0 0 14 10" fill="none" xmlns="http://www.w3.org/2000/svg">
<path d="M4 0.75C4 0.551088 4.07902 0.360322 4.21967 0.21967C4.36032 0.0790175 4.55109 0 4.75 0H13.25C13.4489 0 13.6397 0.0790175 13.7803 0.21967C13.921 0.360322 14 0.551088 14 0.75C14 0.948912 13.921 1.13968 13.7803 1.28033C13.6397 1.42098 13.4489 1.5 13.25 1.5H4.75C4.55109 1.5 4.36032 1.42098 4.21967 1.28033C4.07902 1.13968 4 0.948912 4 0.75V0.75ZM0 4.75C0 4.55109 0.0790177 4.36032 0.21967 4.21967C0.360322 4.07902 0.551088 4 0.75 4H13.25C13.4489 4 13.6397 4.07902 13.7803 4.21967C13.921 4.36032 14 4.55109 14 4.75C14 4.94891 13.921 5.13968 13.7803 5.28033C13.6397 5.42098 13.4489 5.5 13.25 5.5H0.75C0.551088 5.5 0.360322 5.42098 0.21967 5.28033C0.0790177 5.13968 0 4.94891 0 4.75V4.75ZM8 8.75C8 8.55109 8.07902 8.36032 8.21967 8.21967C8.36032 8.07902 8.55109 8 8.75 8H13.25C13.4489 8 13.6397 8.07902 13.7803 8.21967C13.921 8.36032 14 8.55109 14 8.75C14 8.94891 13.921 9.13968 13.7803 9.28033C13.6397 9.42098 13.4489 9.5 13.25 9.5H8.75C8.55109 9.5 8.36032 9.42098 8.21967 9.28033C8.07902 9.13968 8 8.94891 8 8.75V8.75Z" fill="black"/>
</svg>
