<svg width="29" height="28" viewBox="0 0 29 28" fill="none" xmlns="http://www.w3.org/2000/svg">
<path fill-rule="evenodd" clip-rule="evenodd" d="M28.8553 9.92351L17.9988 1.11005C16.1763 -0.370016 13.2215 -0.370016 11.3992 1.11005L0.855347 9.66969V28H11.7442V20.4229C11.7442 19.0274 13.1371 17.8972 14.8553 17.8972C16.5736 17.8972 17.9665 19.0274 17.9665 20.4229V28H28.8553V9.92351ZM13.5991 2.89573L3.96646 10.7166V25.4743H8.63312V20.4229C8.63312 17.6332 11.419 15.3715 14.8553 15.3715C18.2917 15.3715 21.0776 17.6332 21.0776 20.4229V25.4743H25.7442V10.9704L15.799 2.89573C15.1915 2.40321 14.2065 2.40321 13.5991 2.89573Z" fill="#0F56B3"/>
</svg>
