<svg width="30" height="28" viewBox="0 0 30 28" fill="none" xmlns="http://www.w3.org/2000/svg">
<path d="M1.14435 0C0.840847 0 0.549778 0.114935 0.335171 0.31952C0.120565 0.524105 0 0.801582 0 1.09091V9.45455C0 13.9055 3.49407 17.5782 8.01043 18.1149V19.2727C8.01043 21.5873 8.97495 23.8072 10.6918 25.4438C12.4087 27.0805 14.7372 28 17.1652 28C19.5932 28 21.9218 27.0805 23.6386 25.4438C25.3555 23.8072 26.32 21.5873 26.32 19.2727V18.0451C27.3981 17.7787 28.3374 17.1469 28.962 16.2679C29.5866 15.3889 29.8538 14.323 29.7135 13.2697C29.5732 12.2165 29.0351 11.2481 28.1998 10.5458C27.3645 9.84357 26.2893 9.4556 25.1756 9.45455C24.0602 9.4528 22.9825 9.83938 22.145 10.5417C21.3074 11.2439 20.7677 12.2136 20.6272 13.2685C20.4867 14.3233 20.755 15.3908 21.3819 16.2703C22.0087 17.1499 22.9508 17.781 24.0313 18.0451V19.2727C24.0313 21.0087 23.3079 22.6736 22.0203 23.9011C20.7326 25.1286 18.9862 25.8182 17.1652 25.8182C15.3442 25.8182 13.5978 25.1286 12.3101 23.9011C11.0225 22.6736 10.2991 21.0087 10.2991 19.2727V18.1149C12.5116 17.8489 14.5462 16.8223 16.021 15.2277C17.4959 13.6332 18.3096 11.5804 18.3095 9.45455V1.09091C18.3095 0.801582 18.189 0.524105 17.9744 0.31952C17.7598 0.114935 17.4687 0 17.1652 0H13.3507C13.0472 0 12.7561 0.114935 12.5415 0.31952C12.3269 0.524105 12.2064 0.801582 12.2064 1.09091C12.2064 1.38024 12.3269 1.65771 12.5415 1.8623C12.7561 2.06688 13.0472 2.18182 13.3507 2.18182H16.0209V9.45455C16.0209 11.1905 15.2975 12.8554 14.0098 14.0829C12.7222 15.3104 10.9758 16 9.15477 16C7.33378 16 5.58736 15.3104 4.29972 14.0829C3.01208 12.8554 2.28869 11.1905 2.28869 9.45455V2.18182H4.95884C5.26234 2.18182 5.5534 2.06688 5.76801 1.8623C5.98262 1.65771 6.10318 1.38024 6.10318 1.09091C6.10318 0.801582 5.98262 0.524105 5.76801 0.31952C5.5534 0.114935 5.26234 0 4.95884 0H1.14435ZM25.1756 11.6364C25.7826 11.6364 26.3648 11.8662 26.794 12.2754C27.2232 12.6846 27.4643 13.2395 27.4643 13.8182C27.4643 14.3968 27.2232 14.9518 26.794 15.361C26.3648 15.7701 25.7826 16 25.1756 16C24.5686 16 23.9865 15.7701 23.5573 15.361C23.1281 14.9518 22.8869 14.3968 22.8869 13.8182C22.8869 13.2395 23.1281 12.6846 23.5573 12.2754C23.9865 11.8662 24.5686 11.6364 25.1756 11.6364Z" fill="#111111"/>
</svg>
