<svg width="24" height="24" viewBox="0 0 24 24" fill="none" xmlns="http://www.w3.org/2000/svg">
<path d="M12.1699 20.944C17.7145 20.944 22.2092 16.4525 22.2092 10.9119C22.2092 5.37139 17.7145 0.879883 12.1699 0.879883C6.62541 0.879883 2.13068 5.37139 2.13068 10.9119C2.13068 16.4525 6.62541 20.944 12.1699 20.944Z" fill="#93C6E7"/>
<path d="M2.9472 20.3517C3.77981 20.6397 4.30819 21.3117 4.11605 21.8717C3.92391 22.4318 3.09131 22.6398 2.25871 22.3518C1.4261 22.0638 0.897722 21.3917 1.08986 20.8317C1.282 20.2877 2.1146 20.0637 2.9472 20.3517Z" fill="#FFC49C"/>
<path d="M11.2252 20.8317C11.4174 21.3917 10.889 22.0637 10.0564 22.3518C9.22379 22.6398 8.39119 22.4158 8.19905 21.8717C8.00691 21.3117 8.5353 20.6397 9.3679 20.3517C10.2165 20.0637 11.0491 20.2877 11.2252 20.8317Z" fill="#FFC49C"/>
<path opacity="0.35" d="M2.9472 20.3517C3.77981 20.6397 4.30819 21.3117 4.11605 21.8717C3.92391 22.4318 3.09131 22.6398 2.25871 22.3518C1.4261 22.0638 0.897722 21.3917 1.08986 20.8317C1.282 20.2877 2.1146 20.0637 2.9472 20.3517Z" fill="#FF5F6B"/>
<path opacity="0.35" d="M11.2252 20.8317C11.4174 21.3917 10.889 22.0637 10.0564 22.3518C9.22379 22.6398 8.39119 22.4158 8.19905 21.8717C8.00691 21.3117 8.5353 20.6397 9.3679 20.3517C10.2165 20.0637 11.0491 20.2877 11.2252 20.8317Z" fill="#FF5F6B"/>
<path opacity="0.2" d="M2.9472 20.3517C3.77981 20.6397 4.30819 21.3117 4.11605 21.8717C3.92391 22.4318 3.09131 22.6398 2.25871 22.3518C1.4261 22.0638 0.897722 21.3917 1.08986 20.8317C1.282 20.2877 2.1146 20.0637 2.9472 20.3517Z" fill="black"/>
<path opacity="0.2" d="M11.2252 20.8317C11.4174 21.3917 10.889 22.0637 10.0564 22.3518C9.22379 22.6398 8.39119 22.4158 8.19905 21.8717C8.00691 21.3117 8.5353 20.6397 9.3679 20.3517C10.2165 20.0637 11.0491 20.2877 11.2252 20.8317Z" fill="black"/>
<path d="M11.2573 18.1598C10.889 17.5998 10.4247 17.1038 10.1044 16.5118C9.59205 15.5518 9.47997 14.4478 9.28783 13.3758C9.12772 12.3038 8.83951 11.1998 8.08697 10.4158C7.57459 9.87175 6.758 9.34375 6.14956 9.34375C5.54112 9.34375 4.72453 9.88775 4.21216 10.4158C3.45962 11.1998 3.18742 12.3038 2.99528 13.3758C2.81916 14.4478 2.69106 15.5518 2.17869 16.5118C1.85846 17.1038 1.41014 17.5998 1.02586 18.1598C0.673603 18.7198 -0.0309064 19.7758 0.00111673 20.4478C0.0651631 21.4718 0.64158 22.3038 1.15395 22.3038C1.60227 22.3038 1.41014 21.1358 2.33881 21.1358C2.7391 21.1358 3.21944 21.2958 3.41158 22.4798C3.55569 23.4238 4.99673 23.9998 6.14956 23.9998C7.3024 23.9998 8.74344 23.4238 8.88754 22.4798C9.07968 21.2958 9.56003 21.1358 9.96032 21.1358C10.889 21.1358 10.6969 22.3038 11.1452 22.3038C11.6736 22.3038 12.234 21.4718 12.298 20.4478C12.346 19.7758 11.6415 18.7198 11.2573 18.1598Z" fill="#FFC49C"/>
<path opacity="0.1" d="M1.47423 21.136C0.849783 21.136 0.737702 21.648 0.593597 21.984C0.769725 22.176 0.977876 22.288 1.17001 22.288C1.53828 22.288 1.47423 21.52 1.93857 21.232C1.77845 21.152 1.61834 21.136 1.47423 21.136Z" fill="black"/>
<path opacity="0.1" d="M11.2573 18.1598C10.889 17.5998 10.4247 17.1038 10.1044 16.5118C9.59206 15.5518 9.47998 14.4478 9.28784 13.3758C9.12772 12.3038 8.83951 11.1998 8.08697 10.4158C7.5746 9.87175 6.75801 9.34375 6.14957 9.34375C6.00546 9.34375 5.86136 9.37575 5.71725 9.42375C6.24564 9.58375 6.80604 9.99975 7.20633 10.4318C7.95888 11.2158 8.23107 12.3198 8.42321 13.3918C8.59934 14.4638 8.72743 15.5678 9.2398 16.5278C9.56004 17.1198 10.0084 17.6158 10.3926 18.1758C10.7609 18.7358 11.4814 19.7918 11.4334 20.4638C11.4014 21.1038 11.1612 21.6798 10.857 21.9998C10.937 22.1758 11.0011 22.3038 11.1612 22.3038C11.6896 22.3038 12.25 21.4718 12.314 20.4478C12.3461 19.7758 11.6415 18.7198 11.2573 18.1598Z" fill="black"/>
<path opacity="0.1" d="M8.31115 22.528C7.84681 23.6 6.80606 23.904 5.79733 23.984C5.90941 24 6.03751 24 6.14959 24C7.30242 24 8.74346 23.424 8.88757 22.48C9.06369 21.408 9.47999 21.168 9.84826 21.136C9.46398 21.136 8.7915 21.44 8.31115 22.528Z" fill="black"/>
<path d="M13.9792 13.2159C13.9792 13.5199 14.0273 13.8079 14.0913 14.0959C14.2354 14.6239 14.5076 15.1359 14.4596 15.712C14.3475 17.12 14.0753 18.08 13.4829 19.408C12.8904 20.736 12.7784 22.752 15.2602 23.728C17.7259 24.704 19.4552 22.128 19.6473 20.976C19.8395 19.824 19.8555 19.6 22.7055 16.816C25.5556 14.0319 23.1699 9.51991 20.4319 8.97591C18.6706 8.6239 16.5251 8.7039 15.1801 10.0799C14.4916 10.7839 14.0753 11.7439 13.9792 12.7199C13.9952 12.8959 13.9792 13.0559 13.9792 13.2159Z" fill="#FFC49C"/>
<path opacity="0.1" d="M22.7215 14.4159C21.7608 16.9759 20.4959 17.1519 19.311 18.6559C18.1102 20.1759 18.8627 21.2959 17.0534 22.6559C15.8685 23.5519 13.8031 23.0719 13.2426 21.7919C13.4028 22.5119 14.1233 23.2959 15.2601 23.7439C17.7419 24.704 19.4551 22.1439 19.6473 20.9919C19.8394 19.8399 19.8554 19.6159 22.7055 16.8319C24.771 14.8319 24.0985 11.9199 22.5454 10.2559C22.9297 11.1519 23.362 12.7519 22.7215 14.4159Z" fill="black"/>
<path opacity="0.35" d="M21.9531 13.4879C21.9531 13.4879 21.6969 10.6719 19.3112 10.6719C16.9254 10.6719 16.0448 12.1599 16.0448 13.6959C16.0448 14.8319 16.2209 15.2319 16.2209 15.2319C16.2209 15.2319 17.3738 15.2319 17.4058 15.8239C17.4538 16.4159 16.8614 16.6879 16.3811 16.8319C16.3811 16.8319 14.892 20.1759 16.3811 20.4639C17.8701 20.7519 17.5819 18.7999 17.9182 18.4319C18.2544 18.0639 20.2238 17.2479 20.464 15.5679C20.7042 13.8879 19.6314 13.1359 18.1743 13.1679C16.7173 13.1999 17.1816 12.8479 17.4058 12.5919C17.6139 12.3679 19.6794 10.7679 21.9531 13.4879Z" fill="#FF5F6B"/>
<path opacity="0.1" d="M18.1743 13.2002C17.71 13.2162 17.4538 13.1842 17.3097 13.1362C16.7012 13.3762 16.445 13.7762 16.429 13.3762C16.397 12.8642 16.8453 11.9201 17.1656 11.2961C16.381 11.8721 16.0608 12.7842 16.0608 13.7122C16.0608 14.8482 16.2369 15.2482 16.2369 15.2482C16.2369 15.2482 17.3897 15.2482 17.4217 15.8402C17.4538 16.4322 16.8774 16.7042 16.397 16.8482C16.397 16.8482 16.2849 17.1202 16.1408 17.5042C16.7493 17.5522 17.838 17.4882 17.9341 16.3522C18.0622 14.7842 16.7813 15.0722 16.7813 14.7202C16.7813 13.9042 19.087 12.6402 19.6954 14.7202C20.0476 15.9362 19.4712 17.0562 18.9428 17.7602C19.5993 17.2802 20.3519 16.5922 20.496 15.6002C20.7041 13.9042 19.6313 13.1522 18.1743 13.2002Z" fill="black"/>
<path d="M7.83078 9.40795C8.37518 9.74395 8.93558 10.288 9.33587 11.12H13.8031C13.9952 10.608 14.2835 10.096 14.7158 9.64795C15.3242 9.00794 16.1248 8.65594 16.9254 8.44794C16.9574 8.30394 17.0054 8.14394 17.0214 7.99994C17.2936 6.46393 17.1015 4.54391 16.5091 3.43991C16.477 3.43991 15.2121 1.15189 15.1801 1.15189L8.51928 1.08789C8.48726 1.08789 7.89483 3.43991 7.8628 3.43991C7.28639 4.52791 7.07824 6.46393 7.36645 7.99994C7.4465 8.49594 7.60662 8.95994 7.83078 9.40795Z" fill="#FF7384"/>
<path opacity="0.3" d="M9.31986 11.12H13.7871C13.9792 10.608 14.2674 10.096 14.6998 9.64795C15.3082 9.00794 16.1088 8.65594 16.9093 8.44794C16.9414 8.30394 16.9894 8.14394 17.0054 7.99994C17.2776 6.46393 17.0855 4.54391 16.493 3.43991C16.461 3.43991 15.1961 1.15189 15.1641 1.15189L8.51928 1.08789C8.48726 1.08789 7.89483 3.43991 7.8628 3.43991C7.28639 4.52791 7.07824 6.46393 7.36645 7.99994C7.4465 8.49594 7.60662 8.97594 7.83078 9.42395C8.35916 9.75995 8.91957 10.288 9.31986 11.12Z" fill="black"/>
<path d="M15.1321 8.46387C14.9079 8.25587 14.6357 8.09587 14.3475 7.99987C12.9545 7.53587 12.234 8.41587 12.186 8.47987C12.1379 8.41587 11.4174 7.53587 10.0244 7.99987C9.73619 8.09587 9.464 8.25587 9.23984 8.46387C9.09573 7.58387 9.38394 6.68786 10.0244 6.06386C11.2253 4.84785 12.186 5.82386 11.7056 6.30386C11.2253 6.78386 11.4654 7.51987 12.186 7.51987C12.9065 7.51987 13.1467 6.79986 12.6663 6.30386C12.186 5.82386 13.1467 4.84785 14.3475 6.06386C14.988 6.67186 15.2762 7.56787 15.1321 8.46387Z" fill="#404A4C"/>
<path d="M15.2121 2.6879C15.132 2.7679 15.084 2.8799 15.084 3.0079V3.1039C15.036 2.9279 14.8599 2.7199 14.4436 2.7199C14.2354 2.7199 14.0433 2.7679 13.8671 2.8959C13.723 2.9919 13.643 3.1359 13.627 3.3119V3.1999C13.627 2.9919 13.4668 2.6719 12.9865 2.6719C12.7783 2.6719 12.5862 2.7359 12.4261 2.8639C12.282 2.9759 12.2019 3.1359 12.1859 3.3279C12.1859 3.1519 12.0898 2.9759 11.9457 2.8639C11.7856 2.7359 11.5775 2.6719 11.3853 2.6719C10.905 2.6719 10.7449 2.9759 10.7449 3.1999V3.3119C10.7449 3.1519 10.6488 2.9919 10.5047 2.8959C10.3286 2.7839 10.1364 2.7199 9.92828 2.7199C9.51198 2.7199 9.33586 2.9279 9.28782 3.1039V2.8799C9.28782 2.7999 9.2558 2.7199 9.20776 2.6399L9.23979 2.6239C9.46395 2.4639 9.68811 2.3199 9.92828 2.2079C11.3533 1.51989 13.0025 1.51989 14.4275 2.2079C14.6677 2.3199 14.9079 2.4639 15.116 2.6239C15.1481 2.6399 15.1801 2.6719 15.2121 2.6879Z" fill="#FFC49C"/>
<path d="M15.2121 2.6879C15.132 2.7679 15.084 2.8799 15.084 3.0079V3.1039C15.036 2.9279 14.8599 2.7199 14.4436 2.7199C14.2354 2.7199 14.0433 2.7679 13.8671 2.8959C13.723 2.9919 13.643 3.1359 13.627 3.3119V3.1999C13.627 2.9919 13.4668 2.6719 12.9865 2.6719C12.7783 2.6719 12.5862 2.7359 12.4261 2.8639C12.282 2.9759 12.2019 3.1359 12.1859 3.3279C12.1859 3.1519 12.0898 2.9759 11.9457 2.8639C11.7856 2.7359 11.5775 2.6719 11.3853 2.6719C10.905 2.6719 10.7449 2.9759 10.7449 3.1999V3.3119C10.7449 3.1519 10.6488 2.9919 10.5047 2.8959C10.3286 2.7839 10.1364 2.7199 9.92828 2.7199C9.51198 2.7199 9.33586 2.9279 9.28782 3.1039V2.8799C9.28782 2.7999 9.2558 2.7199 9.20776 2.6399L9.23979 2.6239C9.46395 2.4639 9.68811 2.3199 9.92828 2.2079C11.3533 1.51989 13.0025 1.51989 14.4275 2.2079C14.6677 2.3199 14.9079 2.4639 15.116 2.6239C15.1481 2.6399 15.1801 2.6719 15.2121 2.6879Z" fill="#FFC49C"/>
<path d="M9.46391 11.472C10.2805 12.432 11.2572 13.216 12.1699 13.232L13.4028 13.008C13.4188 12.672 13.4508 12.304 13.5309 11.904L12.1859 8.48002C12.1378 8.41602 11.4173 7.53601 10.0243 8.00001C9.73611 8.09602 9.46391 8.25602 9.23975 8.46402C8.83946 8.83202 8.53524 9.28002 8.32709 9.79203C8.7594 10.16 9.1757 10.704 9.46391 11.472Z" fill="#FF7384"/>
<path opacity="0.35" d="M15.2121 2.6879C15.132 2.7679 15.084 2.8799 15.084 3.0079V3.1039C15.036 2.9279 14.8599 2.7199 14.4436 2.7199C14.2354 2.7199 14.0433 2.7679 13.8671 2.8959C13.723 2.9919 13.643 3.1359 13.627 3.3119V3.1999C13.627 2.9919 13.4668 2.6719 12.9865 2.6719C12.7783 2.6719 12.5862 2.7359 12.4261 2.8639C12.282 2.9759 12.2019 3.1359 12.1859 3.3279C12.1859 3.1519 12.0898 2.9759 11.9457 2.8639C11.7856 2.7359 11.5775 2.6719 11.3853 2.6719C10.905 2.6719 10.7449 2.9759 10.7449 3.1999V3.3119C10.7449 3.1519 10.6488 2.9919 10.5047 2.8959C10.3286 2.7839 10.1364 2.7199 9.92828 2.7199C9.51198 2.7199 9.33586 2.9279 9.28782 3.1039V2.8799C9.28782 2.7999 9.2558 2.7199 9.20776 2.6399L9.23979 2.6239C9.46395 2.4639 9.68811 2.3199 9.92828 2.2079C11.3533 1.51989 13.0025 1.51989 14.4275 2.2079C14.6677 2.3199 14.9079 2.4639 15.116 2.6239C15.1481 2.6399 15.1801 2.6719 15.2121 2.6879Z" fill="#FF5F6B"/>
<path opacity="0.1" d="M12.186 3.07202V3.85602C12.17 4.01603 12.0259 4.12803 11.8658 4.11203H11.0652C10.9051 4.12803 10.761 4.01603 10.745 3.85602V2.94402C10.745 2.73602 10.9051 2.41602 11.3855 2.41602C11.5936 2.41602 11.7857 2.48002 11.9459 2.60802C12.09 2.72002 12.17 2.89602 12.186 3.07202Z" fill="black"/>
<path opacity="0.1" d="M10.7289 3.05598V3.72799C10.7289 3.87199 10.5688 3.98399 10.3607 3.98399H9.64015C9.432 3.98399 9.27188 3.87199 9.27188 3.72799V3.48799C9.27188 3.47199 9.28789 3.45599 9.28789 3.42399V2.86398C9.33593 2.68798 9.51206 2.47998 9.92836 2.47998C10.1365 2.47998 10.3286 2.52798 10.5048 2.65598C10.6329 2.73598 10.7289 2.89598 10.7289 3.05598Z" fill="black"/>
<path opacity="0.1" d="M13.627 2.94402V3.85602C13.611 4.01603 13.4669 4.12803 13.3068 4.11203H12.5062C12.3461 4.12803 12.202 4.01603 12.186 3.85602V3.07202C12.186 2.89602 12.2821 2.72002 12.4262 2.60802C12.5863 2.48002 12.7944 2.41602 12.9866 2.41602C13.4669 2.41602 13.627 2.72002 13.627 2.94402Z" fill="black"/>
<path opacity="0.1" d="M15.0841 3.48787V3.72788C15.0841 3.87188 14.924 3.98388 14.7158 3.98388H13.9953C13.7871 3.98388 13.627 3.87188 13.627 3.72788V3.05587C13.627 2.89587 13.7231 2.73587 13.8672 2.63987C14.0433 2.52787 14.2355 2.46387 14.4436 2.46387C14.8599 2.46387 15.036 2.67187 15.0841 2.84787V3.40787C15.0681 3.43987 15.0841 3.47187 15.0841 3.48787Z" fill="black"/>
<path d="M7.60834 8.00093C7.33614 6.46492 7.52828 5.02491 8.12071 3.9209C8.29684 3.5849 8.521 3.2649 8.7932 2.99289L8.80921 2.97689C8.9373 2.86489 9.0814 2.75289 9.22551 2.64089L9.25753 2.62489C9.48169 2.46489 9.70586 2.32089 9.94603 2.20889C11.3711 1.52088 13.0203 1.52088 14.4453 2.20889C14.6855 2.32089 14.9256 2.46489 15.1338 2.62489C15.1658 2.64089 15.1818 2.65689 15.2138 2.67289C15.3419 2.76889 15.47 2.86489 15.5821 2.97689L15.5981 2.99289C15.8543 3.2649 16.0785 3.5849 16.2706 3.9209C16.847 5.00891 17.0552 6.46492 16.783 8.00093C16.751 8.17693 16.7189 8.35293 16.6549 8.52893C17.0712 8.40093 17.4715 8.33693 17.8558 8.28893C18.24 5.56891 17.6956 2.68889 15.9664 0.96088C14.2051 -0.799132 12.1877 0.464876 12.1877 0.464876C12.1877 0.464876 10.1702 -0.815132 8.40892 0.94488C6.55157 2.80089 6.05522 6.00091 6.61562 8.89693C7.01591 8.99293 7.64036 9.21693 8.21678 9.69694C7.92857 9.16893 7.70441 8.59293 7.60834 8.00093Z" fill="#FF7384"/>
<path d="M13.5629 11.8561C13.1306 12.0001 12.6663 12.0961 12.1859 12.1121C11.0971 12.0801 10.0564 11.6641 9.2558 10.9761C9.59204 11.6161 9.83222 12.4481 9.86424 13.5361C11.0811 14.0641 12.1859 14.0641 12.1859 14.0641C12.1859 14.0641 12.7143 14.0641 13.4508 13.8881C13.4028 13.4561 13.3708 12.7041 13.5629 11.8561Z" fill="#FF7384"/>
<path opacity="0.1" d="M7.60834 8.00093C7.33614 6.46492 7.52828 5.02491 8.12071 3.9209C8.29684 3.5849 8.521 3.2649 8.7932 2.99289L8.80921 2.97689C8.9373 2.86489 9.0814 2.75289 9.22551 2.64089L9.25753 2.62489C9.48169 2.46489 9.70586 2.32089 9.94603 2.20889C11.3711 1.52088 13.0203 1.52088 14.4453 2.20889C14.6855 2.32089 14.9256 2.46489 15.1338 2.62489C15.1658 2.64089 15.1818 2.65689 15.2138 2.67289C15.3419 2.76889 15.47 2.86489 15.5821 2.97689L15.5981 2.99289C15.8543 3.2649 16.0785 3.5849 16.2706 3.9209C16.847 5.00891 17.0552 6.46492 16.783 8.00093C16.751 8.17693 16.7189 8.35293 16.6549 8.52893C17.0712 8.40093 17.4715 8.33693 17.8558 8.28893C18.24 5.56891 17.6956 2.68889 15.9664 0.96088C14.2051 -0.799132 12.1877 0.464876 12.1877 0.464876C12.1877 0.464876 10.1702 -0.815132 8.40892 0.94488C6.55157 2.80089 6.05522 6.00091 6.61562 8.89693C7.01591 8.99293 7.64036 9.21693 8.21678 9.69694C7.92857 9.16893 7.70441 8.59293 7.60834 8.00093Z" fill="black"/>
<path opacity="0.1" d="M13.5629 11.8561C13.1306 12.0001 12.6663 12.0961 12.1859 12.1121C11.0971 12.0801 10.0564 11.6641 9.2558 10.9761C9.59204 11.6161 9.83222 12.4481 9.86424 13.5361C11.0811 14.0641 12.1859 14.0641 12.1859 14.0641C12.1859 14.0641 12.7143 14.0641 13.4508 13.8881C13.4028 13.4561 13.3708 12.7041 13.5629 11.8561Z" fill="black"/>
<path d="M12.186 3.31201V4.09602C12.17 4.25602 12.0259 4.36802 11.8658 4.35202H11.0652C10.9051 4.36802 10.761 4.25602 10.745 4.09602V3.18401C10.745 2.97601 10.9051 2.65601 11.3855 2.65601C11.5936 2.65601 11.7857 2.72001 11.9459 2.84801C12.09 2.96001 12.17 3.13601 12.186 3.31201Z" fill="white"/>
<path d="M10.7289 3.29597V3.96798C10.7289 4.11198 10.5688 4.22398 10.3607 4.22398H9.64015C9.432 4.22398 9.27188 4.11198 9.27188 3.96798V3.72798C9.27188 3.71198 9.28789 3.69598 9.28789 3.66398V3.10397C9.33593 2.92797 9.51206 2.71997 9.92836 2.71997C10.1365 2.71997 10.3286 2.76797 10.5048 2.89597C10.6329 2.97597 10.7289 3.13597 10.7289 3.29597Z" fill="white"/>
<path d="M13.627 3.18401V4.09602C13.611 4.25602 13.4669 4.36802 13.3068 4.35202H12.5062C12.3461 4.36802 12.202 4.25602 12.186 4.09602V3.31201C12.186 3.13601 12.2821 2.96001 12.4262 2.84801C12.5863 2.72001 12.7944 2.65601 12.9866 2.65601C13.4669 2.67201 13.627 2.97601 13.627 3.18401Z" fill="white"/>
<path d="M15.0841 3.72786V3.96787C15.0841 4.11187 14.924 4.22387 14.7158 4.22387H13.9953C13.7871 4.22387 13.627 4.11187 13.627 3.96787V3.29586C13.627 3.13586 13.7231 2.97586 13.8672 2.87986C14.0433 2.76786 14.2355 2.70386 14.4436 2.70386C14.8599 2.70386 15.036 2.91186 15.0841 3.08786V3.64786C15.0681 3.69586 15.0841 3.71186 15.0841 3.72786Z" fill="white"/>
<path d="M16.2529 3.92013C16.2209 3.92013 16.1889 3.92013 16.1569 3.92013H15.4364C15.2922 3.93613 15.1481 3.85613 15.0841 3.71213V3.16812C15.0841 3.13612 15.0841 3.12012 15.0681 3.08812V2.99212C15.0681 2.88012 15.1161 2.75212 15.1962 2.67212C15.3243 2.76812 15.4524 2.86412 15.5644 2.97612L15.5805 2.99212C15.8527 3.28012 16.0768 3.58412 16.2529 3.92013Z" fill="white"/>
<path d="M9.28792 2.88001V3.10401C9.28792 3.13601 9.2719 3.15201 9.2719 3.18401V3.72801C9.20786 3.85601 9.06375 3.93601 8.91965 3.93601H8.19913C8.1671 3.93601 8.13508 3.93601 8.10306 3.93601C8.27919 3.60001 8.50335 3.28001 8.77555 3.00801L8.79156 2.99201C8.91965 2.88001 9.06375 2.76801 9.20786 2.65601C9.25589 2.72001 9.28792 2.80001 9.28792 2.88001Z" fill="white"/>
<path d="M13.563 11.8561C13.7231 11.1201 14.0594 10.32 14.6998 9.63204C14.956 9.36004 15.2602 9.13604 15.5805 8.94404C15.4524 8.76804 15.3083 8.59204 15.1321 8.43204C14.908 8.22403 14.6358 8.06403 14.3476 7.96803C12.9546 7.50403 12.234 8.38404 12.186 8.44804V12.0801C12.6664 12.0961 13.1307 12.0161 13.563 11.8561Z" fill="#FF7384"/>
</svg>
