<svg width="24" height="24" viewBox="0 0 24 24" fill="none" xmlns="http://www.w3.org/2000/svg">
<path d="M10.961 16.8528C10.961 16.8528 10.6529 13.2552 8.93615 11.4324C6.82327 9.17797 5.45871 8.89016 4.75441 9.20995C4.05012 9.52973 2.28939 10.1693 1.03487 12.6316C-0.219649 15.094 3.05971 18.3398 4.0061 19.1233C4.9525 19.9067 6.31706 21.3138 8.60601 22.529C10.895 23.7441 11.3792 23.984 12.8978 23.984C14.4384 23.984 16.2212 23.7282 19.1044 20.8981C21.9876 18.068 24.1665 13.607 22.3177 11.6723C22.3177 11.6723 21.5474 12.1999 19.1484 12.2319C16.7494 12.2639 16.2212 11.7682 15.803 11.2726C15.803 11.2726 15.3408 11.8642 15.4288 12.6796C15.5389 13.4951 17.0795 17.9081 12.7217 21.3937C12.7217 21.3937 14.3064 18.8994 14.6805 16.9967C15.0547 15.094 14.4604 13.623 14.2183 12.3758C13.9762 11.1287 14.3944 9.78556 20.645 7.01942C21.3273 6.71563 23 5.8682 23.7043 5.51644C23.9244 5.40451 24.0344 5.22863 23.9904 5.03676C23.9464 4.73297 23.7923 4.2373 23.3741 3.69367C23.066 3.29394 22.7359 3.00613 22.4718 2.78228C22.1196 2.49448 21.5254 2.44651 21.0852 2.65437C19.9407 3.198 17.5857 4.25329 16.1992 4.30126C15.5609 4.33324 15.0547 4.07741 14.7686 3.88554C14.5265 3.72565 14.1963 3.6457 13.8882 3.67768C13.382 3.70966 12.6337 3.80559 12.0394 4.04543C11.005 4.44516 11.049 4.70099 11.2031 4.95682C11.3572 5.21264 11.8854 5.5804 11.027 5.96414C10.1687 6.34788 9.5304 6.4598 8.76008 7.33921C7.98976 8.21862 8.07779 8.26658 7.52757 8.66631C7.50556 8.66631 12.3696 11.6883 10.961 16.8528Z" fill="#FF7384"/>
<path d="M7.08746 1.7266C7.10947 1.53473 6.95541 1.35885 6.71331 1.29489C6.27312 1.16698 5.63486 1.07104 4.90856 1.07104C4.11623 1.07104 3.41194 1.16698 2.97175 1.34286C2.79568 1.40682 2.68564 1.51874 2.66363 1.66265C2.55358 2.1743 2.26746 3.54937 1.8713 4.71659C1.36509 6.18759 0.0445397 8.15427 0.0225306 9.43341C0.000521472 10.7125 0.572759 11.464 0.572759 11.464C0.572759 11.464 2.64162 7.99438 5.65687 8.04234C5.65687 8.04234 3.91815 4.57268 7.04344 2.19029L7.08746 1.7266Z" fill="#FF7384"/>
<path opacity="0.1" d="M4.90854 2.19056C5.97821 2.19056 6.84535 1.99012 6.84535 1.74286C6.84535 1.49561 5.97821 1.29517 4.90854 1.29517C3.83888 1.29517 2.97174 1.49561 2.97174 1.74286C2.97174 1.99012 3.83888 2.19056 4.90854 2.19056Z" fill="black"/>
<path opacity="0.1" d="M23.4013 5.26516C23.696 5.14154 23.5014 4.49577 22.9665 3.82281C22.4317 3.14985 21.7592 2.70452 21.4645 2.82815C21.1697 2.95178 21.3644 3.59755 21.8992 4.27051C22.434 4.94347 23.1065 5.38879 23.4013 5.26516Z" fill="black"/>
<path d="M20.8212 7.83472C20.8212 7.83472 22.7801 8.7461 22.2298 10.9046C22.2298 10.9046 21.3715 11.4323 19.0605 11.4323C16.7496 11.4323 16.5515 11.1125 16.6175 10.5529C16.6835 9.99326 17.9381 9.43364 18.2462 9.24177C18.5543 9.03391 20.8212 7.83472 20.8212 7.83472Z" fill="#94C6E7"/>
<path d="M17.916 3.00597L16.6175 3.37373C16.6175 3.37373 15.9352 3.59757 14.9888 2.974C14.0424 2.35042 11.5334 3.13389 11.0712 3.30977C10.609 3.48565 9.57457 4.23714 9.83868 4.71682C10.1028 5.1965 10.2789 5.22847 9.99274 5.37238C9.70662 5.51628 9.15639 5.58024 8.47411 6.0759C7.79183 6.57157 7.46169 7.43499 6.80142 7.85071C6.80142 7.85071 6.25119 7.09921 6.25119 5.50029C6.25119 3.96533 7.65977 2.27047 9.06836 1.99865L8.51813 0.767483L10.3669 0.223849L11.2032 1.56694L11.9075 1.55095V0H13.7783L14.0644 1.74282H14.4606L15.407 0.191871L17.1677 0.655558L16.5735 2.33443C16.5955 2.35042 17.6299 2.68619 17.916 3.00597Z" fill="#94C6E7"/>
<path opacity="0.1" d="M13.0301 21.9854C11.7316 21.9854 6.9776 20.6743 3.56618 15.3019C2.50975 13.655 2.13559 12.7916 1.80545 11.4485C1.54134 11.8002 1.27723 12.2 1.03513 12.6637C-0.197378 15.126 3.08198 18.3558 4.02838 19.1393C4.97477 19.9228 6.33933 21.3298 8.62828 22.545C10.9172 23.7602 11.4014 24 12.9201 24C14.4607 24 16.2434 23.7442 19.1266 20.9141C21.0194 19.0434 22.6481 16.4051 22.9782 14.2786C20.2931 21.026 14.6368 21.9854 13.0301 21.9854Z" fill="black"/>
<path opacity="0.1" d="M1.4092 10.3769C0.858975 7.65871 1.36519 5.86792 1.36519 5.86792C0.770939 7.09909 0.0226281 8.45818 0.000618982 9.41753C-0.0213901 10.6967 0.550847 11.4482 0.550847 11.4482C0.550847 11.4482 0.880984 10.9845 1.4092 10.3769Z" fill="black"/>
</svg>
