<svg width="28" height="29" viewBox="0 0 28 29" fill="none" xmlns="http://www.w3.org/2000/svg">
<path d="M27.3541 12.1598L14.9424 1.30391C14.5389 0.950997 14.0075 0.760003 13.4594 0.770855C12.9112 0.781707 12.3887 0.993564 12.001 1.36215L0.585813 12.2147L0 12.7715V28.7704H11V18.788H17V28.7704H28V12.7248L27.3541 12.1598ZM13.5024 2.67186C13.52 2.67186 13.5091 2.67548 13.5016 2.68255C13.4937 2.67548 13.4847 2.67186 13.5024 2.67186ZM26 26.869H19V18.788C19 18.2837 18.7893 17.8001 18.4142 17.4435C18.0391 17.0869 17.5304 16.8866 17 16.8866H11C10.4696 16.8866 9.96086 17.0869 9.58579 17.4435C9.21071 17.8001 9 18.2837 9 18.788V26.869H2V13.5591L13.5024 2.70662C13.5032 2.70591 13.5032 2.70525 13.5039 2.70454L26 13.5591V26.869Z" fill="black"/>
</svg>
