<svg width="155" height="136" viewBox="0 0 155 136" fill="none" xmlns="http://www.w3.org/2000/svg">
<rect width="155" height="136" rx="18" fill="#DEF6E5"/>
<rect x="49" y="40" width="56" height="56" rx="12" fill="white"/>
<g clip-path="url(#clip0_177_204)">
<path d="M66.2199 73.3841C66.2194 73.3832 66.2144 73.3745 66.2138 73.3735C65.9295 72.8875 65.3076 72.7276 64.8213 73.0111C64.3349 73.2946 64.1724 73.9225 64.4552 74.4092C64.4557 74.4101 64.4608 74.4188 64.4613 74.4197C64.6505 74.7432 64.9892 74.9222 65.338 74.9222C65.5133 74.9222 65.6911 74.8771 65.8538 74.7821C66.3402 74.4986 66.5026 73.8709 66.2199 73.3841Z" fill="#059B5C"/>
<path d="M83.9947 66.8192C83.936 66.2586 83.4343 65.852 82.8737 65.9106C81.8334 66.0194 80.8152 65.659 80.0781 64.9219C79.341 64.1848 78.9807 63.1657 79.0894 62.1262C79.1481 61.5657 78.7414 61.0638 78.1809 61.0052C77.6204 60.9462 77.1186 61.3534 77.0599 61.9138C76.8867 63.5683 77.4608 65.1906 78.6353 66.3651C79.672 67.4018 81.0577 67.9706 82.5065 67.9706C82.6989 67.9706 82.8925 67.9606 83.0861 67.9402C83.6466 67.8817 84.0533 67.3796 83.9947 66.8192Z" fill="#059B5C"/>
<path d="M83.7702 59.477C83.7116 58.9166 83.2114 58.5086 82.6492 58.5684C82.3411 58.6006 82.0382 58.4938 81.8193 58.2749C81.6006 58.0563 81.4938 57.7539 81.526 57.4452C81.5847 56.8846 81.1778 56.3828 80.6174 56.3242C80.0558 56.2659 79.555 56.6723 79.4964 57.2328C79.3997 58.1564 79.7205 59.0624 80.3763 59.7181C80.9554 60.2973 81.7291 60.6152 82.5383 60.6151C82.6455 60.6151 82.7536 60.6095 82.8616 60.5982C83.4221 60.5394 83.8289 60.0375 83.7702 59.477Z" fill="#059B5C"/>
<path d="M88.6758 64.3825C88.6172 63.8221 88.1155 63.415 87.5548 63.4739C87.2459 63.5061 86.9437 63.3993 86.7248 63.1803C86.5062 62.9618 86.3993 62.6593 86.4316 62.3506C86.4903 61.7901 86.0834 61.2882 85.523 61.2296C84.9609 61.1709 84.4606 61.5778 84.402 62.1382C84.3053 63.0619 84.6261 63.9678 85.2818 64.6234C85.8609 65.2026 86.6348 65.5205 87.4439 65.5205C87.5511 65.5205 87.6591 65.5149 87.7672 65.5036C88.3277 65.445 88.7345 64.943 88.6758 64.3825Z" fill="#059B5C"/>
<path d="M93.3693 51.6305C93.3655 51.6266 93.3616 51.623 93.3577 51.6192L93.3578 51.6191C93.3539 51.6152 93.3499 51.6118 93.3461 51.608C90.869 49.1428 87.5819 47.7854 84.0861 47.7854C80.5794 47.7854 77.2824 49.151 74.8027 51.6306C69.6841 56.7494 69.6841 65.0783 74.8027 70.1971C76.2018 71.5961 77.861 72.6403 79.6713 73.2849C75.9517 73.003 72.4931 71.4195 69.8277 68.7541C69.4293 68.3559 68.7833 68.3557 68.3846 68.7541C67.9861 69.1525 67.9861 69.7987 68.3846 70.1972C71.7213 73.534 76.1579 75.3717 80.877 75.3716C85.5658 75.3715 89.9754 73.5565 93.3049 70.26C93.3262 70.2389 93.348 70.2184 93.3692 70.1971L93.3694 70.1969C98.4881 65.0782 98.4881 56.7493 93.3693 51.6305ZM91.9262 68.7541C91.8606 68.8196 91.7941 68.8835 91.7278 68.9477C89.6578 70.9194 86.9551 72.0016 84.0861 72.0016C81.1245 72.0016 78.3401 70.8484 76.2459 68.7542C71.9229 64.4309 71.9229 57.3967 76.2459 53.0738C78.34 50.9796 81.1244 49.8263 84.0861 49.8263C85.2511 49.8263 86.3882 50.0055 87.4671 50.3494C86.7385 50.6243 86.0698 51.0522 85.5027 51.6193C84.6249 52.497 84.1415 53.6643 84.1416 54.9057C84.1416 56.1471 84.6251 57.3143 85.5029 58.1919C86.2315 58.9208 87.147 59.3659 88.0811 59.4456C88.1832 59.4543 88.2847 59.4586 88.3854 59.4586C89.2899 59.4586 90.1321 59.1097 90.7829 58.4589C92.1306 57.1112 92.1719 55.4109 90.8883 54.1273C90.4897 53.729 89.8437 53.729 89.4451 54.1273C89.0467 54.5257 89.0467 55.1719 89.4451 55.5705C89.6627 55.7879 90.1151 56.2405 89.3398 57.016C89.0408 57.3149 88.6754 57.4485 88.2545 57.4122C87.7994 57.3734 87.3346 57.1378 86.9459 56.749C85.9295 55.7326 85.9294 54.0788 86.9457 53.0625C88.3122 51.6959 90.5331 51.6927 91.9039 53.052C91.9112 53.0593 91.9188 53.0664 91.9263 53.0738C96.2492 57.3968 96.2492 64.4309 91.9262 68.7541Z" fill="#059B5C"/>
<path d="M60.6157 79.0163L60.5951 78.9806C60.3065 78.4967 59.6787 78.336 59.1949 78.6246C58.7108 78.9132 58.5513 79.5375 58.8398 80.0215C59.0276 80.3532 59.3731 80.5394 59.7287 80.5394C59.899 80.5394 60.0718 80.4967 60.2305 80.4069C60.7208 80.1294 60.8934 79.5067 60.6157 79.0163Z" fill="#059B5C"/>
<path d="M96.8886 48.1262C93.5817 44.8205 89.1851 43 84.5087 43C79.8322 43 75.4354 44.8206 72.1285 48.1264L57.128 63.1219C50.3017 69.9461 50.3016 81.0496 57.1278 87.8738C60.4347 91.1795 64.8313 93 69.5078 93C74.1844 93 78.5811 91.1794 81.888 87.8736L96.8885 72.8781C103.715 66.054 103.715 54.9503 96.8886 48.1262ZM95.4447 71.435L80.4443 86.4305C77.523 89.3508 73.639 90.9592 69.5078 90.9592C65.3766 90.9592 61.4927 89.3509 58.5715 86.4308C53.0591 80.9202 52.5868 72.2514 57.1521 66.198C57.0537 66.5368 56.9631 66.8784 56.885 67.2239C56.1706 70.3833 56.3342 73.6746 57.3583 76.742C57.5009 77.1693 57.8992 77.4396 58.3264 77.4396C58.4335 77.4396 58.5425 77.4227 58.6496 77.3868C59.1843 77.2085 59.4731 76.6305 59.2947 76.0959C57.4389 70.5372 58.8028 64.5214 62.8479 60.3145C62.7166 60.7407 62.6001 61.1723 62.5011 61.6096C61.7867 64.7689 61.9503 68.0603 62.9744 71.1277C63.117 71.5552 63.5152 71.8254 63.9425 71.8254C64.0496 71.8254 64.1585 71.8084 64.2657 71.7726C64.8004 71.5942 65.0892 71.0162 64.9108 70.4816C63.0214 64.8222 64.4673 58.6876 68.6844 54.4721C68.68 54.4706 68.6764 54.469 68.6722 54.4676L73.5719 49.5694C76.4934 46.6492 80.3774 45.0408 84.5088 45.0408C88.64 45.0408 92.5238 46.6491 95.4451 49.5693C101.475 55.5977 101.475 65.4066 95.4447 71.435Z" fill="#059B5C"/>
</g>
<defs>
<clipPath id="clip0_177_204">
<rect width="50" height="50" fill="white" transform="translate(52 43)"/>
</clipPath>
</defs>
</svg>
