<svg width="42" height="33" viewBox="0 0 42 33" fill="none" xmlns="http://www.w3.org/2000/svg">
<path d="M40.5 1.71096e-06H29.775C27.4734 1.71096e-06 25.2234 0.660938 23.2875 1.90781L21 3.375L18.7125 1.90781C16.7785 0.661178 14.526 -0.00122869 12.225 1.71096e-06H1.5C0.670312 1.71096e-06 0 0.670314 0 1.5V28.125C0 28.9547 0.670312 29.625 1.5 29.625H12.225C14.5266 29.625 16.7766 30.2859 18.7125 31.5328L20.7938 32.8734C20.8547 32.9109 20.925 32.9343 20.9953 32.9343C21.0656 32.9343 21.1359 32.9156 21.1969 32.8734L23.2781 31.5328C25.2187 30.2859 27.4734 29.625 29.775 29.625H40.5C41.3297 29.625 42 28.9547 42 28.125V1.5C42 0.670314 41.3297 1.71096e-06 40.5 1.71096e-06ZM12.225 26.25H3.375V3.375H12.225C13.8844 3.375 15.4969 3.84844 16.8891 4.74375L19.1766 6.21093L19.5 6.42187V28.0781C17.2688 26.8781 14.775 26.25 12.225 26.25ZM38.625 26.25H29.775C27.225 26.25 24.7312 26.8781 22.5 28.0781V6.42187L22.8234 6.21093L25.1109 4.74375C26.5031 3.84844 28.1156 3.375 29.775 3.375H38.625V26.25Z" fill="#6E6E6E"/>
</svg>
