<svg width="94" height="20" viewBox="0 0 94 20" fill="none" xmlns="http://www.w3.org/2000/svg">
<path d="M8.022 15.5L5.908 12.49C5.64667 12.5087 5.44133 12.518 5.292 12.518H2.87V15.5H1.47V5.7H5.292C6.56133 5.7 7.56 6.00333 8.288 6.61C9.016 7.21667 9.38 8.052 9.38 9.116C9.38 9.872 9.19333 10.516 8.82 11.048C8.44667 11.58 7.91467 11.9673 7.224 12.21L9.548 15.5H8.022ZM5.25 11.328C6.13667 11.328 6.81333 11.1367 7.28 10.754C7.74667 10.3713 7.98 9.82533 7.98 9.116C7.98 8.40667 7.74667 7.86533 7.28 7.492C6.81333 7.10933 6.13667 6.918 5.25 6.918H2.87V11.328H5.25ZM18.1519 11.832C18.1519 11.9347 18.1425 12.07 18.1239 12.238H12.1039C12.1879 12.8913 12.4725 13.4187 12.9579 13.82C13.4525 14.212 14.0639 14.408 14.7919 14.408C15.6785 14.408 16.3925 14.1093 16.9339 13.512L17.6759 14.38C17.3399 14.772 16.9199 15.0707 16.4159 15.276C15.9212 15.4813 15.3659 15.584 14.7499 15.584C13.9659 15.584 13.2705 15.4253 12.6639 15.108C12.0572 14.7813 11.5859 14.3287 11.2499 13.75C10.9232 13.1713 10.7599 12.518 10.7599 11.79C10.7599 11.0713 10.9185 10.4227 11.2359 9.844C11.5625 9.26533 12.0059 8.81733 12.5659 8.5C13.1352 8.17333 13.7745 8.01 14.4839 8.01C15.1932 8.01 15.8232 8.17333 16.3739 8.5C16.9339 8.81733 17.3679 9.26533 17.6759 9.844C17.9932 10.4227 18.1519 11.0853 18.1519 11.832ZM14.4839 9.144C13.8399 9.144 13.2985 9.34 12.8599 9.732C12.4305 10.124 12.1785 10.6373 12.1039 11.272H16.8639C16.7892 10.6467 16.5325 10.138 16.0939 9.746C15.6645 9.34467 15.1279 9.144 14.4839 9.144ZM22.5151 8.01C23.5417 8.01 24.3257 8.262 24.8671 8.766C25.4177 9.27 25.6931 10.0213 25.6931 11.02V15.5H24.4191V14.52C24.1951 14.8653 23.8731 15.1313 23.4531 15.318C23.0424 15.4953 22.5524 15.584 21.9831 15.584C21.1524 15.584 20.4851 15.3833 19.9811 14.982C19.4864 14.5807 19.2391 14.0533 19.2391 13.4C19.2391 12.7467 19.4771 12.224 19.9531 11.832C20.4291 11.4307 21.1851 11.23 22.2211 11.23H24.3491V10.964C24.3491 10.3853 24.1811 9.942 23.8451 9.634C23.5091 9.326 23.0144 9.172 22.3611 9.172C21.9224 9.172 21.4931 9.24667 21.0731 9.396C20.6531 9.536 20.2984 9.72733 20.0091 9.97L19.4491 8.962C19.8317 8.654 20.2891 8.42067 20.8211 8.262C21.3531 8.094 21.9177 8.01 22.5151 8.01ZM22.2071 14.548C22.7204 14.548 23.1637 14.436 23.5371 14.212C23.9104 13.9787 24.1811 13.652 24.3491 13.232V12.196H22.2771C21.1384 12.196 20.5691 12.5787 20.5691 13.344C20.5691 13.7173 20.7137 14.0113 21.0031 14.226C21.2924 14.4407 21.6937 14.548 22.2071 14.548ZM35.2213 5.112V15.5H33.9333V14.324C33.6346 14.7347 33.2566 15.0473 32.7993 15.262C32.3419 15.4767 31.8379 15.584 31.2873 15.584C30.5686 15.584 29.9246 15.4253 29.3553 15.108C28.7859 14.7907 28.3379 14.3473 28.0113 13.778C27.6939 13.1993 27.5353 12.5367 27.5353 11.79C27.5353 11.0433 27.6939 10.3853 28.0113 9.816C28.3379 9.24667 28.7859 8.80333 29.3553 8.486C29.9246 8.16867 30.5686 8.01 31.2873 8.01C31.8193 8.01 32.3093 8.11267 32.7573 8.318C33.2053 8.514 33.5786 8.808 33.8773 9.2V5.112H35.2213ZM31.3993 14.408C31.8659 14.408 32.2906 14.3007 32.6733 14.086C33.0559 13.862 33.3546 13.554 33.5693 13.162C33.7839 12.7607 33.8913 12.3033 33.8913 11.79C33.8913 11.2767 33.7839 10.824 33.5693 10.432C33.3546 10.0307 33.0559 9.72267 32.6733 9.508C32.2906 9.29333 31.8659 9.186 31.3993 9.186C30.9233 9.186 30.4939 9.29333 30.1113 9.508C29.7379 9.72267 29.4393 10.0307 29.2153 10.432C29.0006 10.824 28.8933 11.2767 28.8933 11.79C28.8933 12.3033 29.0006 12.7607 29.2153 13.162C29.4393 13.554 29.7379 13.862 30.1113 14.086C30.4939 14.3007 30.9233 14.408 31.3993 14.408ZM43.12 6.918V10.334H48.034V11.538H43.12V15.5H41.72V5.7H48.636V6.918H43.12ZM57.0943 8.08V15.5H55.8203V14.38C55.5496 14.7627 55.1903 15.0613 54.7423 15.276C54.3036 15.4813 53.823 15.584 53.3003 15.584C52.311 15.584 51.5316 15.3133 50.9623 14.772C50.393 14.2213 50.1083 13.414 50.1083 12.35V8.08H51.4523V12.196C51.4523 12.9147 51.625 13.4607 51.9703 13.834C52.3156 14.198 52.8103 14.38 53.4543 14.38C54.1636 14.38 54.7236 14.1653 55.1343 13.736C55.545 13.3067 55.7503 12.7 55.7503 11.916V8.08H57.0943ZM59.6529 5.112H60.9969V15.5H59.6529V5.112ZM63.5631 5.112H64.9071V15.5H63.5631V5.112Z" fill="#059B5C"/>
<path d="M71.1667 10H82.8334" stroke="#059B5C" stroke-width="1.25" stroke-linecap="round" stroke-linejoin="round"/>
<path d="M79.5 13.3333L82.8333 10" stroke="#059B5C" stroke-width="1.25" stroke-linecap="round" stroke-linejoin="round"/>
<path d="M79.5 6.66669L82.8333 10" stroke="#059B5C" stroke-width="1.25" stroke-linecap="round" stroke-linejoin="round"/>
</svg>
