<svg width="155" height="136" viewBox="0 0 155 136" fill="none" xmlns="http://www.w3.org/2000/svg">
<rect width="155" height="136" fill="#E5E5E5"/>
<path d="M0 18C0 8.05888 8.05887 0 18 0H137C146.941 0 155 8.05888 155 18V118C155 127.941 146.941 136 137 136H18C8.05888 136 0 127.941 0 118V18Z" fill="#059B5C"/>
<rect x="50" y="41.592" width="56" height="56" rx="12" fill="white"/>
<mask id="mask0_0_1" style="mask-type:alpha" maskUnits="userSpaceOnUse" x="54" y="46" width="48" height="48">
<path d="M67.6511 75.1688C67.6506 75.1679 67.6458 75.1596 67.6452 75.1586C67.3723 74.692 66.7753 74.5386 66.3084 74.8107C65.8415 75.0829 65.6855 75.6856 65.957 76.1528C65.9574 76.1537 65.9623 76.162 65.9629 76.163C66.1445 76.4735 66.4696 76.6453 66.8045 76.6453C66.9727 76.6453 67.1435 76.602 67.2996 76.5109C67.7666 76.2387 67.9225 75.6361 67.6511 75.1688Z" fill="black"/>
<path d="M84.7149 68.8664C84.6586 68.3283 84.1769 67.9379 83.6388 67.9941C82.64 68.0987 81.6626 67.7526 80.955 67.045C80.2474 66.3374 79.9014 65.3591 80.0059 64.3611C80.0622 63.8231 79.6717 63.3412 79.1336 63.285C78.5956 63.2284 78.1138 63.6193 78.0575 64.1572C77.8912 65.7456 78.4424 67.303 79.5698 68.4305C80.5651 69.4257 81.8954 69.9718 83.2863 69.9718C83.471 69.9718 83.6568 69.9621 83.8427 69.9426C84.3807 69.8864 84.7712 69.4044 84.7149 68.8664Z" fill="black"/>
<path d="M84.4994 61.8179C84.4432 61.28 83.963 60.8883 83.4233 60.9457C83.1275 60.9766 82.8367 60.8741 82.6266 60.664C82.4166 60.4541 82.314 60.1637 82.3449 59.8674C82.4013 59.3293 82.0107 58.8475 81.4727 58.7912C80.9335 58.7353 80.4528 59.1254 80.3965 59.6635C80.3037 60.5502 80.6117 61.4199 81.2412 62.0494C81.7972 62.6054 82.5399 62.9106 83.3168 62.9105C83.4197 62.9105 83.5235 62.9052 83.6272 62.8943C84.1652 62.8379 84.5558 62.3561 84.4994 61.8179Z" fill="black"/>
<path d="M89.2088 66.5273C89.1525 65.9893 88.6709 65.5985 88.1326 65.655C87.8361 65.6859 87.5459 65.5834 87.3358 65.3732C87.1259 65.1634 87.0234 64.873 87.0543 64.5767C87.1107 64.0386 86.7201 63.5568 86.182 63.5005C85.6424 63.4441 85.1621 63.8348 85.1059 64.3728C85.0131 65.2595 85.321 66.1292 85.9505 66.7585C86.5064 67.3146 87.2494 67.6197 88.0261 67.6197C88.129 67.6197 88.2327 67.6144 88.3365 67.6035C88.8745 67.5473 89.2651 67.0654 89.2088 66.5273Z" fill="black"/>
<path d="M93.7146 54.2853C93.7109 54.2816 93.7072 54.2781 93.7034 54.2744L93.7035 54.2743C93.6998 54.2706 93.6959 54.2673 93.6923 54.2637C91.3143 51.8971 88.1587 50.594 84.8027 50.594C81.4362 50.594 78.2711 51.905 75.8906 54.2854C70.9767 59.1994 70.9767 67.1952 75.8906 72.1092C77.2337 73.4523 78.8266 74.4547 80.5644 75.0735C76.9936 74.8029 73.6734 73.2827 71.1146 70.7239C70.7321 70.3417 70.112 70.3415 69.7292 70.7239C69.3467 71.1064 69.3467 71.7268 69.7292 72.1093C72.9324 75.3127 77.1916 77.0769 81.7219 77.0768C86.2232 77.0767 90.4564 75.3343 93.6527 72.1696C93.6731 72.1494 93.6941 72.1297 93.7145 72.1092L93.7147 72.1091C98.6286 67.1951 98.6286 59.1993 93.7146 54.2853ZM92.3291 70.7239C92.2662 70.7868 92.2024 70.8482 92.1387 70.9098C90.1515 72.8026 87.5569 73.8416 84.8027 73.8416C81.9595 73.8416 79.2865 72.7345 77.2761 70.724C73.1259 66.5737 73.1259 59.8209 77.2761 55.6708C79.2864 53.6605 81.9594 52.5533 84.8027 52.5533C85.921 52.5533 87.0127 52.7253 88.0484 53.0554C87.3489 53.3193 86.707 53.7301 86.1626 54.2745C85.3199 55.1172 84.8558 56.2377 84.8559 57.4295C84.8559 58.6212 85.3201 59.7417 86.1628 60.5843C86.8623 61.2839 87.7411 61.7112 88.6378 61.7877C88.7359 61.7962 88.8333 61.8003 88.9299 61.8003C89.7983 61.8003 90.6068 61.4653 91.2316 60.8406C92.5253 59.5467 92.565 57.9145 91.3328 56.6822C90.9502 56.2998 90.33 56.2998 89.9473 56.6822C89.5648 57.0647 89.5648 57.6851 89.9473 58.0677C90.1562 58.2764 90.5905 58.7109 89.8462 59.4553C89.5592 59.7423 89.2084 59.8706 88.8043 59.8357C88.3674 59.7985 87.9212 59.5723 87.5481 59.199C86.5723 58.2233 86.5722 56.6356 87.5479 55.66C88.8597 54.3481 90.9918 54.345 92.3077 55.6499C92.3148 55.657 92.3221 55.6637 92.3292 55.6708C96.4792 59.821 96.4792 66.5737 92.3291 70.7239Z" fill="black"/>
<path d="M62.2711 80.5757L62.2513 80.5414C61.9743 80.0769 61.3716 79.9226 60.9071 80.1997C60.4424 80.4767 60.2892 81.076 60.5663 81.5407C60.7465 81.8591 61.0782 82.0379 61.4196 82.0379C61.5831 82.0379 61.7489 81.9969 61.9013 81.9107C62.372 81.6443 62.5376 81.0465 62.2711 80.5757Z" fill="black"/>
<path d="M97.0789 50.9211C93.9053 47.7477 89.686 46 85.1981 46C80.7101 46 76.4906 47.7478 73.317 50.9213L58.9213 65.317C52.3701 71.8683 52.37 82.5276 58.9211 89.0789C62.0946 92.2523 66.314 94 70.802 94C75.29 94 79.5095 92.2522 82.6831 89.0787L97.0788 74.683C103.63 68.1318 103.63 57.4723 97.0789 50.9211ZM95.6932 73.2976L81.2975 87.6932C78.494 90.4967 74.7666 92.0408 70.802 92.0408C66.8373 92.0408 63.11 90.4968 60.3065 87.6935C55.0164 82.4034 54.5631 74.0813 58.9444 68.2701C58.85 68.5953 58.763 68.9233 58.688 69.255C58.0025 72.288 58.1595 75.4476 59.1423 78.3923C59.2791 78.8026 59.6614 79.0621 60.0713 79.0621C60.1741 79.0621 60.2787 79.0458 60.3815 79.0113C60.8946 78.8402 61.1719 78.2853 61.0006 77.7721C59.2196 72.4357 60.5285 66.6605 64.4105 62.6219C64.2845 63.0311 64.1727 63.4454 64.0777 63.8652C63.3921 66.8982 63.5492 70.0578 64.532 73.0026C64.6688 73.413 65.051 73.6724 65.461 73.6724C65.5638 73.6724 65.6683 73.6561 65.7712 73.6217C66.2843 73.4505 66.5615 72.8956 66.3903 72.3824C64.577 66.9493 65.9646 61.0601 70.0117 57.0132C70.0075 57.0118 70.004 57.0103 70 57.0089L74.7022 52.3067C77.5059 49.5033 81.2333 47.9592 85.1982 47.9592C89.1629 47.9592 92.8901 49.5032 95.6936 52.3066C101.481 58.0937 101.481 67.5104 95.6932 73.2976Z" fill="black"/>
</mask>
<g mask="url(#mask0_0_1)">
<rect x="54" y="46" width="48" height="48" fill="#059B5C"/>
</g>
</svg>
