<svg width="155" height="136" viewBox="0 0 155 136" fill="none" xmlns="http://www.w3.org/2000/svg">
<rect width="155" height="136" fill="#E5E5E5"/>
<path d="M0 18C0 8.05888 8.05887 0 18 0H137C146.941 0 155 8.05888 155 18V118C155 127.941 146.941 136 137 136H18C8.05888 136 0 127.941 0 118V18Z" fill="#059B5C"/>
<rect x="50" y="42" width="56" height="56" rx="12" fill="white"/>
<path d="M74.0035 46H54V49.916H55.5235V85.872C55.5235 88.0272 56.4168 90.094 58.007 91.618C59.5972 93.1419 61.7539 93.998 64.0028 93.998C66.2516 93.998 68.4084 93.1419 69.9986 91.618C71.5887 90.094 72.4821 88.0272 72.4821 85.872V49.916H74.0056L74.0035 46ZM69.9965 85.876C69.9564 87.3716 69.3086 88.7931 68.1909 89.8377C67.0733 90.8824 65.5743 91.4675 64.0131 91.4685C62.4519 91.4696 60.9521 90.8864 59.8329 89.8433C58.7138 88.8002 58.0638 87.3796 58.0216 85.884V83.796H62.1391V81.496H58.0216V77.446H62.1391V75.09H58.0216V71.04H62.1391V68.684H58.0216V64.634H62.1391V62.334H58.0216V58.284H62.1391V55.984H58.0216V49.884H69.9965V85.876Z" fill="#059B5C"/>
<path d="M81.3997 46V49.916H82.9231V85.872C82.9231 88.0272 83.8165 90.094 85.4067 91.618C86.9968 93.1419 89.1536 93.998 91.4024 93.998C93.6513 93.998 95.808 93.1419 97.3982 91.618C98.9884 90.094 99.8818 88.0272 99.8818 85.872V49.916H101.405V46H81.3997ZM97.392 66.98H85.4191V64.652H89.5367V62.352H85.4191V58.302H89.5367V56.002H85.4191V49.902H97.392V66.98Z" fill="#059B5C"/>
</svg>
