<svg width="155" height="136" viewBox="0 0 155 136" fill="none" xmlns="http://www.w3.org/2000/svg">
<rect width="155" height="136" rx="18" fill="#DEF6E5"/>
<rect x="49" y="40" width="56" height="56" rx="12" fill="white"/>
<path d="M75.5125 52.634C75.4485 52.7615 73.942 59.0575 72.154 66.6175C70.2385 74.7395 68.872 80.282 68.821 80.154C68.77 80.039 67.978 75.4545 67.0585 69.976C65.3985 60.0915 65.309 59.696 64.875 59.696C64.658 59.696 64.3515 60.1815 62.5765 63.246L60.7375 66.464L56.7275 66.4895C53.075 66.528 52.705 66.5535 52.577 66.745C52.4745 66.911 52.4745 67.0385 52.577 67.192C52.7045 67.409 53.075 67.422 56.9445 67.46C60.367 67.4855 61.197 67.46 61.3375 67.3195C61.427 67.2175 62.193 65.953 63.023 64.497C63.866 63.041 64.581 61.9045 64.632 61.956C64.683 62.007 65.513 66.7705 66.471 72.53C67.4415 78.2895 68.2715 83.1295 68.3355 83.2825C68.463 83.589 69.0125 83.691 69.1655 83.4615C69.204 83.385 70.698 77.14 72.486 69.567C74.2865 61.994 75.7935 55.6985 75.8445 55.5705C75.8955 55.43 76.547 58.2395 77.53 62.824C79.1645 70.537 79.203 70.678 79.7395 70.4735C79.8415 70.4355 80.94 68.3155 82.1915 65.7615C83.443 63.1945 84.503 61.1385 84.5415 61.177C84.58 61.2155 85.448 64.0375 86.47 67.4475C87.747 71.713 88.3985 73.705 88.5515 73.7945C88.9985 74.0755 89.19 73.7305 89.905 71.368C90.288 70.1165 90.6075 69.0565 90.633 69.044C90.646 69.0185 91.0035 69.2355 91.425 69.5295C91.9485 69.9 92.255 70.0405 92.421 69.9895C92.5615 69.9385 93.149 69.2105 93.749 68.3805L94.834 66.86L98.0395 66.8475C100.683 66.8475 101.283 66.809 101.411 66.656C101.615 66.4135 101.449 65.9665 101.117 65.89C100.964 65.8515 99.368 65.839 97.58 65.8515L94.3235 65.89L93.3275 67.231C92.7785 67.9715 92.2805 68.623 92.229 68.674C92.165 68.738 91.731 68.521 91.271 68.2015C90.1215 67.4225 90.045 67.4735 89.483 69.3125C89.2405 70.0915 88.998 70.896 88.947 71.0875C88.9085 71.292 88.832 71.445 88.781 71.445C88.7425 71.445 87.938 68.84 86.993 65.66C86.061 62.493 85.205 59.696 85.116 59.4665C84.9755 59.1345 84.8735 59.045 84.656 59.0835C84.4135 59.109 83.992 59.875 82.038 63.783C80.761 66.349 79.714 68.38 79.714 68.316C79.6885 67.9965 76.381 52.6465 76.317 52.5315C76.189 52.3275 75.627 52.404 75.5125 52.634Z" fill="#059B5C"/>
</svg>
