<svg width="24" height="24" viewBox="0 0 24 24" fill="none" xmlns="http://www.w3.org/2000/svg">
<path d="M0.0119937 19.4738C0.0279852 18.5935 0.107943 17.7133 0.235875 16.849C0.523723 14.9284 1.78705 14.0801 3.72203 14.4002C4.9054 14.5923 6.00882 15.0084 7.06426 15.6806C8.59945 16.6729 10.5664 16.0487 11.6218 14.4322C12.5653 12.9758 13.0131 11.3752 13.0291 9.56667C13.0291 8.76641 12.8052 8.14221 12.3415 7.58203C11.4779 6.5417 10.6943 5.38933 10.3105 4.01289C10.0067 2.95656 10.1986 2.4604 11.334 1.75617C12.1975 1.22801 12.6133 1.01994 13.0291 2.1563C13.253 2.7645 13.5728 3.30867 14.0046 3.75681C14.3084 4.07691 14.5323 4.20495 14.6442 3.53274C14.7722 2.70048 14.9801 1.88421 15.5078 1.24401C16.8031 -0.32449 18.3863 -0.164439 19.9374 0.39574C22.1123 1.196 23.2157 3.21264 23.7115 5.62941C24.527 9.63069 23.5515 13.2478 21.5686 16.5289C19.7615 19.5218 17.3788 21.7786 14.4843 23.299C12.0856 24.5634 9.76683 24.1153 7.87983 21.9706C6.8084 20.7542 5.73696 19.6019 4.32971 18.8976C3.46617 18.4655 3.54612 20.3381 3.48216 20.9143C3.43418 21.3464 3.48216 21.9706 3.17832 22.3067C2.74655 22.7869 0.811571 22.9309 0.379799 22.4668C0.0439767 22.0987 0.0119937 21.4585 0.0119937 20.9623C-0.00399788 20.4661 -0.00399788 19.97 0.0119937 19.4738Z" fill="#FF7384"/>
<path opacity="0.1" d="M1.70684 22.4682C2.41339 22.4682 2.98617 22.2317 2.98617 21.94C2.98617 21.6483 2.41339 21.4119 1.70684 21.4119C1.00029 21.4119 0.427521 21.6483 0.427521 21.94C0.427521 22.2317 1.00029 22.4682 1.70684 22.4682Z" fill="black"/>
<path opacity="0.1" d="M11.8388 3.01515C12.4202 2.61328 12.7735 2.11651 12.6279 1.90559C12.4823 1.69467 11.8931 1.84947 11.3117 2.25135C10.7304 2.65322 10.3771 3.14999 10.5226 3.3609C10.6682 3.57182 11.2575 3.41702 11.8388 3.01515Z" fill="black"/>
<path d="M0.955017 18.6904C0.955017 18.6904 1.89852 18.4023 2.98594 18.9785C2.98594 18.9785 2.95396 17.6181 3.92944 17.7461C4.90493 17.8741 7.15973 19.3946 8.34311 20.8831C9.52648 22.3716 11.3655 23.2519 13.0126 22.8357C14.6598 22.4196 19.4252 18.7064 20.4007 16.0976C21.3762 13.5047 21.1203 13.3767 19.9849 13.5528C18.8495 13.7288 18.4977 13.8409 17.6182 13.0246C16.7387 12.2083 15.9711 13.2647 15.1075 12.6725C14.244 12.0803 13.6683 12.0803 13.4124 12.9606C13.1566 13.8409 12.5329 15.9695 10.1821 16.9138C7.83138 17.8581 7.09577 17.1859 5.46463 15.9695C3.83349 14.7531 1.77059 15.2173 1.3708 16.4017C0.971009 17.586 0.955017 18.6904 0.955017 18.6904Z" fill="#94C6E7"/>
<path d="M9.52663 19.9392C9.9064 19.9392 10.2143 19.6311 10.2143 19.251C10.2143 18.8709 9.9064 18.5627 9.52663 18.5627C9.14685 18.5627 8.83899 18.8709 8.83899 19.251C8.83899 19.6311 9.14685 19.9392 9.52663 19.9392Z" fill="white"/>
<path d="M15.2197 19.4429C15.7054 19.4429 16.0992 19.0488 16.0992 18.5627C16.0992 18.0765 15.7054 17.6824 15.2197 17.6824C14.7339 17.6824 14.3401 18.0765 14.3401 18.5627C14.3401 19.0488 14.7339 19.4429 15.2197 19.4429Z" fill="white"/>
<path d="M16.5629 14.7857C17.031 14.7857 17.4104 14.4059 17.4104 13.9374C17.4104 13.4689 17.031 13.0891 16.5629 13.0891C16.0948 13.0891 15.7153 13.4689 15.7153 13.9374C15.7153 14.4059 16.0948 14.7857 16.5629 14.7857Z" fill="white"/>
<path d="M11.8613 18.3065C12.0644 18.3065 12.2291 18.1417 12.2291 17.9384C12.2291 17.7351 12.0644 17.5703 11.8613 17.5703C11.6582 17.5703 11.4935 17.7351 11.4935 17.9384C11.4935 18.1417 11.6582 18.3065 11.8613 18.3065Z" fill="white"/>
<path d="M18.0181 16.7699C18.2212 16.7699 18.3859 16.6051 18.3859 16.4018C18.3859 16.1985 18.2212 16.0337 18.0181 16.0337C17.8149 16.0337 17.6503 16.1985 17.6503 16.4018C17.6503 16.6051 17.8149 16.7699 18.0181 16.7699Z" fill="white"/>
<path d="M15.7153 11.8083C15.9184 11.8083 16.0831 11.6434 16.0831 11.4401C16.0831 11.2368 15.9184 11.072 15.7153 11.072C15.5122 11.072 15.3475 11.2368 15.3475 11.4401C15.3475 11.6434 15.5122 11.8083 15.7153 11.8083Z" fill="white"/>
<path d="M14.8359 16.0339C14.9861 16.0339 15.1078 15.9121 15.1078 15.7618C15.1078 15.6116 14.9861 15.4897 14.8359 15.4897C14.6858 15.4897 14.5641 15.6116 14.5641 15.7618C14.5641 15.9121 14.6858 16.0339 14.8359 16.0339Z" fill="white"/>
<path d="M13.3649 15.3299C13.4357 15.3299 13.4931 15.2725 13.4931 15.2016C13.4931 15.1307 13.4357 15.0732 13.3649 15.0732C13.2941 15.0732 13.2367 15.1307 13.2367 15.2016C13.2367 15.2725 13.2941 15.3299 13.3649 15.3299Z" fill="white"/>
<path d="M17.0911 18.4349C17.1619 18.4349 17.2193 18.3774 17.2193 18.3066C17.2193 18.2357 17.1619 18.1782 17.0911 18.1782C17.0202 18.1782 16.9628 18.2357 16.9628 18.3066C16.9628 18.3774 17.0202 18.4349 17.0911 18.4349Z" fill="white"/>
<path d="M17.6508 9.24813C17.7216 9.24813 17.779 9.19067 17.779 9.11979C17.779 9.04891 17.7216 8.99146 17.6508 8.99146C17.5799 8.99146 17.5225 9.04891 17.5225 9.11979C17.5225 9.19067 17.5799 9.24813 17.6508 9.24813Z" fill="white"/>
<path d="M11.1901 20.0679C11.2609 20.0679 11.3184 20.0105 11.3184 19.9396C11.3184 19.8687 11.2609 19.8113 11.1901 19.8113C11.1193 19.8113 11.0619 19.8687 11.0619 19.9396C11.0619 20.0105 11.1193 20.0679 11.1901 20.0679Z" fill="white"/>
<path d="M19.5213 11.7126C19.6714 11.7126 19.7931 11.5908 19.7931 11.4405C19.7931 11.2903 19.6714 11.1685 19.5213 11.1685C19.3711 11.1685 19.2494 11.2903 19.2494 11.4405C19.2494 11.5908 19.3711 11.7126 19.5213 11.7126Z" fill="white"/>
<path d="M12.7571 21.0432C12.9072 21.0432 13.0289 20.9214 13.0289 20.7711C13.0289 20.6208 12.9072 20.499 12.7571 20.499C12.6069 20.499 12.4852 20.6208 12.4852 20.7711C12.4852 20.9214 12.6069 21.0432 12.7571 21.0432Z" fill="white"/>
<path opacity="0.1" d="M19.9211 0.41277C19.0576 0.0926675 18.1941 -0.0833886 17.3625 0.0766625C19.0096 0.332744 21.9521 1.4531 22.4958 6.19061C23.2634 12.8647 22.096 18.3865 13.8763 23.5882C14.0682 23.5081 14.2601 23.4121 14.468 23.3161C17.3625 21.7956 19.7452 19.5389 21.5523 16.5459C23.5352 13.2649 24.5107 9.64772 23.6951 5.64644C23.1994 3.22967 22.096 1.21302 19.9211 0.41277Z" fill="black"/>
</svg>
