<svg width="24" height="24" viewBox="0 0 24 24" fill="none" xmlns="http://www.w3.org/2000/svg">
<path d="M1.73171 8.4159H0.615051V2.75196C0.615051 1.50397 1.65079 0.47998 2.9131 0.47998H3.49571V1.56797H2.9131C2.24958 1.56797 1.71553 2.09596 1.71553 2.75196V8.4159H1.73171Z" fill="#94C6E7"/>
<path d="M3.85174 2.01598C4.56678 2.01598 5.14642 1.56469 5.14642 1.00799C5.14642 0.451293 4.56678 0 3.85174 0C3.13671 0 2.55707 0.451293 2.55707 1.00799C2.55707 1.56469 3.13671 2.01598 3.85174 2.01598Z" fill="#94C6E7"/>
<path d="M12.8496 8.41579H11.7491V2.75184C11.7491 2.09585 11.2151 1.56786 10.5516 1.56786H9.96896V0.463867H10.5516C11.8139 0.463867 12.8496 1.48786 12.8496 2.73584V8.41579Z" fill="#94C6E7"/>
<path d="M9.62915 2.01598C10.3442 2.01598 10.9238 1.56469 10.9238 1.00799C10.9238 0.451293 10.3442 0 9.62915 0C8.91412 0 8.33447 0.451293 8.33447 1.00799C8.33447 1.56469 8.91412 2.01598 9.62915 2.01598Z" fill="#94C6E7"/>
<path d="M11.1504 7.18384V8.99182C11.1504 11.4238 8.93327 12.9278 6.47339 12.9278C4.0135 12.9278 2.26568 11.4238 2.26568 8.99182V7.18384H0V8.99182C0 11.9678 2.07148 14.4798 4.85504 15.1838C5.37291 15.3118 5.74513 15.7598 5.74513 16.2877V18.3517H7.84898V16.2397C7.84898 15.7278 8.20502 15.2798 8.7067 15.1358C11.4093 14.3678 13.3999 11.9038 13.3999 8.99182V7.18384H11.1504Z" fill="#FF7384"/>
<path d="M10.8267 24C8.3021 24 6.23062 21.952 6.23062 19.456V18.352H7.44438V19.456C7.44438 21.312 8.96563 22.816 10.8429 22.816H13.2057C15.0344 22.768 16.5071 21.28 16.5071 19.456V13.2001C16.5071 11.7121 17.7371 10.4961 19.2421 10.4961C20.7472 10.4961 21.9771 11.7121 21.9771 13.2001V17.248H20.7634V13.2001C20.7634 12.3681 20.0675 11.6801 19.2259 11.6801C18.3844 11.6801 17.6885 12.3681 17.6885 13.2001V19.456C17.6885 21.936 15.6656 23.968 13.1571 24H10.8267Z" fill="#94C6E7"/>
<path d="M21.3621 22.0638C22.819 22.0638 24 20.8962 24 19.4559C24 18.0155 22.819 16.8479 21.3621 16.8479C19.9052 16.8479 18.7242 18.0155 18.7242 19.4559C18.7242 20.8962 19.9052 22.0638 21.3621 22.0638Z" fill="#FF7384"/>
<path d="M21.3621 20.8638C22.1486 20.8638 22.7862 20.2334 22.7862 19.4558C22.7862 18.6782 22.1486 18.0479 21.3621 18.0479C20.5755 18.0479 19.9379 18.6782 19.9379 19.4558C19.9379 20.2334 20.5755 20.8638 21.3621 20.8638Z" fill="white"/>
</svg>
