<svg width="24" height="24" viewBox="0 0 24 24" fill="none" xmlns="http://www.w3.org/2000/svg">
<path d="M18.3685 6.10279C18.3685 6.10279 17.7923 5.98943 17.3442 5.64934C16.8961 5.30925 16.0959 4.40234 16.0959 4.40234L15.7119 4.89358C15.7119 4.89358 16.448 5.83828 17.0722 6.19726C17.6963 6.55624 18.0164 6.65071 18.3685 6.70739C18.7365 6.78297 18.3685 6.10279 18.3685 6.10279Z" fill="#FF7384"/>
<path d="M18.7365 7.36847C18.3364 7.10396 18.4805 6.51825 18.4805 6.51825C18.4805 6.51825 18.2404 5.95143 18.5925 5.59245C18.9446 5.23347 19.4727 4.85559 20.5289 4.72333C21.3771 4.62886 21.4091 5.15789 21.5212 5.38462C21.5532 5.4413 21.6012 5.47909 21.6652 5.47909H21.8412L21.9373 6.65051L21.7612 6.6883C21.6972 6.70719 21.6492 6.74498 21.6332 6.80166C21.5532 7.04728 21.6172 7.65188 20.769 7.74635C19.7128 7.85972 19.1526 7.63299 18.7365 7.36847Z" fill="#93C6E7"/>
<path opacity="0.2" d="M21.6653 5.46045C21.6013 5.46045 21.5533 5.42266 21.5213 5.36598C21.4093 5.15815 21.3613 4.61023 20.5291 4.70469C20.5291 4.70469 20.9452 5.17704 20.9452 5.38487C20.9452 5.51713 20.7531 5.72496 20.7531 5.80054C20.7531 5.97058 20.8972 6.17841 20.8492 6.2162C20.8011 6.27288 20.5931 6.49961 20.6251 6.70744C20.6411 6.8397 19.4888 7.00974 19.0727 6.91527C18.6566 6.82081 18.4966 6.48072 18.4966 6.48072C18.4966 6.48072 18.3526 7.06643 18.7527 7.33094C19.1528 7.59545 19.7289 7.82218 20.7851 7.68992C21.6333 7.59545 21.5693 6.97196 21.6493 6.74523C21.6653 6.68855 21.7133 6.63187 21.7774 6.63187L21.9534 6.59408L21.8574 5.42266L21.6653 5.46045Z" fill="black"/>
<path d="M5.62969 6.10279C5.62969 6.10279 6.20582 5.98943 6.65392 5.64934C7.10202 5.30925 7.9022 4.40234 7.9022 4.40234L8.28629 4.89358C8.28629 4.89358 7.55012 5.83828 6.92598 6.19726C6.30184 6.55624 5.98177 6.65071 5.62969 6.70739C5.2616 6.78297 5.62969 6.10279 5.62969 6.10279Z" fill="#FF7384"/>
<path d="M5.26158 7.36847C5.66167 7.10396 5.67767 6.51825 5.67767 6.51825C5.67767 6.51825 5.75769 5.95143 5.40561 5.59245C5.05353 5.23347 4.52541 4.85559 3.46917 4.72333C2.62098 4.62886 2.58897 5.15789 2.47695 5.38462C2.44494 5.4413 2.39693 5.47909 2.33291 5.47909H2.15687L2.06085 6.65051L2.23689 6.6883C2.30091 6.70719 2.34892 6.74498 2.36492 6.80166C2.44494 7.04728 2.38092 7.65188 3.22912 7.74635C4.28536 7.85972 4.84548 7.63299 5.26158 7.36847Z" fill="#93C6E7"/>
<path opacity="0.2" d="M2.1409 6.6506L2.23692 6.66949C2.30094 6.68839 2.34895 6.72618 2.36495 6.78286C2.44497 7.02848 2.38095 7.63308 3.22915 7.72755C4.28539 7.84091 4.86152 7.63308 5.26161 7.36857C5.6617 7.10405 5.6777 6.51834 5.6777 6.51834C5.6777 6.51834 5.69371 6.40498 5.6777 6.23493C5.6777 6.25383 5.53367 6.70728 5.2136 6.83954C4.89352 6.9529 3.70926 7.2741 3.10112 6.91511C2.589 6.61281 2.589 5.63033 2.49298 5.34692C2.49298 5.36582 2.47698 5.36582 2.47698 5.38471C2.46097 5.40361 2.44497 5.4225 2.42897 5.44139C2.36495 5.66812 2.26893 6.14047 2.1409 6.6506Z" fill="black"/>
<path d="M23.8584 2.96633C23.6024 1.90828 22.9942 1.26589 22.3381 1.09584C21.5859 0.888011 21.1378 1.19031 20.7697 1.77602C20.3376 2.47509 20.2256 2.85297 19.9695 2.85297C19.7135 2.85297 19.5374 2.55067 19.0733 2.87187C18.6092 3.19306 18.5452 3.92992 18.1291 3.92992C17.3929 3.92992 15.3125 0 11.9997 0C8.68697 0 6.6065 3.94881 5.87034 3.94881C5.45424 3.94881 5.39023 3.21195 4.92612 2.89076C4.46202 2.56956 4.28598 2.87187 4.02992 2.87187C3.77386 2.87187 3.66184 2.49399 3.22974 1.79492C2.86165 1.19031 2.42956 0.906905 1.66138 1.11474C1.02124 1.28478 0.413099 1.90828 0.141037 2.98523C-0.371079 5.08245 0.621146 6.68842 1.48534 7.12298C1.99746 7.38749 2.1735 7.17966 2.33353 6.78289C2.49357 6.36723 2.98968 5.08245 2.50957 5.08245C2.02947 5.08245 1.27729 4.15665 1.46934 3.13638C1.66138 2.11611 2.79764 2.43731 3.13372 2.94744C3.35777 3.28753 3.4858 3.74098 3.78986 3.77877C4.14194 3.83545 4.12594 3.75988 4.52603 3.75988C4.92612 3.75988 5.16618 4.93129 5.77431 5.02576C6.54249 5.13913 7.40668 4.23222 7.72676 4.23222C8.04683 4.23222 8.06283 6.31055 8.30289 7.51975C8.49493 8.48334 9.48716 10.4105 9.55117 11.1474C9.59918 11.6953 9.26311 12.9801 9.32712 14.057C9.39113 14.9639 10.0153 17.0045 10.0313 17.3634C10.0633 17.8925 10.0313 18.6293 10.0313 19.3095C10.0313 20.0842 10.4314 21.5957 10.4314 22.2381C10.4314 22.8427 10.2393 23.6551 10.4314 23.8818C10.6234 24.1085 11.6156 23.9007 11.9997 23.9007C12.3998 23.9007 13.392 24.1085 13.5681 23.8818C13.7601 23.6551 13.5681 22.8427 13.5681 22.2381C13.5681 21.5957 13.9682 20.0653 13.9682 19.3095C13.9682 18.6104 13.9362 17.8925 13.9682 17.3634C13.9842 17.0045 14.6083 14.9639 14.6723 14.057C14.7523 12.9801 14.4163 11.6953 14.4483 11.1474C14.5123 10.4105 15.5045 8.48334 15.6966 7.51975C15.9366 6.31055 15.9526 4.23222 16.2727 4.23222C16.5928 4.23222 17.473 5.13913 18.2251 5.02576C18.8493 4.93129 19.0893 3.75988 19.4734 3.75988C19.8735 3.75988 19.8575 3.83545 20.2096 3.77877C20.4977 3.74098 20.6417 3.26864 20.8657 2.94744C21.2018 2.43731 22.3381 2.135 22.5301 3.13638C22.7222 4.15665 21.97 5.08245 21.4899 5.08245C21.0098 5.08245 21.4899 6.36723 21.6659 6.78289C21.826 7.19856 22.002 7.38749 22.5141 7.12298C23.3943 6.66953 24.3705 5.06355 23.8584 2.96633Z" fill="#93C6E7"/>
<path d="M23.8578 2.96633C23.6017 1.90828 22.9936 1.26589 22.3374 1.09584C21.5853 0.888011 21.1371 1.19031 20.7691 1.77602C20.337 2.47509 20.2249 2.85297 19.9689 2.85297C19.7128 2.85297 19.5368 2.55067 19.0727 2.87186C18.6086 3.19306 18.5446 3.92992 18.1285 3.92992C17.3923 3.92992 15.3118 0 11.9991 0C8.68632 0 6.60585 3.94881 5.86969 3.94881C5.45359 3.94881 5.38958 3.21195 4.92547 2.89076C4.46137 2.56956 4.28533 2.87186 4.02927 2.87186C3.77321 2.87186 3.66118 2.49399 3.22909 1.79492C2.861 1.19031 2.4289 0.906905 1.66073 1.11474C1.02058 1.28478 0.412447 1.90828 0.140385 2.98523C-0.275709 4.68567 0.300422 6.06492 0.988578 6.764C0.988578 6.764 1.38867 7.23634 2.44491 7.57643C3.43713 7.87873 3.58117 7.78427 3.58117 7.78427C3.58117 7.78427 2.95702 7.40639 2.95702 7.19856C2.95702 6.99072 3.19708 6.91515 3.19708 6.7451C3.19708 6.57506 2.78098 6.42391 2.78098 6.25386C2.78098 6.08382 3.05305 5.98935 3.05305 5.8382C3.05305 5.68705 2.79699 5.64926 2.79699 5.46032C2.79699 5.27138 3.34111 4.72346 3.34111 4.72346C3.34111 4.72346 2.98903 4.64789 2.57294 4.76125C2.15684 4.85572 2.17285 4.95019 1.9808 4.79904C1.62872 4.44005 1.35666 3.81656 1.46869 3.15527C1.66073 2.135 2.79699 2.4562 3.13306 2.96633C3.35712 3.30642 3.48514 3.75988 3.78921 3.79766C4.14129 3.85434 4.12529 3.77877 4.52538 3.77877C4.92547 3.77877 5.16553 4.95019 5.77366 5.04466C6.54184 5.15802 7.40603 4.25112 7.72611 4.25112C8.04618 4.25112 8.06218 6.32944 8.30224 7.53865C8.49428 8.50223 9.48651 10.4294 9.55052 11.1663C9.59853 11.7142 9.26246 12.999 9.32647 14.0759C9.39048 14.9828 10.0146 17.0234 10.0306 17.3823C10.0626 17.9114 10.0306 18.6482 10.0306 19.3284C10.0306 20.1031 10.4307 21.6146 10.4307 22.257C10.4307 22.8616 10.2387 23.674 10.4307 23.9007C10.4947 23.9763 10.6708 24.0141 10.8948 23.9952C10.9588 23.5984 11.0709 22.6915 11.0709 22.4081C11.0709 22.0302 10.6548 20.3109 10.6548 19.5362C10.6548 18.7805 10.7828 17.4957 10.6548 17.0422C10.5267 16.6077 9.99862 14.7372 10.1427 14.5483C10.3027 14.3593 11.3109 15.0773 11.503 14.8506C11.695 14.6238 11.711 9.65476 11.615 9.14462C11.519 8.63449 9.67855 4.0055 9.24645 3.81656C8.81435 3.62762 8.35025 3.49536 7.40603 3.96771C6.47782 4.44005 6.04573 4.81793 5.75766 4.72346C5.46959 4.62899 5.0535 3.62762 4.63741 3.53315C4.22131 3.45757 3.88523 3.6843 3.75721 3.53315C3.62918 3.382 3.42113 2.81518 3.16507 2.62624C2.92502 2.43731 2.49292 1.81381 1.74075 2.34284C0.988578 2.87186 1.18062 3.9866 1.58071 4.64789C1.59672 4.66678 1.61272 4.68567 1.61272 4.70457C1.62872 4.72346 1.62872 4.74236 1.64473 4.74236C1.66073 4.76125 1.66073 4.76125 1.67673 4.78014L1.69274 4.79904C2.04482 5.15802 2.09283 5.59258 2.07682 5.8193C2.02881 6.27276 1.61272 6.85847 1.0846 6.49948C0.748523 6.17829 0.444454 5.70594 0.300422 5.17691C0.0763708 4.3078 0.156389 2.83408 0.90856 1.90828C1.66073 0.98248 2.4289 1.34146 2.829 1.70045C3.22909 2.05943 3.69319 3.0608 3.93325 3.13638C4.1733 3.21195 4.26932 2.96633 4.54138 2.96633C4.81345 2.96633 5.51761 4.3078 5.83768 4.3078C6.15775 4.3078 7.08596 3.41979 7.82213 3.00412C8.5903 2.55067 11.9991 2.55067 11.9991 2.55067C11.9991 2.55067 15.4078 2.56956 16.16 2.98523C16.8962 3.40089 17.8404 4.2889 18.1445 4.2889C18.4645 4.2889 19.1527 2.94744 19.4408 2.94744C19.7128 2.94744 19.8088 3.21195 20.0489 3.11748C20.289 3.04191 20.7371 2.04054 21.1532 1.68155C21.5532 1.32257 22.3214 0.963586 23.0736 1.88938C23.8258 2.81518 23.9058 4.2889 23.6817 5.15802C23.5377 5.68705 23.2336 6.15939 22.8975 6.48059C22.3694 6.85847 21.9533 6.27276 21.9053 5.80041C21.8733 5.57368 21.9373 5.12023 22.2894 4.78014L22.3054 4.76125C22.3214 4.74236 22.3214 4.74236 22.3374 4.72346C22.3534 4.70457 22.3534 4.68567 22.3694 4.68567C22.3854 4.66678 22.4014 4.64789 22.4014 4.62899C22.8015 3.9866 22.9936 2.85297 22.2414 2.32394C21.4892 1.79492 21.0731 2.41841 20.8171 2.60735C20.577 2.79629 20.369 3.3631 20.2249 3.51426C20.0969 3.66541 19.7608 3.43868 19.3447 3.51426C18.9286 3.58983 18.5126 4.59121 18.2245 4.70457C17.9364 4.79904 17.5043 4.44005 16.5761 3.94881C15.6479 3.47647 15.1678 3.60872 14.7357 3.79766C14.3036 3.9866 12.4632 8.61559 12.3672 9.12573C12.2711 9.63586 12.2871 14.6049 12.4792 14.8317C12.6712 15.0584 13.6795 14.3404 13.8395 14.5294C13.9995 14.7183 13.4554 16.5699 13.3274 17.0234C13.1993 17.4579 13.3274 18.7427 13.3274 19.5173C13.3274 20.292 12.9113 22.0113 12.9113 22.3892C12.9113 22.6726 13.0393 23.5795 13.0873 23.9763C13.3114 23.9952 13.4874 23.9385 13.5514 23.8629C13.7435 23.6362 13.5514 22.8238 13.5514 22.2192C13.5514 21.5768 13.9515 20.0464 13.9515 19.2906C13.9515 18.5915 13.9195 17.8736 13.9515 17.3446C13.9675 16.9856 14.5917 14.945 14.6557 14.0381C14.7357 12.9612 14.3996 11.6764 14.4316 11.1285C14.4956 10.3916 15.4879 8.46444 15.6799 7.50086C15.92 6.29165 15.936 4.21333 16.256 4.21333C16.5761 4.21333 17.4563 5.12023 18.2085 5.00687C18.8326 4.9124 19.0727 3.74098 19.4568 3.74098C19.8569 3.74098 19.8409 3.81656 20.1929 3.75988C20.481 3.72209 20.625 3.24974 20.8491 2.92855C21.1852 2.41841 22.3214 2.11611 22.5135 3.11748C22.6415 3.77877 22.3534 4.42116 22.0013 4.76125C21.8093 4.89351 21.8253 4.81793 21.4092 4.72346C20.9931 4.62899 20.641 4.68567 20.641 4.68567C20.641 4.68567 21.1852 5.25249 21.1852 5.42253C21.1852 5.61147 20.9291 5.63037 20.9291 5.80041C20.9291 5.95156 21.2012 6.04603 21.2012 6.21608C21.2012 6.38612 20.7851 6.53727 20.7851 6.70732C20.7851 6.87736 21.0251 6.95294 21.0251 7.16077C21.0251 7.3686 20.401 7.74648 20.401 7.74648C20.401 7.74648 20.545 7.84095 21.5372 7.53865C22.5935 7.21745 22.9936 6.72621 22.9936 6.72621C23.6977 6.04603 24.2739 4.66678 23.8578 2.96633Z" fill="#FF7384"/>
</svg>
