<svg width="24" height="24" viewBox="0 0 24 24" fill="none" xmlns="http://www.w3.org/2000/svg">
<path d="M11.9196 0H13.319C13.319 0 12.9491 4.38847 14.3324 5.64232H10.7453C10.7453 5.64232 11.8391 5.70662 11.9196 0Z" fill="#93C6E7"/>
<path d="M22.9223 11.3006L22.9062 12.7152C22.9062 12.7152 18.5952 12.2972 17.3566 13.7118L17.3888 10.0789C17.3888 10.0789 17.3083 11.188 22.9223 11.3006Z" fill="#93C6E7"/>
<path d="M24 2.4434V4.01875C24 4.01875 22.0215 3.42397 20.8955 3.68117C19.7695 3.93837 17.5335 6.38177 18.0644 7.92497C18.5952 9.46816 14.9598 6.04419 14.9598 6.04419C14.9598 6.04419 16.8258 5.14399 18.3539 3.84192C19.8821 2.53985 20.2038 2.97387 20.2681 0H21.5711C21.5711 0 21.3941 1.70395 21.8445 2.08975C22.2949 2.47555 24 2.4434 24 2.4434Z" fill="#93C6E7"/>
<path d="M8.94378 15.9784C8.94378 15.9784 8.71858 17.7628 7.84995 19.0488C7.27086 19.9168 7.17435 20.0133 6.33789 20.1419C5.7588 20.2383 5.32448 20.2222 4.97059 19.4989C4.61671 18.7916 4.40759 18.454 4.40759 18.454L3.10464 18.9845C3.10464 18.9845 4.21456 20.4955 4.10196 20.9456C3.92502 21.7172 2.79901 23.1157 2.79901 23.1157L4.10196 23.823C4.10196 23.823 5.13145 21.8137 5.72663 21.6851C6.3218 21.5565 7.47998 21.2028 7.70518 21.5243C7.93038 21.8619 8.9277 23.1318 8.9277 23.1318L10.4558 22.6656C10.4558 22.6656 8.86335 20.7206 8.9277 20.3508C8.99204 19.965 9.66764 17.6502 11.3727 17.4091C13.0778 17.168 9.34593 14.9496 8.94378 15.9784Z" fill="#93C6E7"/>
<path d="M0 5.46539L0.321716 6.89606C0.321716 6.89606 2.20375 6.25306 2.97587 6.41381C3.74799 6.57456 6.20911 8.80899 6.20911 8.80899L7.31903 7.81234C7.31903 7.81234 3.97319 5.24034 3.82842 4.50089C3.68365 3.76144 3.42627 1.80029 3.42627 1.80029L1.97855 1.92889C1.97855 1.92889 2.41287 3.63284 2.10724 4.35622C1.80161 5.07959 0 5.46539 0 5.46539Z" fill="#93C6E7"/>
<path d="M20.9276 21.2352L21.1045 19.7241C21.1045 19.7241 19.0294 19.6759 18.3217 19.2419C17.6139 18.8078 15.9892 15.7214 15.9892 15.7214L14.5576 16.3001C14.5576 16.3001 16.9383 20.0295 16.8257 20.8011C16.7131 21.5727 16.2788 23.5982 16.2788 23.5982L17.7426 24.0001C17.7426 24.0001 17.9195 22.1675 18.4664 21.5727C19.0134 20.978 20.9276 21.2352 20.9276 21.2352Z" fill="#93C6E7"/>
<path opacity="0.15" d="M19.4316 4.67784L18.9008 3.39185C18.7399 3.52045 18.563 3.66512 18.3539 3.82587C16.8257 5.14402 14.9437 6.07637 14.9437 6.07637C14.9437 6.07637 18.5791 9.50034 18.0482 7.95714C17.7265 6.96049 18.5147 5.59412 19.4316 4.67784Z" fill="black"/>
<path opacity="0.15" d="M4.02145 6.97671C5.01877 7.684 6.22521 8.79318 6.22521 8.79318L7.33513 7.79653C7.33513 7.79653 5.30832 6.23726 4.34317 5.19238L4.02145 6.97671Z" fill="black"/>
<path opacity="0.15" d="M8.94372 15.9786C8.94372 15.9786 8.76677 17.3128 8.1716 18.5184L9.76409 18.5506C10.1502 18.0201 10.681 17.5379 11.4048 17.4414C13.0939 17.2164 9.34586 14.9498 8.94372 15.9786Z" fill="black"/>
<path opacity="0.15" d="M15.9893 15.7214L14.5737 16.3001V16.3162C14.6863 16.493 15.6836 18.0845 16.3271 19.3544L17.2922 17.9398C16.6327 16.9271 15.9893 15.7214 15.9893 15.7214Z" fill="black"/>
<path d="M1.35119 14.9656L1.23859 13.551C1.23859 13.551 6.03215 13.5349 7.27076 12.0078L7.5603 15.6247C7.5603 15.6408 7.52813 14.5155 1.35119 14.9656Z" fill="#93C6E7"/>
<path d="M7.10993 10.5129C8.29149 10.5129 9.24934 9.54126 9.24934 8.34273C9.24934 7.1442 8.29149 6.17261 7.10993 6.17261C5.92837 6.17261 4.97052 7.1442 4.97052 8.34273C4.97052 9.54126 5.92837 10.5129 7.10993 10.5129Z" fill="#93C6E7"/>
<path d="M14.7829 18.47C16.1066 18.47 17.1797 17.3761 17.1797 16.0266C17.1797 14.6772 16.1066 13.5833 14.7829 13.5833C13.4592 13.5833 12.3861 14.6772 12.3861 16.0266C12.3861 17.3761 13.4592 18.47 14.7829 18.47Z" fill="#93C6E7"/>
<path opacity="0.15" d="M7.10993 10.5129C8.29149 10.5129 9.24934 9.54126 9.24934 8.34273C9.24934 7.1442 8.29149 6.17261 7.10993 6.17261C5.92837 6.17261 4.97052 7.1442 4.97052 8.34273C4.97052 9.54126 5.92837 10.5129 7.10993 10.5129Z" fill="black"/>
<path opacity="0.15" d="M14.7829 18.47C16.1066 18.47 17.1797 17.3761 17.1797 16.0266C17.1797 14.6772 16.1066 13.5833 14.7829 13.5833C13.4592 13.5833 12.3861 14.6772 12.3861 16.0266C12.3861 17.3761 13.4592 18.47 14.7829 18.47Z" fill="black"/>
<path d="M19.0778 9.17869C19.0778 7.94092 18.2735 6.89604 17.1635 6.57454C17.067 5.3207 16.0375 4.34012 14.7828 4.34012C14.4933 4.34012 14.2198 4.38835 13.9625 4.4848C13.5442 4.08292 12.9973 3.8418 12.3861 3.8418C11.5335 3.8418 10.8097 4.30797 10.4075 4.9992C10.1019 4.79022 9.73191 4.6777 9.34585 4.6777C8.2681 4.6777 7.38338 5.56182 7.38338 6.67099C7.38338 6.99249 7.44773 7.28184 7.57641 7.55512C7.51207 7.55512 7.44773 7.53904 7.38338 7.53904C6.41823 7.53904 5.64612 8.32672 5.64612 9.30729C5.64612 9.59664 5.71046 9.86992 5.83915 10.111C5.34049 10.4165 5.00269 10.9791 5.00269 11.6221C5.00269 12.5544 5.72655 13.326 6.62735 13.3903C6.56301 13.5993 6.51475 13.8404 6.51475 14.0816C6.51475 15.3033 7.49598 16.2999 8.70242 16.2999C9.0563 16.2999 9.39411 16.2195 9.68365 16.0588C9.95711 17.1197 10.9223 17.9074 12.0643 17.9074C12.74 17.9074 13.3673 17.6181 13.8177 17.168C14.0751 17.2966 14.3807 17.3769 14.6863 17.3769C15.7641 17.3769 16.6488 16.4928 16.6488 15.3836C16.6488 15.255 16.6327 15.1104 16.6166 14.9818C17.7105 14.8049 18.5308 13.8404 18.5308 12.683C18.5308 12.1686 18.37 11.7025 18.0965 11.3167C18.6756 10.8023 19.0778 10.0467 19.0778 9.17869Z" fill="#FF7384"/>
<g opacity="0.15">
<path opacity="0.15" d="M12.3539 12.2009C11.6783 10.5452 12.6113 9.54853 12.6435 9.50031C12.7883 9.35563 12.7883 9.11451 12.6435 8.96983C12.4987 8.82516 12.2735 8.82516 12.1287 8.96983C12.0966 9.00198 11.5818 9.53246 11.421 10.4327C9.53893 10.1272 8.5577 11.3007 7.86601 12.5224C7.41561 13.3101 6.56306 13.3422 6.32178 13.3422C6.41829 13.3583 6.51481 13.3744 6.61132 13.3905C6.54698 13.5994 6.49872 13.8406 6.49872 14.0817C6.49872 14.0817 6.49872 14.0817 6.49872 14.0978C6.98129 14.0656 7.93036 13.8888 8.49336 12.9243C9.05636 11.9437 9.79631 10.931 11.3888 11.2203C11.4049 11.6061 11.5014 12.0402 11.6944 12.5224C11.7588 12.6671 11.8875 12.7475 12.0322 12.7475C12.0805 12.7475 12.1287 12.7314 12.177 12.7153C12.3539 12.6189 12.4344 12.3938 12.3539 12.2009Z" fill="black"/>
<path opacity="0.15" d="M10.6811 15.995C10.8902 16.0914 11.1154 16.1718 11.3888 16.1718C11.5979 16.1718 11.7588 16.011 11.7588 15.8021C11.7588 15.5931 11.5979 15.4323 11.3888 15.4323C10.7937 15.4323 10.4398 14.7733 10.4398 14.7572C10.3433 14.5804 10.1181 14.5 9.94111 14.5964C9.76417 14.6929 9.69983 14.9179 9.78026 15.0948C9.79634 15.1108 9.89286 15.3198 10.102 15.5288C9.74808 15.8824 9.26551 16.0593 9.26551 16.0593C9.169 16.0914 9.08857 16.1718 9.0564 16.2522C9.2816 16.22 9.49071 16.1396 9.66766 16.0432C9.71591 16.2361 9.79634 16.4129 9.87677 16.5897C10.1181 16.4611 10.4237 16.2682 10.6811 15.995Z" fill="black"/>
<path opacity="0.15" d="M14.6703 13.7922C14.622 13.5993 14.429 13.4707 14.2199 13.519C14.0269 13.5672 13.8982 13.7762 13.9464 13.9691C13.9625 14.0173 14.0912 14.5156 14.5577 14.9818C14.9116 15.3515 15.5389 15.7373 16.5523 15.7695C16.5845 15.6409 16.5845 15.5123 16.5845 15.3676C16.5845 15.2551 16.5684 15.1425 16.5523 15.03C15.0081 14.9818 14.6864 13.8405 14.6703 13.7922Z" fill="black"/>
<path opacity="0.15" d="M17.1476 6.57496C17.1315 6.38206 17.0994 6.20524 17.035 6.02841C16.649 6.02841 16.1664 6.10879 15.716 6.41421C15.5069 6.10879 15.2977 5.98019 15.2817 5.96411L14.8956 6.59104C14.9117 6.60711 15.3138 6.89646 15.4425 7.66806C15.4747 7.84489 15.6195 7.98956 15.7964 7.98956C15.8125 7.98956 15.8286 7.98956 15.8607 7.98956C16.0538 7.95741 16.1985 7.76451 16.1664 7.57161C16.1342 7.39479 16.102 7.25011 16.0538 7.10544C16.7294 6.59104 17.5819 6.86431 17.6141 6.88039C17.6784 6.89646 17.7428 6.91254 17.8071 6.89646C17.6141 6.73571 17.3889 6.63926 17.1476 6.57496Z" fill="black"/>
<path opacity="0.15" d="M6.98119 8.7612C7.01336 8.93803 7.17422 9.06663 7.33508 9.06663C7.35117 9.06663 7.38334 9.06663 7.39942 9.06663C7.59245 9.03448 7.73722 8.84158 7.68897 8.6326C7.43159 7.16978 8.38066 6.89651 8.49326 6.86436C8.68629 6.81613 8.81497 6.62323 8.76671 6.43033C8.71846 6.22136 8.52543 6.09276 8.3324 6.14098C8.04285 6.20528 7.64071 6.39818 7.35117 6.78398C7.36725 7.05726 7.43159 7.31446 7.54419 7.53951C7.47985 7.53951 7.41551 7.52343 7.35117 7.52343C7.22248 7.52343 7.10988 7.53951 6.99728 7.55558C6.91685 7.89315 6.90076 8.29503 6.98119 8.7612Z" fill="black"/>
<path opacity="0.15" d="M15.2012 4.59753C15.2977 4.56538 15.362 4.50108 15.4103 4.43678C15.2012 4.37248 14.9921 4.34033 14.7508 4.34033C14.4612 4.34033 14.1878 4.38856 13.9304 4.48501C13.8982 4.45286 13.8661 4.42071 13.8339 4.40463C13.1583 4.85473 12.9974 5.36913 12.8687 5.80316C12.8366 5.93176 12.7883 6.06036 12.74 6.15681C12.5309 6.6069 11.8714 6.68728 11.8553 6.68728C11.6623 6.70335 11.5014 6.88018 11.5175 7.08915C11.5336 7.28205 11.6945 7.42673 11.8875 7.42673C11.9036 7.42673 11.9036 7.42673 11.9197 7.42673C11.9679 7.42673 13.0135 7.3142 13.3996 6.4783C13.4639 6.31756 13.5122 6.17288 13.5604 6.02821C13.7374 5.48166 13.8821 4.99941 15.2012 4.59753Z" fill="black"/>
</g>
<path d="M10.4718 8.34281C10.6851 8.34281 10.8579 8.16289 10.8579 7.94094C10.8579 7.71899 10.6851 7.53906 10.4718 7.53906C10.2586 7.53906 10.0858 7.71899 10.0858 7.94094C10.0858 8.16289 10.2586 8.34281 10.4718 8.34281Z" fill="white"/>
<path d="M12.5629 13.8406C12.7761 13.8406 12.949 13.6607 12.949 13.4387C12.949 13.2168 12.7761 13.0369 12.5629 13.0369C12.3497 13.0369 12.1768 13.2168 12.1768 13.4387C12.1768 13.6607 12.3497 13.8406 12.5629 13.8406Z" fill="white"/>
<path d="M15.4264 11.0758C15.9683 11.0758 16.4076 10.6296 16.4076 10.0792C16.4076 9.52873 15.9683 9.08252 15.4264 9.08252C14.8844 9.08252 14.4451 9.52873 14.4451 10.0792C14.4451 10.6296 14.8844 11.0758 15.4264 11.0758Z" fill="white"/>
<path d="M9.79618 13.7279C10.1693 13.7279 10.4718 13.4184 10.4718 13.0367C10.4718 12.6549 10.1693 12.3455 9.79618 12.3455C9.42305 12.3455 9.12057 12.6549 9.12057 13.0367C9.12057 13.4184 9.42305 13.7279 9.79618 13.7279Z" fill="white"/>
</svg>
