<svg width="24" height="24" viewBox="0 0 24 24" fill="none" xmlns="http://www.w3.org/2000/svg">
<path fill-rule="evenodd" clip-rule="evenodd" d="M6.48117 15.8783C6.44917 15.8783 6.43317 15.8952 6.40117 15.8952C5.50523 15.9457 4.65729 16.2152 3.84135 16.6195C3.71336 16.6869 3.68136 16.67 3.60137 16.5016C3.53737 16.3668 3.61737 16.3331 3.71336 16.2994C4.25732 16.0973 4.81728 15.8952 5.37724 15.7099C5.47324 15.6762 5.60123 15.693 5.71322 15.7099C5.90521 15.7099 6.11319 15.7267 6.30518 15.7436C6.36917 15.7436 6.43317 15.7941 6.49717 15.8109C6.48117 15.8446 6.48117 15.8615 6.48117 15.8783Z" fill="#FEFEFE"/>
<path fill-rule="evenodd" clip-rule="evenodd" d="M7.12103 16.7713C6.84905 16.9397 6.56107 17.0071 6.27309 17.0408C5.80912 17.0745 5.34516 17.1082 4.91319 17.2598C4.83319 17.2935 4.7532 17.3272 4.6732 17.344C4.62521 17.3608 4.57721 17.3777 4.52921 17.3608C4.48122 17.3272 4.43322 17.2766 4.38522 17.2261C4.41722 17.1924 4.44922 17.1419 4.49722 17.125C5.07318 16.906 5.66513 16.7881 6.27309 16.7039C6.43308 16.6871 6.59307 16.6534 6.76906 16.6365C6.91305 16.6197 7.04104 16.6197 7.12103 16.7713Z" fill="#FEFEFE"/>
<path fill-rule="evenodd" clip-rule="evenodd" d="M7.90499 16.9736C7.55301 17.1589 7.20104 17.3611 6.80106 17.4284C6.2731 17.4958 5.74514 17.5632 5.21717 17.6306C5.13718 17.6474 5.00919 17.6811 4.99319 17.5463C4.97719 17.4284 5.10518 17.4284 5.18518 17.3947C5.68114 17.2431 6.19311 17.2095 6.68907 17.1758C6.94505 17.1589 7.16904 17.1084 7.40902 17.0073C7.55301 16.9399 7.729 16.9399 7.88899 16.9062C7.88899 16.9399 7.88899 16.9568 7.90499 16.9736Z" fill="#FEFEFE"/>
<path fill-rule="evenodd" clip-rule="evenodd" d="M11.5528 16.9057C11.4248 17.3099 10.7209 17.8321 10.2089 17.8658C10.2409 17.8153 10.2569 17.7816 10.2889 17.7479C10.4809 17.4615 10.6569 17.1752 10.8488 16.9057C10.9608 16.7372 11.0248 16.7204 11.2008 16.7709C11.3128 16.8046 11.4088 16.8383 11.5208 16.872C11.5208 16.8888 11.5368 16.9057 11.5528 16.9057Z" fill="#FEFEFE"/>
<path fill-rule="evenodd" clip-rule="evenodd" d="M6.76916 16.3332C6.59318 16.3668 6.41719 16.4005 6.2572 16.4342C5.82523 16.5184 5.39326 16.5858 4.97729 16.6869C4.70531 16.7543 4.44933 16.8722 4.19334 16.9732C4.16135 16.9901 4.11335 17.0069 4.08135 17.0238C4.04935 17.0238 3.98536 17.0069 3.96936 16.9901C3.96936 16.9396 3.96936 16.889 4.00136 16.8385C4.01736 16.8048 4.06535 16.8048 4.09735 16.788C4.65731 16.6195 5.20127 16.4342 5.76124 16.2826C5.96922 16.2321 6.17721 16.2321 6.40119 16.1984C6.43319 16.1984 6.46519 16.1984 6.49718 16.1815C6.64117 16.131 6.67317 16.1479 6.76916 16.3332Z" fill="#FEFEFE"/>
<path fill-rule="evenodd" clip-rule="evenodd" d="M8.80092 16.8552C8.70493 17.0068 8.62494 17.1753 8.52894 17.31C8.12897 17.8659 7.713 18.4049 7.31303 18.944C7.23303 19.0619 7.13704 19.1461 6.97705 19.0787C7.00905 19.0113 7.04105 18.944 7.08904 18.8766C7.48902 18.3712 7.88899 17.8659 8.28896 17.3437C8.40095 17.1921 8.49694 17.0405 8.62494 16.9058C8.67293 16.8552 8.73693 16.8215 8.78492 16.7878C8.76893 16.8215 8.78492 16.8384 8.80092 16.8552Z" fill="#FEFEFE"/>
<path fill-rule="evenodd" clip-rule="evenodd" d="M8.54495 19.2473C8.57695 19.18 8.59295 19.0957 8.64095 19.062C9.12091 18.6746 9.40889 18.1693 9.50488 17.546C9.53688 17.327 9.60088 17.0912 9.63288 16.8722C9.64887 16.8049 9.66487 16.7375 9.74487 16.7712C9.77687 16.788 9.80886 16.8554 9.80886 16.8891C9.72887 17.2765 9.68087 17.6639 9.56888 18.0345C9.42489 18.5399 9.08891 18.8936 8.72094 19.2305C8.68894 19.2642 8.64095 19.2642 8.59295 19.281C8.57695 19.2642 8.56095 19.2642 8.54495 19.2473Z" fill="#FEFEFE"/>
<path fill-rule="evenodd" clip-rule="evenodd" d="M8.04904 19.1293C8.43302 18.725 8.689 18.2196 8.92898 17.7143C9.04097 17.4953 9.12097 17.2763 9.21696 17.0574C9.24896 17.0068 9.28096 16.9563 9.32895 16.8889C9.34495 16.8889 9.36095 16.8889 9.37695 16.9058C9.37695 16.9563 9.39295 17.0237 9.37695 17.0742C9.16896 17.8659 8.76899 18.5397 8.25703 19.1461C8.19303 19.2472 8.12904 19.2303 8.04904 19.1293Z" fill="#FEFEFE"/>
<path fill-rule="evenodd" clip-rule="evenodd" d="M10.8167 17.967C10.8967 17.9164 10.9607 17.8828 11.0407 17.8322C11.3287 17.6638 11.5847 17.4448 11.7447 17.1416C11.8247 17.0068 11.9367 16.99 12.0967 17.1079C12.1926 17.1753 12.1766 17.2595 12.0807 17.3943C11.7607 17.7985 11.3447 18.0175 10.8167 17.967Z" fill="#FEFEFE"/>
<path fill-rule="evenodd" clip-rule="evenodd" d="M10.6729 16.7878C10.6569 16.8215 10.6409 16.8889 10.6089 16.9394C10.4969 17.1247 10.3689 17.31 10.2569 17.4785C10.2249 17.5122 10.2089 17.5627 10.161 17.5627C10.113 17.5795 10.033 17.5964 10.001 17.5627C9.96897 17.5458 9.96897 17.4448 9.98497 17.4111C10.065 17.1584 10.145 16.9057 10.2409 16.6699C10.2729 16.5689 10.3209 16.4509 10.4489 16.4846C10.5609 16.4846 10.6729 16.6194 10.6729 16.7878Z" fill="#FEFEFE"/>
<path fill-rule="evenodd" clip-rule="evenodd" d="M8.96095 17.125C8.94495 17.1755 8.92895 17.2261 8.91295 17.2766C8.60897 17.9335 8.225 18.5568 7.74503 19.1127C7.72903 19.1295 7.71303 19.1632 7.69703 19.1632C7.68103 19.1801 7.63304 19.1801 7.63304 19.1801C7.61704 19.1632 7.58504 19.1295 7.60104 19.0958C7.61704 19.0453 7.63304 18.9948 7.64904 18.9611C8.06501 18.3547 8.48098 17.7483 8.91295 17.1587C8.92895 17.1418 8.92895 17.125 8.94495 17.1082C8.94495 17.1082 8.96095 17.1082 8.96095 17.125Z" fill="#FEFEFE"/>
<path fill-rule="evenodd" clip-rule="evenodd" d="M7.85704 17.4109C7.77705 17.4783 7.71305 17.5456 7.63306 17.613C7.26508 17.9668 6.9931 18.4047 6.75312 18.8595C6.72112 18.9269 6.68912 18.9943 6.65712 19.028C6.62513 19.0617 6.56113 19.0617 6.51313 19.0785C6.49714 19.028 6.46514 18.9606 6.48114 18.9269C6.56113 18.7585 6.64113 18.6069 6.73712 18.4553C7.0091 18.051 7.34508 17.7141 7.72905 17.4277C7.76105 17.394 7.80904 17.394 7.84104 17.3772C7.85704 17.3772 7.85704 17.394 7.85704 17.4109Z" fill="#FEFEFE"/>
<path fill-rule="evenodd" clip-rule="evenodd" d="M6.4331 17.7312C6.14512 18.1186 5.85714 18.5061 5.56916 18.9103C5.48917 18.8766 5.42517 18.8261 5.36118 18.7924C5.48917 18.4555 6.19312 17.748 6.4331 17.7312Z" fill="#FEFEFE"/>
<path fill-rule="evenodd" clip-rule="evenodd" d="M8.06501 16.6533C7.72903 16.6701 6.92908 16.03 6.84909 15.6931C6.97708 15.6763 7.07307 15.6931 7.16907 15.7773C7.44105 16.0469 7.71303 16.3164 7.98501 16.5859C8.01701 16.5859 8.03301 16.6196 8.06501 16.6533Z" fill="#FEFEFE"/>
<path fill-rule="evenodd" clip-rule="evenodd" d="M6.96111 17.7483C6.70513 18.1526 6.43314 18.5568 6.17716 18.9611C6.09717 19.079 6.08117 19.079 5.90518 19.0116C6.16116 18.5063 6.49714 18.0683 6.96111 17.7483Z" fill="#FEFEFE"/>
<path fill-rule="evenodd" clip-rule="evenodd" d="M8.00102 15.8447C8.09702 15.8953 8.22501 15.9121 8.305 15.9795C8.49699 16.1479 8.68897 16.3501 8.86496 16.5354C8.88096 16.5522 8.89696 16.569 8.92896 16.6196C8.83296 16.6196 8.76897 16.6196 8.72097 16.6027C8.369 16.468 8.14501 16.2153 7.96902 15.8784C7.98502 15.8953 7.98502 15.8616 8.00102 15.8447Z" fill="#FEFEFE"/>
<path fill-rule="evenodd" clip-rule="evenodd" d="M4.38526 18.0515C4.38526 18.1863 4.25727 18.3379 4.11328 18.3379C4.00129 18.3379 3.9213 18.2705 3.9213 18.1694C3.9213 18.0347 4.06529 17.8831 4.19328 17.8662C4.30527 17.8662 4.38526 17.9336 4.38526 18.0515Z" fill="#FEFEFE"/>
<path fill-rule="evenodd" clip-rule="evenodd" d="M5.52114 18.1019C5.37715 18.2704 5.26516 18.4388 5.12117 18.5904C5.07317 18.641 4.97718 18.6241 4.89719 18.641C4.97718 18.3209 5.24916 18.0851 5.52114 18.1019Z" fill="#FEFEFE"/>
<path fill-rule="evenodd" clip-rule="evenodd" d="M4.73723 18.0681C4.65723 18.2365 4.59324 18.405 4.52924 18.5566C4.32126 18.4892 4.30526 18.405 4.41725 18.2365C4.49724 18.1355 4.59324 18.0512 4.73723 18.0681Z" fill="#FEFEFE"/>
<path fill-rule="evenodd" clip-rule="evenodd" d="M3.95336 17.664C3.95336 17.7819 3.74538 17.9503 3.64938 17.9335C3.56939 17.9166 3.53739 17.8156 3.58539 17.765C3.64938 17.6976 3.74538 17.6303 3.82537 17.5797C3.88937 17.5292 3.95336 17.5797 3.95336 17.664Z" fill="#FEFEFE"/>
<path fill-rule="evenodd" clip-rule="evenodd" d="M3.02536 16.8894C3.15335 16.8557 3.24934 16.822 3.36134 16.822C3.39333 16.822 3.44133 16.9062 3.47333 16.9399C3.44133 16.9736 3.39333 17.0242 3.36134 17.0242C3.24934 17.041 3.13735 17.0242 3.02536 16.8894Z" fill="#FEFEFE"/>
<path fill-rule="evenodd" clip-rule="evenodd" d="M9.08888 16.4511C8.97689 16.3164 8.8809 16.2153 8.8009 16.1143C8.7849 16.0974 8.76891 16.0637 8.73691 16.03C8.97689 16.03 9.08888 16.1648 9.08888 16.4511Z" fill="#FEFEFE"/>
<path fill-rule="evenodd" clip-rule="evenodd" d="M9.64889 16.2151C9.71288 16.2488 9.77688 16.2656 9.80888 16.3162C9.82488 16.3498 9.80888 16.4341 9.79288 16.4846C9.77688 16.5183 9.72888 16.5351 9.69688 16.5351C9.68089 16.5351 9.64889 16.4846 9.63289 16.4509C9.61689 16.3835 9.61689 16.3162 9.60089 16.2488C9.61689 16.2488 9.63289 16.2319 9.64889 16.2151Z" fill="#FEFEFE"/>
<path fill-rule="evenodd" clip-rule="evenodd" d="M3.36127 17.4953C3.44126 17.3774 3.50526 17.2595 3.66525 17.2595C3.68125 17.2595 3.71324 17.2764 3.72924 17.2764C3.72924 17.2764 3.72924 17.3101 3.72924 17.3269C3.63325 17.3943 3.52126 17.4617 3.42526 17.529C3.40926 17.529 3.37727 17.5122 3.36127 17.4953Z" fill="#FEFEFE"/>
<path fill-rule="evenodd" clip-rule="evenodd" d="M9.28091 16.1816C9.4249 16.249 9.40891 16.3838 9.37691 16.5185C9.34491 16.4175 9.31291 16.2996 9.28091 16.1816Z" fill="#FEFEFE"/>
<path fill-rule="evenodd" clip-rule="evenodd" d="M22.032 3.9857C21.9361 3.76672 21.8561 3.5309 21.7121 3.34561C21.5681 3.14347 21.3761 2.99187 21.1681 2.85711C20.7521 2.57075 20.3362 2.36861 19.8882 2.18332C19.4082 1.98119 18.9123 1.77905 18.4003 1.72852C18.3363 1.76221 18.2723 1.77905 18.2083 1.81274C18.2563 1.79589 18.5123 1.96434 18.5603 1.99803C18.6883 2.08225 18.9763 2.2507 19.0403 2.4023C19.0563 2.43599 19.7282 3.02556 19.8722 3.3793C20.0322 3.80041 20.0162 4.35629 19.6002 4.82794C19.8562 5.28275 20.9761 4.87847 21.2641 4.87847C21.5681 4.87847 21.8081 4.9627 22.032 5.16483C22.304 5.40066 22.816 6.04076 22.8 5.73755C22.8 5.70386 23.088 5.65333 23.088 5.65333C22.976 5.36697 22.784 5.09745 22.608 4.84478C22.448 4.60896 22.256 4.38998 22.112 4.15415C22.08 4.08677 22.064 4.03624 22.032 3.9857Z" fill="#FF7384"/>
<path fill-rule="evenodd" clip-rule="evenodd" d="M4.97716 13.5534C5.10516 13.2839 5.08916 12.8965 5.34514 12.7786C5.28114 12.6607 5.20115 12.5596 5.10516 12.6438C4.89717 12.8123 4.86517 12.8291 4.64119 12.6775C4.28921 12.4417 3.92124 12.2059 3.56926 11.97C3.52127 11.9364 3.47327 12.0206 3.42527 12.0374C3.60126 12.2227 3.77725 12.3912 3.95324 12.5933C4.24122 12.9133 4.16122 13.2839 3.77725 13.4524C3.58526 13.5366 3.39328 13.5871 3.21729 13.6714C3.15329 13.6882 3.1053 13.7219 3.12129 13.8398C3.28128 13.823 3.45727 13.8061 3.61726 13.7893C3.77725 13.7724 3.90524 13.823 4.00123 13.9746C4.19322 14.2441 4.24122 14.5473 4.19322 14.8842C4.17722 14.9515 4.12922 15.0358 4.06523 15.0695C3.36128 15.4737 2.62533 15.6253 1.84138 15.3558C1.47341 15.2211 1.23343 15.0021 1.15343 14.682C1.31342 14.4967 1.48941 14.4294 1.72939 14.5304C2.00137 14.6483 2.27335 14.7326 2.56133 14.8336C2.76932 14.901 2.88131 14.8842 2.9933 14.7494C2.22536 14.6147 1.69739 14.1598 1.28142 13.5029C1.26542 13.5029 1.24942 13.5029 1.24942 13.5029C1.24942 13.5703 1.23343 13.6208 1.23343 13.6882C1.23343 13.705 1.24942 13.7219 1.24942 13.7387C1.24942 13.823 1.36142 13.9072 1.24942 13.9914C1.13743 14.0756 1.00944 14.1093 0.88145 14.0419C0.801456 14.0082 0.73746 13.924 0.705463 13.8566C0.369486 13.1492 0.209497 12.3912 0.289492 11.5826C0.305491 11.3468 0.385485 11.2794 0.625468 11.3131C0.705463 11.2963 0.801456 11.3131 0.897449 11.3636C0.961445 11.3973 1.00944 11.4647 1.07344 11.5152C1.10543 11.5321 1.12143 11.5658 1.15343 11.5826C1.16943 11.5489 1.21743 11.5152 1.21743 11.4815C1.23343 11.2289 1.23343 10.993 1.24942 10.7404C1.24942 10.6898 1.21743 10.6393 1.20143 10.6056C1.18543 10.6056 1.18543 10.6056 1.16943 10.6056C1.13743 10.7235 1.08944 10.8414 1.05744 10.9762C0.801456 10.892 0.545474 10.8246 0.289492 10.7235C0.0975051 10.6393 -0.0144871 10.454 0.00151182 10.2182C0.0175107 9.67916 0.0655074 9.29174 0.289492 8.78639C0.337488 8.66848 0.417483 8.63479 0.513476 8.68533C0.785457 8.82008 1.07344 8.92115 1.24942 9.20751C1.28142 9.25805 1.37742 9.25805 1.44141 9.25805C1.85738 9.2412 2.25735 9.25805 2.65733 9.37596C2.70532 9.3928 2.75332 9.40965 2.80132 9.40965C3.0413 9.47703 3.16929 9.64547 3.20129 9.89814C3.21729 9.98237 3.23329 10.0834 3.24928 10.1677C3.26528 10.1677 3.28128 10.1677 3.29728 10.1677C3.29728 10.134 3.29728 10.0834 3.29728 10.0497C3.28128 9.81392 3.36128 9.74654 3.55326 9.61178C4.03323 9.27489 4.5132 8.938 5.08916 8.82008C5.40913 8.75271 5.71311 8.7864 5.9531 9.05591C6.19308 9.30858 6.25708 9.34227 6.48106 9.59494C6.57705 9.71285 6.67305 9.83077 6.78504 9.93183C6.96103 10.1171 6.99302 10.3193 6.91303 10.5719C6.80104 10.892 6.59305 11.0773 6.28907 11.1615C5.8891 11.2626 5.50513 11.3636 5.10516 11.4647C5.04116 11.4815 6.65705 11.2457 7.40899 11.6331C7.40899 11.6163 7.42499 11.5995 7.42499 11.5995C7.361 11.5152 7.297 11.4142 7.23301 11.3299C7.12102 11.1952 7.07302 11.0436 7.15301 10.8751C7.18501 10.8078 7.20101 10.7404 7.23301 10.673C7.361 10.3866 7.48899 10.3193 7.79297 10.3698C8.08095 10.4203 8.36893 10.4709 8.65691 10.5551C9.24887 10.7067 9.85683 10.8751 10.4488 11.0436C10.5128 11.0604 10.5768 11.0941 10.6248 11.111C10.8008 11.1952 10.8808 11.3299 10.8648 11.5152C10.8648 11.5658 10.8648 11.6163 10.8648 11.6837C10.9767 11.5995 11.0567 11.5152 11.1367 11.4479C11.2167 11.3805 11.2967 11.3636 11.3927 11.3973C12.3367 11.7511 13.2806 12.1048 14.2245 12.4754C14.5125 12.5933 14.8005 12.7617 15.0725 12.9133C15.5044 13.1492 15.7764 13.5198 15.9364 14.0082C15.9524 14.0756 15.9844 14.1262 16.0004 14.1935C16.0164 14.1935 16.0324 14.1935 16.0324 14.1935C16.0324 14.1093 16.0324 14.0082 16.0324 13.924C16.0324 13.6545 16.1604 13.4861 16.3844 13.385C16.5284 13.3345 16.6723 13.2671 16.8163 13.2165C16.8483 13.1997 16.8963 13.1829 16.9283 13.166C16.9283 13.1492 16.9283 13.1323 16.9123 13.1155C16.8483 13.1155 16.7843 12.8965 16.7203 12.9133C16.3044 13.0313 15.9204 12.9639 15.5524 12.7449C15.1045 12.4754 14.6245 12.2396 14.1765 11.9869C13.8405 11.8016 13.5046 11.7679 13.1366 11.7005C12.6406 11.6163 12.2087 11.3299 11.8407 10.9594C11.7927 10.9088 11.7287 10.892 11.6967 10.8583C11.6007 10.7741 11.2967 10.7235 11.2647 10.7404C10.7208 10.8414 10.2088 10.6898 9.69683 10.5551C9.02488 10.3866 8.36893 10.235 7.69697 10.0497C7.53699 9.99921 7.377 9.89814 7.24901 9.79708C6.78504 9.40965 6.40107 8.938 6.06509 8.43266C5.82511 8.07892 5.74511 7.67465 5.76111 7.25353C5.77711 7.05139 5.77711 6.84926 5.79311 6.64712C5.79311 6.59659 5.79311 6.5629 5.76111 6.51236C5.74511 6.5629 5.71311 6.61343 5.69711 6.66396C5.60112 7.00086 5.50513 7.3546 5.42513 7.69149C5.36114 7.92732 5.23315 8.09576 5.02516 8.19683C4.4652 8.48319 3.88924 8.76955 3.32928 9.05591C3.26528 9.0896 3.18529 9.10644 3.12129 9.0896C2.67333 9.02222 2.22536 8.95484 1.77739 8.88746C1.6494 8.87062 1.5854 8.80324 1.5694 8.66848C1.5534 8.55057 1.5374 8.41581 1.47341 8.2979C1.42541 8.41581 1.39341 8.53372 1.34542 8.66848C1.10543 8.65164 0.833454 8.36528 0.785457 8.06207C0.769458 7.94416 0.753459 7.79256 0.785457 7.67465C0.865452 7.38829 0.945446 7.08508 1.05744 6.81557C1.24942 6.37761 2.00137 6.14178 2.38535 6.68081C2.44934 6.76503 2.44934 6.83241 2.40134 6.93348C2.32135 7.08508 2.24136 7.23668 2.16136 7.38829C2.17736 7.38829 2.17736 7.40513 2.19336 7.40513C2.20936 7.38829 2.22536 7.38829 2.22536 7.37144C2.57733 6.98401 3.0253 6.91664 3.50527 6.98401C3.64926 7.00086 3.76125 7.10193 3.85724 7.21984C3.90524 7.28722 3.95324 7.3546 4.01723 7.40513C4.01723 7.33775 4.01723 7.27037 4.00123 7.18615C3.95324 6.63028 4.09723 6.10809 4.28921 5.60275C4.57719 4.86158 4.97716 4.22149 5.60112 3.73299C5.71311 3.64877 5.82511 3.63192 5.9691 3.66561C6.19308 3.73299 6.41706 3.73299 6.65705 3.76668C6.78504 3.78352 6.89703 3.80037 7.02502 3.83406C7.00902 3.91828 6.99302 3.96882 6.97702 4.01935C6.99302 4.01935 6.99302 4.03619 7.00902 4.03619C7.63298 3.73299 8.28893 3.73299 8.94489 3.74983C9.21687 3.74983 9.42485 3.91828 9.53685 4.1878C9.64884 4.44047 9.69683 4.70998 9.69683 4.99634C9.69683 5.08056 9.69683 5.16479 9.69683 5.21532C9.84082 5.1311 10.2888 5.03003 10.4488 4.9795C10.6088 4.94581 10.8008 4.96265 11.0087 4.96265C10.8648 4.89527 10.7688 4.84474 10.6568 4.81105C10.4968 4.76052 10.4008 4.6426 10.3048 4.50785C10.0808 4.15411 9.53685 3.61508 9.29686 3.27818C9.20087 3.14343 9.08888 3.02551 9.12088 2.80653C9.05688 2.82338 9.00888 2.82338 8.97689 2.84022C8.94489 3.2108 8.84889 3.31187 8.48092 3.36241C7.60098 3.48032 6.60905 3.3961 5.74511 3.22765C5.53713 3.17712 5.34514 3.26134 5.12115 3.17712C5.18515 3.29503 5.23315 3.3961 5.28114 3.49716C4.94517 3.74983 4.65719 4.05304 4.4172 4.38993C4.00123 4.9795 3.87324 5.40061 3.72925 6.12493C3.71325 6.24285 3.64926 6.31023 3.53727 6.32707C3.23329 6.39445 2.92931 6.41129 2.64133 6.27654C2.28935 6.10809 2.19336 5.80489 2.33735 5.4343C2.36935 5.36692 2.40134 5.29955 2.43334 5.21532C2.41734 5.21532 2.40134 5.19848 2.40134 5.19848C2.30535 5.35008 2.20936 5.50168 2.12936 5.67013C2.06537 5.78804 1.98537 5.83857 1.85738 5.83857C1.5374 5.83857 1.39341 5.60275 1.5694 5.33323C2.01737 4.60891 2.57733 4.25518 3.39328 4.0025C3.63326 3.93513 3.63326 3.93513 3.80925 4.12042C3.98523 3.83406 4.20922 3.59823 4.4972 3.46347C4.4972 3.44663 4.4812 3.42979 4.4812 3.41294C4.32121 3.44663 4.16122 3.48032 4.00123 3.51401C3.93724 3.37925 3.95324 3.24449 4.09723 3.12658C4.33721 2.94129 4.57719 2.73915 4.83317 2.58755C5.28114 2.31804 5.74511 2.04852 6.19308 1.8127C6.52906 1.6274 6.88103 1.64425 7.23301 1.79585C7.377 1.86323 7.50499 1.98114 7.66498 2.09906C7.72897 2.06537 7.82497 2.01483 7.90496 1.98114C7.64898 1.8127 7.377 1.6274 7.10502 1.45896C7.13701 1.42527 7.15301 1.39158 7.18501 1.35789C7.72897 0.953617 8.32093 0.734636 8.97689 0.78517C9.23287 0.802015 9.45685 0.936772 9.61684 1.13891C10.1768 1.86323 10.7688 2.58755 11.2327 3.3961C11.3287 3.5477 11.4567 3.64877 11.5847 3.74983C11.7447 3.86775 11.8887 4.01935 12.0327 4.17095C12.1287 4.27202 12.1287 4.40678 12.0327 4.52469C12.5446 4.74367 12.6406 5.23217 12.7686 5.72066C12.8006 5.82173 12.7846 5.93964 12.8006 6.04071C12.8326 6.24285 12.8166 6.42814 12.7366 6.59659C12.7206 6.63028 12.7206 6.66396 12.7046 6.7145C12.7206 6.7145 12.9446 6.73134 12.9606 6.73134C12.9926 6.69765 13.0406 6.64712 13.0406 6.61343C13.1046 6.29338 13.2326 6.02387 13.4246 5.78804C12.8326 5.03003 12.7846 4.84474 12.8966 4.05304C12.7046 4.12042 12.5766 3.96882 12.4486 3.86775C12.2247 3.6993 11.9847 3.51401 11.7607 3.34556C11.3607 3.04236 11.1207 2.6044 10.8808 2.16643C10.7688 1.94745 10.7848 1.72847 10.9447 1.52634C11.0247 1.42527 11.0887 1.3242 11.1527 1.22313C10.9287 1.27367 10.7528 1.44211 10.5768 1.56003C10.3688 1.40842 10.3208 1.20629 10.4488 0.970462C10.6568 0.616723 10.7368 0.364053 11.1047 0.24614C11.7447 0.0271594 12.4006 -0.0739087 13.0726 0.0608487C13.4726 0.128227 13.8565 0.262985 14.2565 0.330364C14.4485 0.364053 16.0804 1.1726 16.2884 1.86323C16.3364 2.03168 16.3364 2.21697 16.2404 2.36857C16.0964 2.62124 15.9524 2.89076 15.7924 3.12658C15.6804 3.31187 15.5044 3.36241 15.2964 3.29503C15.0725 3.22765 14.8325 3.16027 14.6085 3.0592C14.5125 3.02551 14.4165 2.95813 14.3525 2.85707C14.0645 2.43595 13.7766 2.01483 13.5046 1.59371C13.3446 1.35789 13.3126 1.10522 13.3126 0.835704C13.3126 0.78517 13.1846 1.18944 13.1686 1.30736C13.1366 1.45896 13.0406 1.54318 12.8806 1.56003C12.5926 1.57687 12.2887 1.61056 12.0007 1.64425C12.0007 1.77901 12.0647 1.8127 12.1927 1.79585C12.3367 1.77901 12.4806 1.76216 12.6406 1.74532C13.0406 1.72847 13.3606 1.88007 13.6006 2.20012C13.8405 2.52017 14.0325 2.87391 14.0645 3.29503C14.0645 3.37925 14.1125 3.42979 14.2085 3.44663C14.4805 3.51401 14.7365 3.58139 15.0085 3.64877C15.2005 3.6993 15.3124 3.83406 15.3444 4.03619C15.4724 4.89527 15.4564 5.73751 14.9925 6.51236C14.9285 6.63028 14.8485 6.74819 14.7845 6.8661C14.6885 7.06824 14.5285 7.15246 14.3205 7.16931C14.1925 7.18615 14.0645 7.20299 13.9845 7.20299C14.3845 7.32091 14.8165 7.43882 15.2804 7.59042C15.1845 7.5062 15.1205 7.43882 15.0565 7.37144C14.9125 7.23668 14.8965 7.15246 14.9925 6.96717C15.0725 6.79872 15.1685 6.64712 15.2644 6.47867C15.3604 6.32707 15.4564 6.27654 15.6164 6.32707C16.5924 6.59659 17.5843 6.84926 18.5282 7.23668C18.7682 7.33775 18.9122 7.48935 18.9762 7.74202C19.0082 7.89363 19.0402 8.02838 19.0562 8.17999C19.1042 8.55057 19.0242 8.90431 18.7522 9.17382C18.6402 9.27489 18.5602 9.40965 18.4802 9.54441C18.6082 9.47703 18.7202 9.40965 18.8482 9.34227C19.0562 9.20751 19.2802 9.17382 19.5202 9.22436C19.7281 9.27489 19.9361 9.30858 20.1281 9.37596C20.3521 9.42649 20.4161 9.52756 20.4161 9.76339C20.4161 9.84761 20.4161 9.93183 20.4321 10.0161C20.6881 9.71285 20.96 9.42649 21.024 9.02222C21.008 9.00538 21.008 9.00538 20.992 8.98853C20.96 9.02222 20.9121 9.03907 20.8801 9.07275C20.7681 9.22436 20.6241 9.27489 20.4481 9.2412C20.1601 9.17382 19.8721 9.0896 19.5681 9.00538C19.5202 8.98853 19.4562 8.938 19.4242 8.87062C19.2482 8.4495 19.1682 8.01154 19.2162 7.55673C19.2322 7.3546 19.3282 7.20299 19.4882 7.06824C19.5521 7.00086 19.6321 6.95032 19.6961 6.88295C19.6961 6.8661 19.6801 6.8661 19.6801 6.84926C19.6321 6.8661 19.5841 6.8661 19.5521 6.89979C19.2642 7.05139 18.9762 6.93348 18.6562 6.83241C17.8083 6.57974 17.1043 6.34392 16.2564 6.09125C16.1444 6.05756 16.0324 6.04071 15.9204 6.00702C15.9044 5.9228 15.8404 5.85542 15.8404 5.73751C15.8404 5.1311 15.8564 4.67629 15.8724 4.06988C15.8724 3.96882 15.9204 3.8509 15.9844 3.76668C16.2084 3.36241 16.3044 2.97498 16.5444 2.58755C16.8163 2.14959 17.2003 1.93061 17.6963 1.9643C17.8723 1.9643 18.0483 1.98114 18.2242 2.03168C18.4802 2.09906 18.6882 2.31804 18.7522 2.52017C18.5922 2.52017 18.4322 2.52017 18.2722 2.52017C18.2562 2.52017 18.2562 2.55386 18.2242 2.57071C18.2722 2.58755 18.3202 2.6044 18.3522 2.62124C18.5122 2.67177 18.6722 2.72231 18.8162 2.78969C19.1842 2.95813 19.4242 3.24449 19.6001 3.61508C19.6641 3.76668 19.6641 3.91828 19.5841 4.08673C19.5042 4.25518 19.4082 4.42362 19.3282 4.59207C19.2642 4.70998 19.1682 4.77736 19.0082 4.74367C18.8322 4.70998 18.6562 4.67629 18.4802 4.65945C18.2402 4.62576 18.0163 4.57522 17.8243 4.42362C17.8083 4.40678 17.7763 4.40678 17.7123 4.37309C17.8723 4.65945 17.8883 4.94581 17.8083 5.23217C17.8243 5.23217 17.8243 5.24901 17.8403 5.24901C17.9043 5.18163 17.9683 5.11425 18.0163 5.03003C18.1442 4.87843 18.2882 4.82789 18.4802 4.86158C19.0402 4.94581 19.5681 5.14794 20.0161 5.51853C20.1601 5.63644 20.2241 5.63644 20.3841 5.53537C20.5761 5.38377 20.8001 5.2827 21.04 5.21532C21.344 5.14794 21.616 5.21532 21.84 5.4343C22.176 5.7712 22.4959 6.10809 22.7039 6.5629C22.7519 6.66396 22.8319 6.74819 22.8799 6.84926C22.8959 6.84926 22.9119 6.83241 22.9439 6.83241C22.9279 6.69765 22.9119 6.57974 22.9119 6.44498C22.9119 6.32707 22.9119 6.19231 22.9279 6.0744C22.9439 5.95649 23.0399 5.9228 23.1199 6.00702C23.1999 6.0744 23.2959 6.17547 23.3439 6.25969C23.6159 6.74819 23.7279 7.28722 23.7919 7.85994C23.8398 8.23052 23.9038 8.6011 23.9518 8.95484C24.0318 9.54441 23.9998 9.81392 23.8398 10.3866C23.7439 10.7404 23.6319 11.0941 23.5039 11.4479C23.2159 12.189 22.272 12.6607 21.568 12.4248C21.584 12.3069 21.584 12.189 21.6 12.0711C21.584 12.0711 21.584 12.0711 21.568 12.0711C21.536 12.1216 21.504 12.189 21.472 12.2396C21.344 12.4754 21.136 12.5764 20.8801 12.5428C20.6561 12.5091 20.4321 12.4922 20.2241 12.4417C20.0961 12.408 19.9681 12.3406 19.8721 12.2564C19.7441 12.1385 19.7441 12.0543 19.8241 11.8858C19.6481 11.9027 19.4882 11.9195 19.3282 11.9532C19.1842 11.97 19.0722 11.9364 18.9762 11.8353C18.7362 11.5826 18.4802 11.3131 18.2402 11.0604C18.3042 11.0267 18.3842 10.993 18.4802 10.9425C18.2562 10.9088 18.0643 10.892 17.8723 10.8583C17.5843 10.8078 17.3603 10.6562 17.2003 10.4035C17.1043 10.2519 17.0083 10.0834 16.9123 9.93183C16.8003 9.7297 16.9283 9.30858 16.9923 9.25805C16.8003 9.30858 16.6244 9.61178 16.4644 9.64547C16.1124 9.71285 16.0644 9.74654 15.8884 9.40965C15.8564 9.34227 15.8244 9.15698 15.7764 9.05591C15.7604 9.17382 14.9605 9.2412 14.5925 9.14013C14.3045 9.07275 14.0165 8.938 13.7286 8.82008C13.0406 8.53372 12.3686 8.23052 11.6967 7.91047C11.4087 7.77571 11.1367 7.62411 10.8648 7.48935C10.7048 7.40513 10.5928 7.08508 10.5928 6.84926C10.3368 7.15246 10.0328 7.27037 9.72883 7.23668C9.53685 7.21984 9.36086 7.20299 9.16887 7.16931C8.52892 7.06824 8.08095 6.59659 7.98495 5.90595C7.95296 5.73751 7.96896 5.55222 7.96896 5.36692C7.96896 5.2827 7.96896 5.19848 7.96896 5.1311C7.95296 5.1311 7.95296 5.1311 7.93696 5.1311C7.87296 5.40061 7.80897 5.90595 7.72897 6.19231C7.68098 6.37761 7.71297 6.51236 7.82497 6.64712C7.96896 6.83241 8.09695 7.05139 8.25694 7.23668C8.35293 7.3546 8.35293 7.45567 8.27293 7.57358C8.12894 7.77571 8.00095 7.99469 7.87296 8.19683C7.85696 8.23052 7.82497 8.26421 7.82497 8.33159C7.85696 8.31474 7.88896 8.2979 7.92096 8.28105C8.04895 8.17999 8.19294 8.07892 8.32093 7.96101C8.60891 7.69149 8.96089 7.64096 9.32886 7.62411C10.0648 7.60727 10.7048 7.92732 11.3767 8.17999C12.2087 8.48319 12.9766 8.88746 13.7766 9.27489C14.0485 9.40965 14.2085 9.61178 14.1765 9.94868C14.1765 9.96552 14.1765 9.98237 14.1765 9.98237C14.1765 9.98237 14.1925 9.99921 14.1925 10.0161C14.2085 9.99921 14.2245 9.99921 14.2405 9.98237C14.5605 9.66232 14.9285 9.59494 15.3284 9.71285C15.9524 9.8813 16.5284 10.2013 16.9763 10.6898C17.2003 10.9257 17.3443 11.1952 17.4243 11.5152C17.4563 11.65 17.5203 11.7679 17.5683 11.8858C17.5843 11.8858 17.5843 11.8858 17.6003 11.8858C17.6163 11.7847 17.6323 11.7005 17.6483 11.5826C17.7443 11.6331 17.8243 11.65 17.9043 11.7005C18.0323 11.8016 18.1602 11.9027 18.2722 12.0206C18.5122 12.2564 18.6402 12.5428 18.5282 12.9133C18.4322 13.2839 18.3842 13.6714 18.2882 14.0419C17.9683 15.2379 17.2483 16.0128 16.0804 16.3497C14.4325 16.8213 12.8646 16.5855 11.3767 15.7264C10.9927 15.5074 10.6088 15.3727 10.1928 15.3053C9.13687 15.12 8.08095 14.9179 7.00902 14.7326C6.70504 14.682 6.38507 14.6989 6.06509 14.6652C5.76111 14.6315 5.45713 14.5978 5.16915 14.5304C4.68918 14.4125 4.4972 14.2104 4.4012 13.6882C4.38521 13.5703 4.4012 13.4355 4.4332 13.3176C4.4652 13.1829 4.54519 13.166 4.67319 13.2165C4.84917 13.2502 4.92917 13.3681 4.97716 13.5534ZM12.4486 13.3008C12.4326 13.3008 12.4166 13.3008 12.4006 13.3176C11.3287 13.3513 10.2888 13.166 9.28086 12.846C8.86489 12.7112 8.48092 12.4922 8.20894 12.1216C8.19294 12.088 8.16094 12.088 8.12894 12.0543C8.11295 12.0543 8.09695 12.2059 8.09695 12.2227C8.14494 12.3406 8.19294 12.5933 8.24094 12.7112C8.32093 12.9133 8.30493 13.0144 8.14494 13.166C8.08095 13.2165 8.01695 13.2839 7.95296 13.3345C8.00095 13.3681 8.04895 13.3681 8.08095 13.3513C8.60891 13.1997 9.12088 13.2502 9.64884 13.4018C10.4008 13.6208 11.1527 13.7556 11.9207 13.8398C12.2247 13.8735 12.5446 13.924 12.8326 14.0251C13.3446 14.2272 13.8565 14.4799 14.3685 14.6989C14.5605 14.7831 14.7365 14.901 14.8325 15.1032C14.8485 15.1368 14.8805 15.1537 14.8805 15.1537C14.9605 14.9515 15.0405 14.6147 15.1205 14.4125C14.9125 14.4631 14.6885 14.4294 14.4805 14.3283C14.0485 14.1262 13.6166 13.9072 13.1686 13.7387C12.8966 13.6208 12.6886 13.4692 12.5286 13.1997C12.5126 13.166 12.4806 13.1323 12.4646 13.0818C12.3846 13.1323 12.3846 12.9976 12.4486 13.3008ZM22.5279 9.56125C22.5919 9.51072 22.6399 9.47703 22.6879 9.46018C22.7999 9.3928 22.8319 9.32542 22.7679 9.19067C22.7359 9.12329 22.7199 9.02222 22.7039 8.938C22.6079 8.51688 22.6559 8.12945 22.3839 7.8094C22.304 7.70833 22.288 7.62411 22.336 7.5062C22.384 7.38829 22.4319 7.27037 22.4639 7.13562C22.4479 7.13562 22.4479 7.11877 22.4319 7.11877C22.288 7.25353 21.92 7.37144 21.76 7.5062C22.256 8.09576 22.5439 8.75271 22.5279 9.56125Z" fill="#FF7384"/>
<g opacity="0.1">
<path opacity="0.1" fill-rule="evenodd" clip-rule="evenodd" d="M1.36159 8.61799C1.40958 8.50008 1.44158 8.38217 1.48958 8.24741C1.53757 8.38217 1.56957 8.50008 1.58557 8.61799C1.60157 8.75275 1.66556 8.82013 1.79355 8.83698C2.24152 8.90435 2.68949 8.97173 3.13746 9.03911C3.20146 9.05596 3.28145 9.02227 3.34545 9.00542C3.90541 8.71906 4.48137 8.4327 5.04133 8.14634C5.24931 8.04527 5.3933 7.87683 5.4413 7.641C5.52129 7.28726 5.61729 6.95037 5.71328 6.61348C5.71328 6.59663 5.72928 6.57979 5.72928 6.56294C5.72928 6.5461 5.72928 6.52925 5.72928 6.51241C5.61729 6.71454 5.53729 6.93353 5.4413 7.15251C5.24931 7.62416 4.91334 7.94421 4.46537 8.14634C4.0334 8.34848 3.56943 8.48324 3.10546 8.56746C2.67349 8.65168 2.24152 8.66853 1.84155 8.44955C1.79355 8.41586 1.72956 8.38217 1.69756 8.33164C1.55357 8.11265 1.45758 8.06212 1.2176 8.14634C1.07361 8.19688 0.945614 8.09581 0.961613 7.94421C0.993611 7.69154 1.02561 7.42202 1.0896 7.16935C1.1376 7.0009 1.2176 6.8493 1.29759 6.6977C1.32959 6.64717 1.39358 6.59663 1.44158 6.56294C1.82555 6.42819 2.11353 6.44503 2.35352 6.78192C2.36951 6.79877 2.38551 6.81561 2.40151 6.83246C2.44951 6.74823 2.43351 6.68085 2.38551 6.59663C2.00154 6.0576 1.24959 6.29343 1.05761 6.73139C0.945614 7.0009 0.849621 7.30411 0.785626 7.59047C0.753628 7.70838 0.753628 7.84314 0.785626 7.9779C0.86562 8.31479 1.1376 8.5843 1.36159 8.61799Z" fill="black"/>
<path opacity="0.1" fill-rule="evenodd" clip-rule="evenodd" d="M5.47331 2.78953C5.37731 2.8569 5.28132 3.10957 5.20132 3.17695C5.40931 3.26118 5.6013 3.16011 5.79328 3.21064C6.65722 3.39593 7.64915 3.46331 8.52909 3.3454C8.89707 3.29487 8.99306 3.1938 9.02506 2.82321C9.07305 2.82321 9.12105 2.80637 9.16905 2.78953C9.13705 2.99166 9.24904 3.12642 9.34503 3.26118C9.58502 3.59807 10.129 4.1371 10.353 4.49084C10.417 4.59191 10.481 4.67613 10.5769 4.72666C10.161 4.05288 9.53702 3.17695 9.39303 2.36841C9.26504 2.45263 9.15305 2.52001 9.05705 2.58739C9.02506 2.60423 8.99306 2.65477 8.94506 2.65477C8.84907 2.68846 8.73708 2.68846 8.62508 2.72215C7.66515 3.0422 6.59323 3.0422 5.63329 2.72215C5.6013 2.73899 5.5213 2.75584 5.47331 2.78953Z" fill="black"/>
<path opacity="0.1" fill-rule="evenodd" clip-rule="evenodd" d="M3.13742 5.97322C2.73744 6.02376 2.46546 5.80477 2.40147 5.46788C2.25748 5.83846 2.35347 6.12482 2.70545 6.29327C2.99343 6.42803 3.2974 6.41118 3.60138 6.3438C3.71337 6.32696 3.76137 6.25958 3.79337 6.14167C3.92136 5.4005 4.06535 4.97938 4.48132 4.38982C4.7213 4.03608 5.00928 3.74972 5.34526 3.49705C5.29726 3.39598 5.24927 3.31176 5.20127 3.21069C5.04128 3.34545 4.89729 3.5139 4.7533 3.69919C4.62531 3.88448 4.49732 4.08662 4.35333 4.25506C4.04935 4.59196 4.01735 4.77725 3.87336 5.19837C3.79337 5.41735 3.72937 5.61948 3.64938 5.83846C3.61738 5.93953 3.55339 5.97322 3.45739 5.97322C3.3454 5.95638 3.24941 5.95638 3.13742 5.97322Z" fill="black"/>
<path opacity="0.1" fill-rule="evenodd" clip-rule="evenodd" d="M1.93751 5.83836C2.0655 5.83836 2.14549 5.78782 2.20949 5.66991C2.24149 5.60253 2.27349 5.53515 2.32148 5.46777C2.0975 5.56884 1.85751 5.61937 1.60153 5.53515C1.60153 5.56884 1.60153 5.60253 1.60153 5.63622C1.61753 5.75413 1.74552 5.83836 1.93751 5.83836Z" fill="black"/>
<path opacity="0.1" fill-rule="evenodd" clip-rule="evenodd" d="M0.289644 10.7067C0.529628 10.8078 0.78561 10.8751 1.05759 10.9594C1.10559 10.8246 1.13759 10.7067 1.16958 10.5888H1.18558C1.16958 10.5719 1.13759 10.5551 1.10559 10.5383C0.881603 10.454 0.64162 10.3361 0.417635 10.2182C0.289644 10.1677 0.257647 10.0666 0.241648 9.93184C0.193651 9.44335 0.35364 9.14014 0.545626 8.71903C0.545626 8.70218 0.561625 8.70218 0.561625 8.68534C0.545626 8.68534 0.529628 8.66849 0.513629 8.66849C0.401636 8.61796 0.337641 8.65165 0.289644 8.76956C0.0656599 9.2749 0.0176633 9.66233 0.00166441 10.2014C-0.0143345 10.4203 0.0976577 10.6225 0.289644 10.7067Z" fill="black"/>
<path opacity="0.1" fill-rule="evenodd" clip-rule="evenodd" d="M4.17738 14.817C4.22538 14.497 4.17738 14.1937 3.98539 13.9074C3.8894 13.7726 3.76141 13.7053 3.60142 13.7221C3.44143 13.7389 3.26544 13.7558 3.10546 13.7726C3.07346 13.6716 3.12146 13.6379 3.20145 13.6042C3.39344 13.5368 3.58542 13.4694 3.76141 13.3852C4.14538 13.2168 4.22538 12.8462 3.9374 12.5261C3.77741 12.3408 3.58542 12.1555 3.40943 11.9703C3.45743 11.9534 3.52143 11.886 3.55342 11.9029C3.9054 12.1387 4.27337 12.3745 4.62535 12.6103C4.84933 12.762 4.88133 12.762 5.08932 12.5767C5.10532 12.5598 5.12131 12.543 5.13731 12.543C5.12131 12.5093 5.07332 12.4924 5.02532 12.4756C4.48136 12.4082 4.01739 12.1555 3.60142 11.7681C3.58542 11.7513 3.53743 11.7176 3.50543 11.7344C3.40943 11.7681 3.29744 11.9197 3.16945 11.9703C3.31344 12.2229 3.45743 12.4756 3.58542 12.7114C3.63342 12.7956 3.64942 12.8967 3.66542 12.9978C3.66542 13.0315 3.61742 13.0988 3.58542 13.0988C3.13745 13.2336 2.68949 13.301 2.24152 13.1999C1.74555 13.0988 1.26558 12.8967 0.817616 12.6609C0.689625 12.5935 0.62563 12.5093 0.641628 12.3745C0.641628 12.2061 0.673626 12.0376 0.689625 11.886C0.705624 11.8018 0.753621 11.785 0.817616 11.785C0.929608 11.785 1.0256 11.785 1.13759 11.785C1.15359 11.7681 1.15359 11.7513 1.15359 11.7513C1.13759 11.667 1.13759 11.5828 1.13759 11.4818C1.13759 11.4818 1.13759 11.4818 1.12159 11.4986C1.0896 11.4818 1.0736 11.4481 1.0416 11.4312C0.977605 11.3807 0.929608 11.3133 0.865613 11.2796C0.801617 11.3133 0.705624 11.2965 0.593632 11.2796C0.369648 11.2459 0.289653 11.3133 0.257655 11.5491C0.19366 12.3408 0.33765 13.0988 0.673626 13.8232C0.705624 13.9074 0.785618 13.9748 0.849614 14.0085C0.977605 14.0758 1.1056 14.0421 1.21759 13.9579C1.32958 13.8737 1.21759 13.7895 1.21759 13.7053C1.21759 13.6884 1.20159 13.6716 1.20159 13.6547C1.20159 13.5873 1.21759 13.5368 1.21759 13.4694C1.23359 13.4694 1.24959 13.4694 1.24959 13.4694C1.66556 14.1095 2.19352 14.5812 2.96147 14.7159C2.84947 14.8507 2.73748 14.8675 2.5295 14.8002C2.25752 14.6991 1.96954 14.6149 1.69755 14.497C1.45757 14.3959 1.28158 14.4464 1.12159 14.6486C1.21759 14.9686 1.44157 15.1876 1.80955 15.3223C2.59349 15.5919 3.32944 15.4403 4.03339 15.036C4.11339 14.9686 4.16138 14.8844 4.17738 14.817Z" fill="black"/>
<path opacity="0.1" fill-rule="evenodd" clip-rule="evenodd" d="M24 9.39291C23.728 9.9151 23.408 10.4036 23.0401 10.8584C22.9921 10.9089 22.9281 10.9763 22.8641 10.9932C22.3841 11.1111 21.8881 11.1785 21.3922 11.1785C20.8802 11.1785 20.3682 11.1448 19.8563 11.1279C19.5843 11.1111 19.3283 11.0605 19.1203 10.8416C18.9443 10.6731 18.7524 10.4878 18.4964 10.4541C18.3844 10.4373 18.2724 10.4204 18.1604 10.4204C18.0164 10.4204 17.9044 10.3531 17.8084 10.252C17.6004 9.99932 17.4245 9.72981 17.3765 9.39291C17.3445 9.14024 17.0565 8.88757 16.8165 8.88757C16.7045 8.88757 16.5765 9.24131 16.4645 9.22447C16.2725 9.22447 16.2245 9.32553 16.0965 9.14024C15.9206 8.85388 15.6966 8.6349 15.3766 8.70228C15.2966 8.71913 15.2326 8.73597 15.1526 8.73597C14.3687 8.61806 13.6007 8.44961 12.8648 8.14641C12.0968 7.8432 11.3609 7.27048 10.6409 6.84937C10.6409 7.06835 10.7529 7.40524 10.9129 7.47262C11.1849 7.62422 11.4569 7.77582 11.7449 7.89374C12.4168 8.19694 13.1048 8.50014 13.7767 8.80335C14.0647 8.92126 14.3367 9.03917 14.6406 9.1234C15.0086 9.22447 15.8086 9.14024 15.8246 9.03917C15.8726 9.1234 15.9046 9.32553 15.9366 9.39291C16.1125 9.72981 16.1605 9.67927 16.5125 9.62874C16.6725 9.59505 16.8485 9.29184 17.0405 9.24131C16.9765 9.29184 16.8485 9.71296 16.9605 9.9151C17.0565 10.0835 17.1525 10.2351 17.2485 10.3867C17.4085 10.6394 17.6324 10.791 17.9204 10.8416C18.1124 10.8752 18.3044 10.8921 18.5284 10.9258C18.4164 10.9763 18.3524 11.01 18.2884 11.0437C18.5284 11.2964 18.7844 11.5659 19.0243 11.8185C19.1203 11.9196 19.2483 11.9533 19.3763 11.9365C19.5363 11.9196 19.7123 11.9028 19.8723 11.8691C19.7923 12.0375 19.7923 12.1218 19.9203 12.2397C20.0163 12.3239 20.1443 12.3913 20.2723 12.425C20.4802 12.4755 20.7042 12.4923 20.9282 12.526C21.2002 12.5597 21.3922 12.4586 21.5202 12.2228C21.5522 12.1723 21.5842 12.1049 21.6162 12.0544C21.6322 12.0544 21.6322 12.0544 21.6482 12.0544C21.6322 12.1723 21.6322 12.2902 21.6162 12.4081C22.3041 12.6439 23.264 12.1554 23.552 11.4311C23.68 11.0942 23.792 10.7405 23.888 10.3699C23.936 10.033 23.984 9.71296 24 9.39291Z" fill="black"/>
<path opacity="0.1" fill-rule="evenodd" clip-rule="evenodd" d="M16.1124 16.3328C17.0084 16.0801 17.6483 15.5579 18.0323 14.7831C17.8883 15.0189 17.7123 15.221 17.4723 15.3726C16.3684 16.0801 15.2165 16.1138 14.0486 15.5411C13.9526 15.4906 13.8566 15.4737 13.7606 15.4569C13.2486 15.3053 12.7207 15.1537 12.2087 15.0021C11.6807 14.8505 11.1688 14.6652 10.6408 14.5304C10.0649 14.3788 9.4729 14.2609 8.88094 14.143C8.40097 14.0419 7.90501 13.9914 7.40904 13.9072C7.16906 13.8735 6.92907 13.8061 6.70509 13.7724C6.35311 13.7219 6.00114 13.6545 5.68116 13.5029C5.40918 13.3681 5.23319 13.1828 5.1852 12.8796C5.04121 13.0144 5.0732 13.3513 4.97721 13.5534C4.92921 13.3681 4.84922 13.2502 4.70523 13.1828C4.59324 13.1323 4.49724 13.166 4.46525 13.2839C4.43325 13.4018 4.41725 13.5366 4.43325 13.6545C4.52924 14.1767 4.70523 14.3788 5.20119 14.4967C5.48917 14.5809 5.80915 14.5978 6.09713 14.6315C6.40111 14.6652 6.72109 14.6483 7.04107 14.6989C7.63302 14.7999 8.22498 14.901 8.81694 15.0189C8.99293 15.0526 9.15292 15.0863 9.32891 15.12C9.63288 15.1705 9.92087 15.221 10.2248 15.2884C10.6408 15.3558 11.0248 15.4906 11.4088 15.7095C11.4728 15.7432 11.5368 15.7769 11.6007 15.8106C11.7447 15.878 11.8887 15.9454 12.0327 16.0127C13.3286 16.636 14.6885 16.7539 16.1124 16.3328Z" fill="black"/>
<path opacity="0.1" fill-rule="evenodd" clip-rule="evenodd" d="M8.20908 10.4206C8.08109 10.387 7.9531 10.3701 7.82511 10.3533C7.74512 10.3364 7.68112 10.3364 7.61713 10.3364C7.66512 10.3533 7.72912 10.3701 7.79311 10.387C7.9371 10.387 8.08109 10.4038 8.20908 10.4206Z" fill="black"/>
<path opacity="0.1" fill-rule="evenodd" clip-rule="evenodd" d="M16.0805 10.0162C16.0965 10.033 16.1286 10.0499 16.1606 10.0668C16.2248 10.1006 16.2889 10.1343 16.3531 10.1681C16.2569 10.1006 16.1606 10.0499 16.0644 9.99927C16.0644 9.99927 16.0644 9.99927 16.0805 10.0162Z" fill="black"/>
<path opacity="0.1" fill-rule="evenodd" clip-rule="evenodd" d="M3.13777 9.62891C3.12168 9.6628 3.08949 9.67974 3.07339 9.71363C3.10558 9.69669 3.12168 9.67974 3.15387 9.6628C3.13777 9.64585 3.13777 9.62891 3.13777 9.62891Z" fill="black"/>
<path opacity="0.1" fill-rule="evenodd" clip-rule="evenodd" d="M10.529 6.91665C10.481 6.88296 10.417 6.88296 10.369 6.88296C10.017 6.8998 9.66501 6.86611 9.34504 6.73136C8.72108 6.47869 8.32111 6.00703 8.09712 5.33325C8.08113 5.29956 8.04913 5.26587 8.03313 5.23218C8.01713 5.24902 8.01713 5.24902 8.00113 5.24902C8.00113 5.26587 8.00113 5.29956 8.00113 5.3164C8.00113 5.50169 7.98513 5.67014 8.01713 5.85543C8.11312 6.52922 8.56109 7.00087 9.20105 7.11878C9.39303 7.15247 9.56902 7.15247 9.76101 7.18616C10.065 7.21985 10.369 7.10194 10.6249 6.81558C10.5769 6.79873 10.561 6.93349 10.529 6.91665Z" fill="black"/>
<path opacity="0.1" fill-rule="evenodd" clip-rule="evenodd" d="M7.71304 6.32715C7.71304 6.47875 7.77704 6.61351 7.88903 6.73142C7.92103 6.76511 7.96903 6.81564 8.00102 6.84933C7.95303 6.76511 7.88903 6.69773 7.82504 6.61351C7.76104 6.51244 7.72904 6.42822 7.71304 6.32715Z" fill="black"/>
<path opacity="0.1" fill-rule="evenodd" clip-rule="evenodd" d="M5.72916 3.66564C5.80934 3.64875 5.88952 3.64875 5.95366 3.63187C5.87348 3.61498 5.80934 3.63187 5.72916 3.66564Z" fill="black"/>
<path opacity="0.1" fill-rule="evenodd" clip-rule="evenodd" d="M9.42488 10.1173C8.78493 10.0331 8.17697 9.88148 7.60101 9.59512C6.88106 9.22453 6.3051 8.70235 5.88913 7.97803C5.93713 8.12963 6.00112 8.26439 6.09711 8.39914C6.43309 8.90448 6.81706 9.37614 7.28103 9.76356C7.40902 9.88148 7.56901 9.98254 7.729 10.0162C8.38495 10.2015 9.05691 10.3531 9.72886 10.5216C10.2408 10.6563 10.7528 10.8079 11.2968 10.7069C11.3447 10.7069 11.6327 10.7406 11.7287 10.8248C11.7767 10.8585 11.8407 10.8922 11.8727 10.9258C12.2407 11.2964 12.6887 11.5828 13.1686 11.667C13.5366 11.7344 13.8886 11.7512 14.2085 11.9534C14.6565 12.2229 15.1365 12.4587 15.5845 12.7114C15.9364 12.9135 16.2884 12.9809 16.6724 12.8967C16.5284 12.7956 16.3844 12.7114 16.2404 12.6103C15.6324 12.1555 14.9285 11.886 14.2085 11.7175C13.6966 11.5996 13.1846 11.5154 12.7047 11.2459C12.3047 11.0101 11.9367 10.7911 11.6007 10.4879C11.4247 10.3363 11.2008 10.2521 10.9768 10.2352C10.8488 10.2184 10.7048 10.3026 10.5768 10.2857C10.1928 10.2352 9.80886 10.1678 9.42488 10.1173Z" fill="black"/>
<path opacity="0.1" fill-rule="evenodd" clip-rule="evenodd" d="M1.24963 10.7743C1.26567 10.7237 1.24963 10.6561 1.21756 10.6055C1.2336 10.6392 1.24963 10.673 1.24963 10.7068C1.24963 10.7405 1.24963 10.7574 1.24963 10.7912C1.24963 10.8081 1.24963 10.7912 1.24963 10.7743Z" fill="black"/>
</g>
<g opacity="0.1">
<path opacity="0.1" fill-rule="evenodd" clip-rule="evenodd" d="M21.2801 8.63496C21.1841 8.58442 21.0881 8.53389 20.9761 8.51704C20.8481 8.5002 20.7041 8.5002 20.5761 8.5002C20.3361 8.48335 20.1281 8.38228 19.9841 8.18015C19.7282 7.82641 19.7122 7.43898 19.8722 7.05155C19.9202 6.9168 20.0161 6.81573 20.0801 6.69782C20.1281 6.63044 20.0961 6.56306 20.0161 6.54621C19.9841 6.54621 19.9522 6.56306 19.9362 6.56306C19.6802 6.59675 19.4082 6.52937 19.1522 6.49568C18.6562 6.41146 18.1603 6.2767 17.6643 6.14194C17.0724 5.97349 16.6724 5.67029 16.2884 5.13126C16.2404 5.08073 16.2084 5.01335 16.1764 4.94597C16.0484 4.5417 15.9364 4.27218 16.0164 3.83422C16.0324 3.78369 16.0164 3.73315 16.0004 3.68262C15.9844 3.71631 15.9684 3.75 15.9524 3.76684C15.9044 3.85106 15.8564 3.96898 15.8404 4.07005C15.8244 4.67645 15.8244 5.13126 15.8084 5.73767C15.8084 5.85558 15.8724 5.93981 15.9844 5.97349C16.0964 6.00718 16.2084 6.02403 16.3204 6.05772C17.1683 6.31039 17.8723 6.54621 18.7202 6.79888C19.0242 6.88311 19.3282 7.00102 19.6162 6.86626C19.6642 6.84942 19.7122 6.83257 19.7442 6.81573C19.7442 6.83257 19.7602 6.83257 19.7602 6.84942C19.6962 6.9168 19.6162 6.96733 19.5522 7.03471C19.4082 7.16947 19.3122 7.32107 19.2802 7.52321C19.2642 7.62427 19.2642 7.72534 19.2642 7.84325C19.2802 7.92748 19.2962 8.02855 19.2802 8.11277C19.3122 8.36544 19.3762 8.60127 19.4722 8.83709C19.5042 8.88763 19.5522 8.955 19.6162 8.97185C19.9042 9.05607 20.1921 9.12345 20.4961 9.20767C20.6721 9.25821 20.8161 9.19083 20.9281 9.03923C20.9601 9.00554 20.9921 8.97185 21.0401 8.955C21.0561 8.97185 21.0561 8.97185 21.0721 8.98869C21.0241 9.25821 20.8961 9.47719 20.7361 9.69617C20.7681 9.69617 20.8001 9.69617 20.8321 9.66248C20.9121 9.61195 21.0081 9.52772 21.0561 9.4435C21.1521 9.2919 21.2481 9.10661 21.3281 8.93816C21.408 8.8034 21.3761 8.70233 21.2801 8.63496Z" fill="black"/>
<path opacity="0.1" fill-rule="evenodd" clip-rule="evenodd" d="M15.4725 5.26606C15.5045 5.01339 15.5045 4.74388 15.4725 4.49121C15.4885 4.74388 15.4885 5.01339 15.4725 5.26606Z" fill="black"/>
</g>
<path opacity="0.1" fill-rule="evenodd" clip-rule="evenodd" d="M14.8007 15.0867C14.7207 14.952 14.6247 14.8509 14.4967 14.7667C14.5607 14.8509 14.6087 14.9351 14.6727 15.0362C14.7367 15.1372 14.8487 15.1709 14.9447 15.1036C15.0087 15.053 15.0567 15.0193 15.1207 14.9688C15.2647 14.8677 15.2966 14.5814 15.2806 14.4129C15.2647 14.2613 15.1527 14.1939 15.0247 14.1603C14.6247 14.0255 14.2087 13.9244 13.8088 13.756C13.3448 13.5538 12.9288 13.3012 12.6248 12.8801C12.5288 12.7453 12.4648 12.6105 12.3209 12.6779C12.2409 12.7116 12.1449 12.7453 12.0489 12.7453C11.4729 12.7621 10.913 12.6779 10.353 12.56C9.64904 12.4253 8.96109 12.24 8.32114 11.8862C8.22514 11.8357 8.11315 11.802 8.00116 11.7515C8.04916 11.8525 8.09715 11.9368 8.14515 12.021C8.14515 12.021 8.14515 12.021 8.16115 12.021C8.19315 12.0378 8.20915 12.0547 8.24114 12.0884C8.51312 12.4758 8.8971 12.6779 9.31307 12.8127C10.337 13.1496 11.3769 13.3349 12.4328 13.2843C12.4488 13.2843 12.4648 13.2843 12.4808 13.2675C12.4169 12.9811 12.4169 13.1159 12.4808 13.0317C12.5128 13.0654 12.5288 13.1159 12.5448 13.1496C12.7048 13.4022 12.9128 13.5707 13.1848 13.6886C13.6328 13.8739 14.0487 14.076 14.4967 14.2782C14.7207 14.3792 14.9447 14.4129 15.1367 14.3624C15.0567 14.5477 14.9767 14.9014 14.8967 15.1036C14.8487 15.1372 14.8167 15.1036 14.8007 15.0867Z" fill="black"/>
<path opacity="0.1" fill-rule="evenodd" clip-rule="evenodd" d="M13.4567 0.734863C13.4567 0.751708 13.4407 0.751708 13.4407 0.768553C13.4407 0.785397 13.4407 0.785397 13.4407 0.802242C13.4247 1.07176 13.4727 1.32443 13.6327 1.56025C13.6967 1.66132 13.7607 1.76239 13.8247 1.84661C13.8407 1.8803 13.8727 1.91399 13.8887 1.94768C13.9047 1.96452 13.9047 1.98137 13.9207 1.99821C14.0967 2.26773 14.2887 2.55409 14.4806 2.8236C14.5446 2.90783 14.6406 2.97521 14.7366 3.02574C14.9606 3.10996 15.2006 3.17734 15.4246 3.26157C15.6326 3.32894 15.8086 3.27841 15.9205 3.09312C16.0485 2.90783 16.1605 2.70569 16.2565 2.5204C16.2565 2.5204 16.2565 2.5204 16.2405 2.50355C16.0645 2.68885 15.8565 2.78991 15.6166 2.84045C15.2966 2.90783 15.0086 2.85729 14.7686 2.63831C14.2247 2.14982 13.8567 1.50972 13.5367 0.835931C13.5207 0.785397 13.4887 0.768553 13.4567 0.734863Z" fill="black"/>
<path opacity="0.1" fill-rule="evenodd" clip-rule="evenodd" d="M18.8003 4.49091C18.6083 4.47406 18.4003 4.45722 18.2083 4.44038C18.1283 4.44038 17.8884 4.38984 17.7924 4.38984C17.8084 4.38984 17.8084 4.40669 17.8084 4.40669C18.0003 4.55829 18.2403 4.60882 18.4643 4.64251C18.6403 4.6762 18.8163 4.69305 18.9923 4.72673C19.1523 4.76042 19.2323 4.69305 19.3123 4.57513C19.4082 4.40669 19.4882 4.23824 19.5682 4.06979C19.6482 3.91819 19.6482 3.76659 19.5842 3.59814C19.5842 3.5813 19.5682 3.56445 19.5682 3.54761C19.5362 3.5813 19.5202 3.61499 19.5042 3.66552C19.4882 3.71605 19.4882 3.78343 19.4882 3.83397C19.4722 4.13717 19.2163 4.54144 18.8003 4.49091Z" fill="black"/>
<path fill-rule="evenodd" clip-rule="evenodd" d="M15.2806 0.296631C15.8886 0.296631 16.4645 0.397699 17.0405 0.582991C17.4405 0.717748 17.7764 0.970418 18.0484 1.32416C18.1124 1.40838 18.1444 1.42522 18.1924 1.52629C18.2084 1.59367 18.1764 1.64421 18.0964 1.64421C18.0484 1.64421 18.0004 1.64421 17.9524 1.64421C17.6964 1.57683 17.4405 1.72843 17.1845 1.77896C16.9125 1.8295 16.7845 1.62736 16.5605 1.42522C16.1285 1.02095 15.2166 0.296631 15.2806 0.296631Z" fill="#FF7384"/>
<path fill-rule="evenodd" clip-rule="evenodd" d="M11.3929 16.4509C11.2809 16.4004 11.1689 16.3498 11.0569 16.2993C9.77701 15.7603 8.22512 15.5244 6.86522 15.4065C5.93728 15.3223 4.81736 15.3055 3.96942 15.7603C3.24947 16.1477 2.44953 16.1477 1.68158 15.9456C1.72958 16.0635 1.87357 16.1814 1.98556 16.2656C2.44953 16.6193 2.59352 16.5014 2.7695 17.1415C2.97749 17.8827 3.55345 18.4723 4.2094 18.826C4.76936 19.1292 5.45732 19.3313 6.08127 19.4156C6.60924 19.4829 7.1692 19.4493 7.58517 19.8704C7.79315 20.0725 7.88915 20.3252 7.82515 20.6115C7.69716 21.1337 7.28119 22.7003 7.1692 23.2225C7.1212 23.4583 7.21719 23.6773 7.42518 23.711C7.66516 23.7615 8.35311 23.9636 8.6091 23.9973C8.75309 24.0142 8.84908 23.9468 8.91307 23.812C8.94507 23.7615 8.96107 23.711 8.97707 23.6436C9.40904 22.5655 10.193 20.3757 10.7849 19.3819C10.9929 19.045 11.2649 18.8597 11.6489 18.8092C12.1928 18.7418 12.2728 18.4217 12.6568 17.9838C12.7048 17.9332 12.7528 17.8827 12.8008 17.849C13.2808 17.5458 13.8407 17.4953 14.3847 17.3605C13.9047 17.2258 13.3608 17.1921 12.8488 17.0405C12.3688 16.872 11.8729 16.653 11.3929 16.4509ZM9.37704 16.5183C9.34504 16.4004 9.31305 16.2993 9.28105 16.1814C9.44104 16.2656 9.40904 16.3835 9.37704 16.5183ZM9.08906 16.4509C8.97707 16.3161 8.88108 16.2151 8.80108 16.114C8.78508 16.0972 8.76908 16.0635 8.73709 16.0298C8.97707 16.0298 9.08906 16.1645 9.08906 16.4509ZM8.00114 15.8445C8.09713 15.895 8.22512 15.9119 8.30512 15.9792C8.4971 16.1477 8.68909 16.3498 8.86508 16.5351C8.88108 16.552 8.89708 16.5688 8.92907 16.6193C8.83308 16.6193 8.76908 16.6193 8.72109 16.6025C8.36911 16.4677 8.14513 16.2151 7.96914 15.8782C7.98514 15.895 7.98514 15.8613 8.00114 15.8445ZM7.1692 15.7771C7.44118 16.0466 7.71316 16.3161 7.98514 16.5857C8.00114 16.6025 8.01714 16.6193 8.04913 16.653C7.71316 16.6699 6.91321 16.0298 6.83322 15.6929C6.97721 15.6592 7.0892 15.6929 7.1692 15.7771ZM7.90514 16.9731C7.55317 17.1584 7.20119 17.3605 6.80122 17.4279C6.27326 17.4953 5.7453 17.5626 5.21733 17.63C5.13734 17.6469 5.00935 17.6806 4.99335 17.5458C4.97735 17.4279 5.10534 17.4279 5.18534 17.3942C5.6813 17.2426 6.19326 17.2089 6.68923 17.1752C6.94521 17.1584 7.1692 17.1078 7.40918 17.0068C7.55317 16.9394 7.72916 16.9394 7.88915 16.9057C7.88915 16.9394 7.88915 16.9562 7.90514 16.9731ZM7.1212 16.7709C6.84922 16.9394 6.56124 17.0068 6.27326 17.0405C5.80929 17.0742 5.34532 17.1078 4.91335 17.2594C4.83336 17.2931 4.75337 17.3268 4.67337 17.3437C4.62537 17.3605 4.57738 17.3774 4.52938 17.3605C4.48138 17.3268 4.43339 17.2763 4.38539 17.2258C4.41739 17.1921 4.44939 17.1415 4.49738 17.1247C5.07334 16.9057 5.6653 16.7878 6.27326 16.7036C6.43325 16.6867 6.59324 16.653 6.76922 16.6362C6.91321 16.6193 7.04121 16.6193 7.1212 16.7709ZM6.76922 16.333C6.59324 16.3667 6.41725 16.4004 6.25726 16.4341C5.82529 16.5183 5.39332 16.5857 4.97735 16.6867C4.70537 16.7541 4.44939 16.872 4.1934 16.9731C4.16141 16.9899 4.11341 17.0068 4.08141 17.0236C4.04941 17.0236 3.98542 17.0068 3.96942 16.9899C3.96942 16.9394 3.96942 16.8889 4.00142 16.8383C4.01742 16.8046 4.06541 16.8046 4.09741 16.7878C4.65737 16.6193 5.20133 16.4341 5.76129 16.2825C5.96928 16.2319 6.17727 16.2319 6.40125 16.1982C6.43325 16.1982 6.46525 16.1982 6.49724 16.1814C6.64123 16.1308 6.67323 16.1477 6.76922 16.333ZM3.71344 16.3161C4.2574 16.114 4.81736 15.9119 5.37732 15.7266C5.47331 15.6929 5.60131 15.7097 5.7133 15.7266C5.90528 15.7266 6.11327 15.7434 6.30526 15.7603C6.36925 15.7603 6.43325 15.8108 6.49724 15.8276C6.49724 15.8445 6.49724 15.8613 6.48124 15.8782C6.44925 15.8782 6.43325 15.895 6.40125 15.895C5.50531 15.9456 4.65737 16.2151 3.84143 16.6193C3.71344 16.6867 3.68144 16.6699 3.60145 16.5014C3.53745 16.3835 3.63344 16.3498 3.71344 16.3161ZM3.02549 16.8889C3.15348 16.8552 3.24947 16.8215 3.36146 16.8215C3.39346 16.8215 3.44146 16.9057 3.47345 16.9394C3.44146 16.9731 3.39346 17.0236 3.36146 17.0236C3.24947 17.0405 3.13748 17.0236 3.02549 16.8889ZM3.36146 17.4953C3.44146 17.3774 3.50545 17.2594 3.66544 17.2594C3.68144 17.2594 3.71344 17.2763 3.72944 17.2763C3.72944 17.2763 3.72944 17.31 3.72944 17.3268C3.63344 17.3942 3.52145 17.4616 3.42546 17.529C3.40946 17.529 3.37746 17.5121 3.36146 17.4953ZM3.64944 17.9164C3.56945 17.8995 3.53745 17.7985 3.58545 17.7479C3.64944 17.6806 3.74544 17.6132 3.82543 17.5626C3.88943 17.529 3.95342 17.5795 3.95342 17.6469C3.93742 17.7816 3.74544 17.9501 3.64944 17.9164ZM4.11341 18.3375C4.00142 18.3375 3.92142 18.2701 3.92142 18.1691C3.92142 18.0343 4.06541 17.8827 4.1934 17.8659C4.3054 17.8659 4.38539 17.9332 4.38539 18.0511C4.38539 18.1859 4.2574 18.3207 4.11341 18.3375ZM4.52938 18.5565C4.3214 18.4891 4.3054 18.4049 4.41739 18.2364C4.49738 18.1354 4.57738 18.0511 4.73737 18.068C4.67337 18.2364 4.60937 18.4049 4.52938 18.5565ZM4.88136 18.6407C4.96135 18.3207 5.24933 18.1017 5.50531 18.1017C5.36132 18.2701 5.24933 18.4386 5.10534 18.5902C5.07334 18.6407 4.97735 18.6239 4.88136 18.6407ZM5.56931 18.9102C5.48931 18.8765 5.42532 18.826 5.36132 18.7923C5.48931 18.4554 6.19326 17.7479 6.43325 17.7311C6.14527 18.1354 5.85729 18.5059 5.56931 18.9102ZM5.88929 19.0281C6.14527 18.506 6.49724 18.0848 6.94521 17.7648C6.68923 18.1691 6.41725 18.5733 6.16127 18.9776C6.08127 19.0955 6.06527 19.0955 5.88929 19.0281ZM6.65723 19.045C6.62523 19.0787 6.56124 19.0787 6.51324 19.0955C6.49724 19.045 6.46525 18.9776 6.48124 18.9439C6.56124 18.7755 6.64123 18.6239 6.73723 18.4723C7.00921 18.068 7.34518 17.7311 7.72916 17.4447C7.76115 17.411 7.80915 17.411 7.84115 17.3942C7.84115 17.411 7.85715 17.4279 7.85715 17.4447C7.77715 17.5121 7.71316 17.5795 7.63316 17.6469C7.26519 18.0006 6.99321 18.4386 6.75323 18.8934C6.73723 18.9271 6.70523 18.9944 6.65723 19.045ZM7.31319 18.9608C7.23319 19.0787 7.1372 19.1629 6.97721 19.0955C7.00921 19.0281 7.0412 18.9608 7.0892 18.8934C7.48917 18.388 7.88915 17.8827 8.28912 17.3605C8.40111 17.2089 8.4971 17.0573 8.62509 16.9225C8.67309 16.872 8.73709 16.8383 8.78508 16.8046C8.80108 16.8215 8.81708 16.8383 8.83308 16.8552C8.73709 17.0068 8.65709 17.1752 8.5611 17.31C8.12913 17.8659 7.71316 18.4049 7.31319 18.9608ZM7.74516 19.0955C7.72916 19.1124 7.71316 19.146 7.69716 19.146C7.68116 19.1629 7.63316 19.1629 7.63316 19.1629C7.61716 19.146 7.58517 19.1124 7.60117 19.0787C7.61716 19.0281 7.63316 18.9776 7.64916 18.9439C8.06513 18.3375 8.4811 17.7311 8.91307 17.1415C8.92907 17.1247 8.92907 17.1078 8.94507 17.091C8.96107 17.1078 8.97707 17.1078 8.97707 17.1247C8.96107 17.1752 8.94507 17.2258 8.92907 17.2763C8.6091 17.9332 8.22512 18.5565 7.74516 19.0955ZM8.25712 19.1629C8.19312 19.2471 8.11313 19.2471 8.04913 19.146C8.43311 18.7418 8.68909 18.2364 8.92907 17.7311C9.04107 17.5121 9.12106 17.2931 9.21705 17.0742C9.24905 17.0236 9.28105 16.9731 9.32905 16.9057C9.34504 16.9057 9.36104 16.9057 9.37704 16.9225C9.37704 16.9731 9.39304 17.0405 9.37704 17.091C9.18506 17.8827 8.76908 18.5565 8.25712 19.1629ZM9.80901 16.8889C9.72902 17.2763 9.68102 17.6637 9.56903 18.0343C9.42504 18.5396 9.08906 18.8934 8.72109 19.2303C8.68909 19.264 8.64109 19.264 8.5931 19.2808C8.5771 19.264 8.5611 19.2471 8.5451 19.2303C8.5771 19.1629 8.5931 19.0787 8.64109 19.045C9.12106 18.6576 9.40904 18.1522 9.50503 17.529C9.53703 17.31 9.60103 17.0742 9.63302 16.8552C9.64902 16.7878 9.66502 16.7204 9.74502 16.7541C9.79301 16.7709 9.82501 16.8552 9.80901 16.8889ZM9.79301 16.4846C9.77701 16.5183 9.72902 16.5351 9.69702 16.5351C9.68102 16.5351 9.64902 16.4846 9.63302 16.4509C9.61703 16.3835 9.61703 16.3161 9.60103 16.2488C9.61703 16.2319 9.63302 16.2319 9.63302 16.2151C9.69702 16.2488 9.76102 16.2656 9.79301 16.3161C9.84101 16.3498 9.80901 16.4341 9.79301 16.4846ZM10.001 17.5626C9.969 17.5458 9.969 17.4447 9.985 17.411C10.065 17.1584 10.145 16.9057 10.241 16.6699C10.273 16.5688 10.321 16.4509 10.449 16.4846C10.561 16.5014 10.657 16.6362 10.657 16.8046C10.641 16.8383 10.625 16.9057 10.593 16.9562C10.481 17.1415 10.353 17.3268 10.241 17.4953C10.209 17.529 10.193 17.5795 10.145 17.5795C10.113 17.5795 10.033 17.5963 10.001 17.5626ZM10.209 17.8659C10.241 17.8153 10.257 17.7816 10.289 17.7479C10.481 17.4616 10.657 17.1752 10.8489 16.9057C10.9609 16.7373 11.0249 16.7204 11.2009 16.7709C11.3129 16.8046 11.4089 16.8383 11.5209 16.872C11.5369 16.872 11.5369 16.8889 11.5529 16.8889C11.4249 17.31 10.7049 17.8322 10.209 17.8659ZM12.0969 17.3942C11.7609 17.7985 11.3449 18.0175 10.8169 17.9669C10.8969 17.9164 10.9609 17.8827 11.0409 17.8322C11.3289 17.6637 11.5849 17.4447 11.7449 17.1415C11.8249 17.0068 11.9369 16.9899 12.0969 17.1078C12.1928 17.1752 12.1928 17.2594 12.0969 17.3942Z" fill="#93C6E7"/>
</svg>
