<svg width="24" height="24" viewBox="0 0 24 24" fill="none" xmlns="http://www.w3.org/2000/svg">
<path d="M18.532 24.0001C18.7719 23.6004 18.8039 17.4605 19.0279 16.741C19.2518 16.0215 19.5558 11.7204 19.5558 11.7204C19.4598 15.0142 20.0997 18.0042 20.0997 18.0042C19.9237 18.7237 20.1317 24.0001 20.1317 24.0001H23.9709C24.1149 17.9242 23.667 18.8356 23.859 18.1161C24.0669 17.3966 23.9549 11.8643 23.651 11.3526C23.3471 10.841 23.715 8.60247 22.8032 6.39595C21.8753 4.18943 19.2678 4.06152 19.0919 4.02954C18.9159 3.99756 18.164 3.42195 17.3482 3.05419C16.5323 2.68644 15.3646 2.36665 15.3646 2.36665C14.9646 2.15879 14.7887 1.42329 14.7247 0.831686C14.6607 0.352008 14.2768 0.000244141 13.8288 0.000244141H10.1495C9.70161 0.000244141 9.31768 0.352008 9.25369 0.831686C9.17371 1.42329 9.01374 2.15879 8.61381 2.36665C8.61381 2.36665 7.44603 2.68644 6.63019 3.05419C5.81434 3.42195 5.06248 3.99756 4.88651 4.02954C4.71054 4.06152 2.10303 4.18943 1.17521 6.39595C0.247379 8.60247 0.647304 10.841 0.343361 11.3526C0.0394177 11.8643 -0.0725613 17.3806 0.1354 18.1161C0.343361 18.8356 -0.104555 17.9402 0.0234207 24.0001H3.8627C3.8627 24.0001 4.07066 18.7237 3.8947 18.0042C3.8947 18.0042 4.55057 15.0142 4.4386 11.7204C4.4386 11.7204 4.74254 16.0215 4.9665 16.741C5.19045 17.4605 5.22245 23.6164 5.4624 24.0001H18.532Z" fill="#FFC49C"/>
<g opacity="0.35">
<path opacity="0.35" d="M9.84572 21.2496C10.1817 19.2989 8.96588 16.8366 8.40599 15.6854C7.86209 14.5341 6.2144 14.5341 6.02243 13.7347C5.81447 12.9352 4.50272 12.1997 4.50272 12.1997C4.50272 12.1997 4.77467 16.0211 4.99862 16.7407C5.22258 17.4602 5.25458 23.616 5.49453 23.9998H9.33381C9.47778 23.2003 9.66975 22.193 9.84572 21.2496Z" fill="#FF5F6B"/>
</g>
<path opacity="0.35" d="M14.6448 24H18.5321C18.7081 23.7122 18.7721 20.3065 18.884 18.2439C18.7561 19.2672 17.7962 20.7222 17.4923 21.122C16.9484 21.8415 15.5087 22.1133 15.0288 22.625C14.7888 22.8808 14.6928 23.4724 14.6448 24Z" fill="#FF5F6B"/>
<path opacity="0.35" d="M12.0053 3.18186C11.9573 4.04528 11.5574 3.88539 13.4291 4.1732C15.3007 4.47699 15.9886 5.56426 17.1724 5.38838C17.9882 5.26047 18.804 4.71683 19.284 4.04528C19.188 4.02929 19.124 4.02929 19.092 4.02929C18.916 3.99731 18.1642 3.4217 17.3483 3.05395C16.5325 2.6862 15.3647 2.36641 15.3647 2.36641C14.9648 2.15855 14.7888 1.42304 14.7248 0.831441C14.6608 0.351764 14.2769 0 13.829 0H11.4774C11.4774 0.0159893 12.0533 2.31844 12.0053 3.18186Z" fill="#FF5F6B"/>
<path d="M13.3491 3.22986C13.6318 3.22986 13.861 3.00078 13.861 2.7182C13.861 2.43562 13.6318 2.20654 13.3491 2.20654C13.0663 2.20654 12.8372 2.43562 12.8372 2.7182C12.8372 3.00078 13.0663 3.22986 13.3491 3.22986Z" fill="#FF7384"/>
<path d="M6.35841 9.9612C6.87967 9.9612 7.30223 9.53884 7.30223 9.01783C7.30223 8.49682 6.87967 8.07446 6.35841 8.07446C5.83715 8.07446 5.41458 8.49682 5.41458 9.01783C5.41458 9.53884 5.83715 9.9612 6.35841 9.9612Z" fill="#FF7384"/>
<path d="M3.23897 6.53995C3.45101 6.53995 3.6229 6.36814 3.6229 6.1562C3.6229 5.94427 3.45101 5.77246 3.23897 5.77246C3.02693 5.77246 2.85504 5.94427 2.85504 6.1562C2.85504 6.36814 3.02693 6.53995 3.23897 6.53995Z" fill="#FF7384"/>
<path d="M5.97453 15.11C6.18657 15.11 6.35846 14.9382 6.35846 14.7263C6.35846 14.5143 6.18657 14.3425 5.97453 14.3425C5.7625 14.3425 5.59061 14.5143 5.59061 14.7263C5.59061 14.9382 5.7625 15.11 5.97453 15.11Z" fill="#FF7384"/>
<path d="M9.79773 11.6561C10.0363 11.6561 10.2297 11.4629 10.2297 11.2244C10.2297 10.986 10.0363 10.7927 9.79773 10.7927C9.55919 10.7927 9.36581 10.986 9.36581 11.2244C9.36581 11.4629 9.55919 11.6561 9.79773 11.6561Z" fill="#FF7384"/>
<path d="M15.0608 17.8438C15.5114 17.8438 15.8766 17.4787 15.8766 17.0283C15.8766 16.578 15.5114 16.2129 15.0608 16.2129C14.6102 16.2129 14.2449 16.578 14.2449 17.0283C14.2449 17.4787 14.6102 17.8438 15.0608 17.8438Z" fill="#FF7384"/>
<path d="M19.9079 9.89742C20.5705 9.89742 21.1077 9.36768 21.1077 8.71421C21.1077 8.06075 20.5705 7.53101 19.9079 7.53101C19.2453 7.53101 18.7081 8.06075 18.7081 8.71421C18.7081 9.36768 19.2453 9.89742 19.9079 9.89742Z" fill="#FF7384"/>
<path d="M6.67833 23.5042C7.17309 23.5042 7.57417 23.1033 7.57417 22.6088C7.57417 22.1143 7.17309 21.7134 6.67833 21.7134C6.18358 21.7134 5.7825 22.1143 5.7825 22.6088C5.7825 23.1033 6.18358 23.5042 6.67833 23.5042Z" fill="#FF7384"/>
<path d="M8.16608 18.9793C8.49297 18.9793 8.75797 18.7145 8.75797 18.3877C8.75797 18.061 8.49297 17.7961 8.16608 17.7961C7.83919 17.7961 7.57419 18.061 7.57419 18.3877C7.57419 18.7145 7.83919 18.9793 8.16608 18.9793Z" fill="#FF7384"/>
<path d="M16.8525 23.504C17.2059 23.504 17.4923 23.2176 17.4923 22.8644C17.4923 22.5112 17.2059 22.2249 16.8525 22.2249C16.4991 22.2249 16.2126 22.5112 16.2126 22.8644C16.2126 23.2176 16.4991 23.504 16.8525 23.504Z" fill="#FF7384"/>
<path d="M17.9242 20.0026C18.1628 20.0026 18.3561 19.8093 18.3561 19.5709C18.3561 19.3324 18.1628 19.1392 17.9242 19.1392C17.6857 19.1392 17.4923 19.3324 17.4923 19.5709C17.4923 19.8093 17.6857 20.0026 17.9242 20.0026Z" fill="#FF7384"/>
<path d="M17.5243 15.4938C17.7363 15.4938 17.9082 15.322 17.9082 15.1101C17.9082 14.8981 17.7363 14.7263 17.5243 14.7263C17.3123 14.7263 17.1404 14.8981 17.1404 15.1101C17.1404 15.322 17.3123 15.4938 17.5243 15.4938Z" fill="#FF7384"/>
<path d="M19.9079 5.80435C20.1199 5.80435 20.2918 5.63254 20.2918 5.42061C20.2918 5.20867 20.1199 5.03687 19.9079 5.03687C19.6958 5.03687 19.5239 5.20867 19.5239 5.42061C19.5239 5.63254 19.6958 5.80435 19.9079 5.80435Z" fill="#FF7384"/>
</svg>
