<svg width="24" height="24" viewBox="0 0 24 24" fill="none" xmlns="http://www.w3.org/2000/svg">
<g clip-path="url(#clip0_426_435)">
<path d="M4.20797 8.57623C4.20797 8.57623 5.27997 10.3522 6.51197 10.3362C7.74397 10.3202 9.08797 9.68023 8.52797 7.07223C7.91997 4.22423 2.23997 3.10423 0.495973 9.47223C-1.29603 15.9522 2.20797 20.1122 3.77597 20.1122C6.15997 20.1122 7.79197 18.3202 7.58397 15.8882C7.50397 14.9602 6.89597 13.4882 6.33597 13.5202C5.77597 13.5522 4.51197 14.2562 3.79197 15.7282C3.79197 15.7282 3.64797 15.6802 3.88797 15.0402C4.12797 14.3842 4.63997 14.0642 4.55997 13.9042C4.46397 13.7442 2.89597 14.2882 2.43197 13.9842C2.43197 13.9842 2.83197 13.7282 3.32797 13.7122C3.82397 13.6962 5.16797 13.6322 5.34397 13.5362C5.53597 13.4242 5.99997 13.2802 6.12797 12.5122C6.25597 11.7602 6.23997 10.6882 6.23997 10.6882C6.23997 10.6882 5.35997 10.4802 4.97597 10.0002C4.97597 10.0002 4.84797 9.80823 4.25597 9.71223C3.66397 9.60023 3.21597 9.53623 2.92797 9.26423C2.92797 9.26423 3.24797 9.28023 3.61597 9.39223C3.96797 9.48823 4.46397 9.52023 4.46397 9.52023C4.46397 9.52023 3.99997 8.73623 4.20797 8.57623Z" fill="#FF7384"/>
<path d="M19.792 8.57577C19.792 8.57577 18.72 10.3518 17.488 10.3358C16.256 10.3198 14.912 9.67977 15.472 7.07177C16.08 4.23977 21.76 3.11977 23.504 9.47177C25.296 15.9518 21.792 20.1118 20.224 20.1118C17.584 20.1118 16.208 18.3198 16.416 15.8878C16.496 14.9598 17.104 13.4878 17.664 13.5198C18.224 13.5518 19.488 14.2558 20.208 15.7278C20.208 15.7278 20.352 15.6798 20.112 15.0398C19.872 14.3838 19.36 14.0638 19.44 13.9038C19.536 13.7438 21.104 14.2878 21.568 13.9838C21.568 13.9838 21.168 13.7278 20.672 13.7118C20.176 13.6958 18.832 13.6318 18.656 13.5358C18.464 13.4238 18 13.2798 17.872 12.5118C17.744 11.7598 17.76 10.6878 17.76 10.6878C17.76 10.6878 18.64 10.4798 19.024 9.99977C19.024 9.99977 19.152 9.80777 19.744 9.71177C20.336 9.59977 20.784 9.53577 21.072 9.26377C21.072 9.26377 20.752 9.27977 20.384 9.39177C20.032 9.48777 19.536 9.51977 19.536 9.51977C19.536 9.51977 20 8.73577 19.792 8.57577Z" fill="#FF7384"/>
<path d="M10.912 10.5761V11.0241C10.912 11.0241 9.98402 11.0561 9.74402 11.1201C9.50402 11.1841 9.02402 11.2001 9.02402 11.2001C9.02402 11.2001 8.76802 11.9361 8.49602 12.5121C8.22402 13.0881 7.96802 13.5361 7.76002 13.7441C7.55202 13.9521 7.47202 14.3041 7.47202 14.5281L7.32802 14.3041C7.32802 14.3041 7.39202 13.9201 7.47202 13.8401C7.47202 13.8401 7.26402 13.9681 7.07202 13.9521L6.97602 13.7601C6.97602 13.7601 7.55202 13.6961 7.71202 13.4241C7.87202 13.1521 8.27202 12.6881 8.40002 12.2241C8.52802 11.7761 8.80002 11.2161 8.80002 11.2161C8.80002 11.2161 8.54402 11.4081 8.04802 11.4721C7.55202 11.5361 7.77602 11.4561 7.55202 11.5361C7.31202 11.6161 6.65602 11.5681 6.46402 11.4721V11.2801C6.46402 11.2801 7.18402 11.2961 7.44002 11.1681C7.44002 11.1681 7.23202 10.9281 6.46402 11.0081V10.8161C6.46402 10.8161 7.44002 10.6561 7.68002 10.9281C7.68002 10.9281 8.08002 10.9761 8.11202 10.9121C8.14402 10.8481 7.87202 10.6721 7.88802 10.1761L8.04802 10.0801C8.04802 10.0801 8.20802 10.7681 8.36802 10.8001C8.36802 10.8001 8.52802 10.7841 8.80002 10.7361C9.07202 10.6881 9.07202 10.7681 9.79202 10.6881C10.496 10.6241 10.912 10.5761 10.912 10.5761Z" fill="#93C6E7"/>
<path d="M6.43201 11.6162V11.9522C6.43201 11.9522 6.72001 12.0802 6.73601 12.1602H6.36801L6.30401 12.5762H6.51201L6.14401 13.1202H6.51201C6.51201 13.1202 7.45601 12.2562 8.19201 12.2082L8.36801 11.6322C8.36801 11.6322 7.50401 11.8562 7.07201 11.8242C6.65601 11.7922 6.43201 11.6162 6.43201 11.6162Z" fill="#FF7384"/>
<path d="M8.04805 12.5923C8.04805 12.5923 7.74405 13.1043 7.56805 13.2803C7.39205 13.4563 7.08805 13.6483 6.91205 13.6483L6.68805 13.2803C6.68805 13.2803 6.88005 13.0403 7.16805 12.8323C7.45605 12.6243 7.85605 12.4003 7.92005 12.4323C7.98405 12.4643 8.04805 12.5923 8.04805 12.5923Z" fill="#FF7384"/>
<path d="M7.72806 14.2082V15.3282C7.72806 15.3282 8.80006 15.5682 8.99206 16.2882C9.18406 17.0082 9.00806 18.9282 9.13606 20.3362C9.26406 21.7602 9.36006 23.9842 9.36006 23.9842H10.6081C10.6081 23.9842 10.4321 20.8802 10.4801 18.7202C10.5281 16.5602 10.6881 15.7922 10.4001 14.9442C10.1121 14.0962 9.23206 13.4722 8.52806 12.9282C8.51206 12.9442 8.46406 13.5362 7.72806 14.2082Z" fill="#FF7384"/>
<path d="M9.13604 11.472L8.92804 12.096C8.92804 12.096 10.448 11.936 11.104 12.448L11.312 24H12.56L12.272 12.416C12.272 12.288 12.304 12.16 12.368 12.064C12.448 11.952 12.56 11.856 12.768 11.84C13.216 11.808 14.128 12.384 15.088 12.448C16.048 12.512 16.32 12.4 16.592 12.512C16.88 12.624 17.6 13.12 17.6 13.12V12.848C17.6 12.848 17.024 12.464 16.944 12.304C16.864 12.144 17.392 12.16 17.392 12.16L17.376 11.872L17.056 11.856L17.184 11.744L16.912 11.616L16.704 11.792C16.704 11.792 15.68 11.936 15.232 11.904C14.768 11.872 13.568 11.344 13.024 11.36C12.496 11.376 12.304 11.36 12.304 11.36L12.08 0H10.752L11.2 11.424L9.13604 11.472Z" fill="#FF7384"/>
<path d="M12.864 23.9999H13.856L13.76 12.3839C13.76 12.3839 13.52 12.3519 13.232 12.1919C12.944 12.0479 12.704 12.1439 12.704 12.1439L12.864 23.9999Z" fill="#93C6E7"/>
<path d="M13.7441 11.248C13.7441 11.248 13.2001 11.072 12.7041 11.136V11.008H12.4481V10.48H12.6721L12.4801 0H13.8241L13.7441 10.48C13.7441 10.48 15.0401 10.864 15.4561 11.072C15.8721 11.28 16.0481 11.376 16.2401 11.344C16.4321 11.312 16.3681 11.088 16.4001 10.864C16.4321 10.64 16.5761 10.448 16.5761 10.448L16.8481 10.592C16.8481 10.592 16.6561 10.864 16.6881 11.088C16.7041 11.216 17.1201 11.04 17.3121 10.992C17.5041 10.96 17.6481 10.976 17.6481 10.976C17.6481 10.976 17.6001 11.136 17.6161 11.2C17.6161 11.2 17.0561 11.216 16.9921 11.344C16.9281 11.456 17.5041 11.696 17.5041 11.696L17.4721 11.856C17.4721 11.856 16.9281 11.504 16.7361 11.536C16.5441 11.568 16.1441 11.76 15.6641 11.632C15.1841 11.504 13.7441 11.008 13.7441 11.008V11.248Z" fill="#93C6E7"/>
<path d="M17.1999 13.2163C17.1999 13.2163 16.6719 12.5603 15.5359 12.7363C15.5359 12.7363 14.8959 13.9043 14.8959 14.7363C14.8959 15.5683 14.8959 24.0003 14.8959 24.0003H15.9839L16.2559 17.4563C16.2559 17.4563 15.6319 16.5443 16.0479 14.9123C16.3359 13.7603 17.1999 13.2163 17.1999 13.2163Z" fill="#FF7384"/>
<path opacity="0.1" d="M8.04805 12.5923C8.04805 12.5923 7.74405 13.1043 7.56805 13.2803C7.39205 13.4563 7.08805 13.6483 6.91205 13.6483L6.68805 13.2803C6.68805 13.2803 6.88005 13.0403 7.16805 12.8323C7.45605 12.6243 7.85605 12.4003 7.92005 12.4323C7.98405 12.4643 8.04805 12.5923 8.04805 12.5923Z" fill="black"/>
<path opacity="0.1" d="M7.72806 14.2082V15.3282C7.72806 15.3282 8.80006 15.5682 8.99206 16.2882C9.18406 17.0082 9.00806 18.9282 9.13606 20.3362C9.26406 21.7602 9.36006 23.9842 9.36006 23.9842H10.6081C10.6081 23.9842 10.4321 20.8802 10.4801 18.7202C10.5281 16.5602 10.6881 15.7922 10.4001 14.9442C10.1121 14.0962 9.23206 13.4722 8.52806 12.9282C8.51206 12.9442 8.46406 13.5362 7.72806 14.2082Z" fill="black"/>
<path opacity="0.1" d="M17.1999 13.2163C17.1999 13.2163 16.6719 12.5603 15.5359 12.7363C15.5359 12.7363 14.8959 13.9043 14.8959 14.7363C14.8959 15.5683 14.8959 24.0003 14.8959 24.0003H15.9839L16.2559 17.4563C16.2559 17.4563 15.6319 16.5443 16.0479 14.9123C16.3359 13.7603 17.1999 13.2163 17.1999 13.2163Z" fill="black"/>
</g>
<defs>
<clipPath id="clip0_426_435">
<rect width="24" height="24" fill="white"/>
</clipPath>
</defs>
</svg>
