<svg width="76" height="20" viewBox="0 0 76 20" fill="none" xmlns="http://www.w3.org/2000/svg">
<path d="M2.79492 10.9062H4.24219L5.81836 14H7.82227L6.04102 10.6426C7.01367 10.2617 7.57617 9.32422 7.57617 8.24023C7.57617 6.57031 6.43359 5.54492 4.57617 5.54492H1.02539V14H2.79492V10.9062ZM2.79492 6.92773H4.33008C5.20898 6.92773 5.75977 7.44336 5.75977 8.26367C5.75977 9.10156 5.23828 9.58789 4.34766 9.58789H2.79492V6.92773ZM13.1543 12.1777C12.9727 12.6172 12.5098 12.8633 11.8359 12.8633C10.9453 12.8633 10.3828 12.248 10.3594 11.2637V11.1758H14.7949V10.666C14.7949 8.62695 13.6699 7.4082 11.7656 7.4082C9.84375 7.4082 8.66016 8.70898 8.66016 10.8066C8.66016 12.8926 9.82031 14.1348 11.7891 14.1348C13.3711 14.1348 14.4902 13.3789 14.7422 12.1777H13.1543ZM11.7715 8.67969C12.5684 8.67969 13.084 9.23047 13.1191 10.1152H10.3652C10.4238 9.24805 10.9805 8.67969 11.7715 8.67969ZM17.9648 14.0996C18.8027 14.0996 19.5059 13.7422 19.8398 13.1445H19.9453V14H21.5977V9.59375C21.5977 8.2168 20.6309 7.4082 18.9199 7.4082C17.2969 7.4082 16.2012 8.15234 16.0898 9.33594H17.6602C17.8008 8.93164 18.2109 8.71484 18.8262 8.71484C19.5293 8.71484 19.916 9.03711 19.916 9.59375V10.127L18.3516 10.2207C16.7461 10.3145 15.8496 10.9941 15.8496 12.1602C15.8496 13.3379 16.7227 14.0996 17.9648 14.0996ZM18.5273 12.8516C17.9355 12.8516 17.5195 12.5527 17.5195 12.0547C17.5195 11.5801 17.877 11.3047 18.6094 11.2578L19.916 11.1699V11.6504C19.916 12.3301 19.3184 12.8516 18.5273 12.8516ZM25.5879 14.0996C26.4844 14.0996 27.2168 13.6836 27.5625 12.9863H27.668V14H29.3203V5.08203H27.6152V8.58008H27.5156C27.1816 7.86523 26.4609 7.44336 25.5879 7.44336C23.9648 7.44336 22.957 8.71484 22.957 10.7656C22.957 12.8223 23.959 14.0996 25.5879 14.0996ZM26.168 8.82617C27.0762 8.82617 27.6328 9.57031 27.6328 10.7773C27.6328 11.9844 27.082 12.7227 26.168 12.7227C25.2539 12.7227 24.709 11.9902 24.709 10.7715C24.709 9.55859 25.2598 8.82617 26.168 8.82617ZM36.123 14V10.6719H39.5625V9.27148H36.123V7.00391H39.8906V5.54492H34.3535V14H36.123ZM47.2031 7.54883H45.498V11.2754C45.498 12.1602 45.041 12.7051 44.1914 12.7051C43.4062 12.7051 43.002 12.2422 43.002 11.3281V7.54883H41.2969V11.75C41.2969 13.25 42.1641 14.1348 43.5586 14.1348C44.5371 14.1348 45.1406 13.7129 45.4453 12.9629H45.5508V14H47.2031V7.54883ZM48.9727 14H50.6777V5.08203H48.9727V14ZM52.5117 14H54.2168V5.08203H52.5117V14Z" fill="#059B5C"/>
<path d="M60.1667 10H71.8334" stroke="#059B5C" stroke-width="1.25" stroke-linecap="round" stroke-linejoin="round"/>
<path d="M68.5 13.3333L71.8333 10" stroke="#059B5C" stroke-width="1.25" stroke-linecap="round" stroke-linejoin="round"/>
<path d="M68.5 6.66669L71.8333 10" stroke="#059B5C" stroke-width="1.25" stroke-linecap="round" stroke-linejoin="round"/>
</svg>
