<svg width="96" height="20" viewBox="0 0 96 20" fill="none" xmlns="http://www.w3.org/2000/svg">
<path d="M9.168 16L6.752 12.56C6.45333 12.5813 6.21867 12.592 6.048 12.592H3.28V16H1.68V4.8H6.048C7.49867 4.8 8.64 5.14667 9.472 5.84C10.304 6.53333 10.72 7.488 10.72 8.704C10.72 9.568 10.5067 10.304 10.08 10.912C9.65333 11.52 9.04533 11.9627 8.256 12.24L10.912 16H9.168ZM6 11.232C7.01333 11.232 7.78667 11.0133 8.32 10.576C8.85333 10.1387 9.12 9.51467 9.12 8.704C9.12 7.89333 8.85333 7.27467 8.32 6.848C7.78667 6.41067 7.01333 6.192 6 6.192H3.28V11.232H6ZM20.745 11.808C20.745 11.9253 20.7343 12.08 20.713 12.272H13.833C13.929 13.0187 14.2543 13.6213 14.809 14.08C15.3743 14.528 16.073 14.752 16.905 14.752C17.9183 14.752 18.7343 14.4107 19.353 13.728L20.201 14.72C19.817 15.168 19.337 15.5093 18.761 15.744C18.1957 15.9787 17.561 16.096 16.857 16.096C15.961 16.096 15.1663 15.9147 14.473 15.552C13.7797 15.1787 13.241 14.6613 12.857 14C12.4837 13.3387 12.297 12.592 12.297 11.76C12.297 10.9387 12.4783 10.1973 12.841 9.536C13.2143 8.87467 13.721 8.36267 14.361 8C15.0117 7.62667 15.7423 7.44 16.553 7.44C17.3637 7.44 18.0837 7.62667 18.713 8C19.353 8.36267 19.849 8.87467 20.201 9.536C20.5637 10.1973 20.745 10.9547 20.745 11.808ZM16.553 8.736C15.817 8.736 15.1983 8.96 14.697 9.408C14.2063 9.856 13.9183 10.4427 13.833 11.168H19.273C19.1877 10.4533 18.8943 9.872 18.393 9.424C17.9023 8.96533 17.289 8.736 16.553 8.736ZM25.7315 7.44C26.9048 7.44 27.8008 7.728 28.4195 8.304C29.0488 8.88 29.3635 9.73867 29.3635 10.88V16H27.9075V14.88C27.6515 15.2747 27.2835 15.5787 26.8035 15.792C26.3342 15.9947 25.7742 16.096 25.1235 16.096C24.1742 16.096 23.4115 15.8667 22.8355 15.408C22.2702 14.9493 21.9875 14.3467 21.9875 13.6C21.9875 12.8533 22.2595 12.256 22.8035 11.808C23.3475 11.3493 24.2115 11.12 25.3955 11.12H27.8275V10.816C27.8275 10.1547 27.6355 9.648 27.2515 9.296C26.8675 8.944 26.3022 8.768 25.5555 8.768C25.0542 8.768 24.5635 8.85333 24.0835 9.024C23.6035 9.184 23.1982 9.40267 22.8675 9.68L22.2275 8.528C22.6648 8.176 23.1875 7.90933 23.7955 7.728C24.4035 7.536 25.0488 7.44 25.7315 7.44ZM25.3795 14.912C25.9662 14.912 26.4728 14.784 26.8995 14.528C27.3262 14.2613 27.6355 13.888 27.8275 13.408V12.224H25.4595C24.1582 12.224 23.5075 12.6613 23.5075 13.536C23.5075 13.9627 23.6728 14.2987 24.0035 14.544C24.3342 14.7893 24.7928 14.912 25.3795 14.912ZM40.2529 4.128V16H38.7809V14.656C38.4395 15.1253 38.0075 15.4827 37.4849 15.728C36.9622 15.9733 36.3862 16.096 35.7569 16.096C34.9355 16.096 34.1995 15.9147 33.5489 15.552C32.8982 15.1893 32.3862 14.6827 32.0129 14.032C31.6502 13.3707 31.4689 12.6133 31.4689 11.76C31.4689 10.9067 31.6502 10.1547 32.0129 9.504C32.3862 8.85333 32.8982 8.34667 33.5489 7.984C34.1995 7.62133 34.9355 7.44 35.7569 7.44C36.3649 7.44 36.9249 7.55733 37.4369 7.792C37.9489 8.016 38.3755 8.352 38.7169 8.8V4.128H40.2529ZM35.8849 14.752C36.4182 14.752 36.9035 14.6293 37.3409 14.384C37.7782 14.128 38.1195 13.776 38.3649 13.328C38.6102 12.8693 38.7329 12.3467 38.7329 11.76C38.7329 11.1733 38.6102 10.656 38.3649 10.208C38.1195 9.74933 37.7782 9.39733 37.3409 9.152C36.9035 8.90667 36.4182 8.784 35.8849 8.784C35.3409 8.784 34.8502 8.90667 34.4129 9.152C33.9862 9.39733 33.6449 9.74933 33.3889 10.208C33.1435 10.656 33.0209 11.1733 33.0209 11.76C33.0209 12.3467 33.1435 12.8693 33.3889 13.328C33.6449 13.776 33.9862 14.128 34.4129 14.384C34.8502 14.6293 35.3409 14.752 35.8849 14.752ZM49.28 6.192V10.096H54.896V11.472H49.28V16H47.68V4.8H55.584V6.192H49.28ZM65.2506 7.52V16H63.7946V14.72C63.4853 15.1573 63.0746 15.4987 62.5626 15.744C62.0613 15.9787 61.512 16.096 60.9146 16.096C59.784 16.096 58.8933 15.7867 58.2426 15.168C57.592 14.5387 57.2666 13.616 57.2666 12.4V7.52H58.8026V12.224C58.8026 13.0453 59 13.6693 59.3946 14.096C59.7893 14.512 60.3546 14.72 61.0906 14.72C61.9013 14.72 62.5413 14.4747 63.0106 13.984C63.48 13.4933 63.7146 12.8 63.7146 11.904V7.52H65.2506ZM68.1748 4.128H69.7108V16H68.1748V4.128ZM72.6435 4.128H74.1795V16H72.6435V4.128Z" fill="#059B5C"/>
<path d="M80.1667 10H91.8334" stroke="#059B5C" stroke-width="1.25" stroke-linecap="round" stroke-linejoin="round"/>
<path d="M88.5 13.3333L91.8333 10" stroke="#059B5C" stroke-width="1.25" stroke-linecap="round" stroke-linejoin="round"/>
<path d="M88.5 6.66669L91.8333 10" stroke="#059B5C" stroke-width="1.25" stroke-linecap="round" stroke-linejoin="round"/>
</svg>
