<svg width="95" height="20" viewBox="0 0 95 20" fill="none" xmlns="http://www.w3.org/2000/svg">
<path d="M9.816 13.2H3.864L2.632 16H0.984L6.056 4.8H7.64L12.728 16H11.048L9.816 13.2ZM9.256 11.92L6.84 6.432L4.424 11.92H9.256ZM22.0966 4.128V16H20.6246V14.656C20.2833 15.1253 19.8513 15.4827 19.3286 15.728C18.806 15.9733 18.23 16.096 17.6006 16.096C16.7793 16.096 16.0433 15.9147 15.3926 15.552C14.742 15.1893 14.23 14.6827 13.8566 14.032C13.494 13.3707 13.3126 12.6133 13.3126 11.76C13.3126 10.9067 13.494 10.1547 13.8566 9.504C14.23 8.85333 14.742 8.34667 15.3926 7.984C16.0433 7.62133 16.7793 7.44 17.6006 7.44C18.2086 7.44 18.7686 7.55733 19.2806 7.792C19.7926 8.016 20.2193 8.352 20.5606 8.8V4.128H22.0966ZM17.7286 14.752C18.262 14.752 18.7473 14.6293 19.1846 14.384C19.622 14.128 19.9633 13.776 20.2086 13.328C20.454 12.8693 20.5766 12.3467 20.5766 11.76C20.5766 11.1733 20.454 10.656 20.2086 10.208C19.9633 9.74933 19.622 9.39733 19.1846 9.152C18.7473 8.90667 18.262 8.784 17.7286 8.784C17.1846 8.784 16.694 8.90667 16.2566 9.152C15.83 9.39733 15.4886 9.74933 15.2326 10.208C14.9873 10.656 14.8646 11.1733 14.8646 11.76C14.8646 12.3467 14.9873 12.8693 15.2326 13.328C15.4886 13.776 15.83 14.128 16.2566 14.384C16.694 14.6293 17.1846 14.752 17.7286 14.752ZM33.0029 4.128V16H31.5309V14.656C31.1895 15.1253 30.7575 15.4827 30.2349 15.728C29.7122 15.9733 29.1362 16.096 28.5069 16.096C27.6855 16.096 26.9495 15.9147 26.2989 15.552C25.6482 15.1893 25.1362 14.6827 24.7629 14.032C24.4002 13.3707 24.2189 12.6133 24.2189 11.76C24.2189 10.9067 24.4002 10.1547 24.7629 9.504C25.1362 8.85333 25.6482 8.34667 26.2989 7.984C26.9495 7.62133 27.6855 7.44 28.5069 7.44C29.1149 7.44 29.6749 7.55733 30.1869 7.792C30.6989 8.016 31.1255 8.352 31.4669 8.8V4.128H33.0029ZM28.6349 14.752C29.1682 14.752 29.6535 14.6293 30.0909 14.384C30.5282 14.128 30.8695 13.776 31.1149 13.328C31.3602 12.8693 31.4829 12.3467 31.4829 11.76C31.4829 11.1733 31.3602 10.656 31.1149 10.208C30.8695 9.74933 30.5282 9.39733 30.0909 9.152C29.6535 8.90667 29.1682 8.784 28.6349 8.784C28.0909 8.784 27.6002 8.90667 27.1629 9.152C26.7362 9.39733 26.3949 9.74933 26.1389 10.208C25.8935 10.656 25.7709 11.1733 25.7709 11.76C25.7709 12.3467 25.8935 12.8693 26.1389 13.328C26.3949 13.776 26.7362 14.128 27.1629 14.384C27.6002 14.6293 28.0909 14.752 28.6349 14.752ZM44.974 15.504C44.75 15.696 44.4727 15.8453 44.142 15.952C43.8113 16.048 43.47 16.096 43.118 16.096C42.2647 16.096 41.6033 15.8667 41.134 15.408C40.6647 14.9493 40.43 14.2933 40.43 13.44V8.784H38.99V7.52H40.43V5.664H41.966V7.52H44.398V8.784H41.966V13.376C41.966 13.8347 42.078 14.1867 42.302 14.432C42.5367 14.6773 42.8673 14.8 43.294 14.8C43.7633 14.8 44.1633 14.6667 44.494 14.4L44.974 15.504ZM50.1818 16.096C49.3391 16.096 48.5818 15.9093 47.9098 15.536C47.2378 15.1627 46.7098 14.6507 46.3258 14C45.9524 13.3387 45.7658 12.592 45.7658 11.76C45.7658 10.928 45.9524 10.1867 46.3258 9.536C46.7098 8.87467 47.2378 8.36267 47.9098 8C48.5818 7.62667 49.3391 7.44 50.1818 7.44C51.0244 7.44 51.7764 7.62667 52.4378 8C53.1098 8.36267 53.6324 8.87467 54.0058 9.536C54.3898 10.1867 54.5818 10.928 54.5818 11.76C54.5818 12.592 54.3898 13.3387 54.0058 14C53.6324 14.6507 53.1098 15.1627 52.4378 15.536C51.7764 15.9093 51.0244 16.096 50.1818 16.096ZM50.1818 14.752C50.7258 14.752 51.2111 14.6293 51.6378 14.384C52.0751 14.128 52.4164 13.776 52.6618 13.328C52.9071 12.8693 53.0298 12.3467 53.0298 11.76C53.0298 11.1733 52.9071 10.656 52.6618 10.208C52.4164 9.74933 52.0751 9.39733 51.6378 9.152C51.2111 8.90667 50.7258 8.784 50.1818 8.784C49.6378 8.784 49.1471 8.90667 48.7098 9.152C48.2831 9.39733 47.9418 9.74933 47.6858 10.208C47.4404 10.656 47.3178 11.1733 47.3178 11.76C47.3178 12.3467 47.4404 12.8693 47.6858 13.328C47.9418 13.776 48.2831 14.128 48.7098 14.384C49.1471 14.6293 49.6378 14.752 50.1818 14.752ZM64.6989 16.096C63.8349 16.096 63.0615 15.9093 62.3789 15.536C61.7069 15.1627 61.1789 14.6507 60.7949 14C60.4109 13.3387 60.2189 12.592 60.2189 11.76C60.2189 10.928 60.4109 10.1867 60.7949 9.536C61.1789 8.87467 61.7069 8.36267 62.3789 8C63.0615 7.62667 63.8349 7.44 64.6989 7.44C65.4669 7.44 66.1495 7.59467 66.7469 7.904C67.3549 8.21333 67.8242 8.66133 68.1549 9.248L66.9869 10C66.7202 9.59467 66.3895 9.29067 65.9949 9.088C65.6002 8.88533 65.1629 8.784 64.6829 8.784C64.1282 8.784 63.6269 8.90667 63.1789 9.152C62.7415 9.39733 62.3949 9.74933 62.1389 10.208C61.8935 10.656 61.7709 11.1733 61.7709 11.76C61.7709 12.3573 61.8935 12.8853 62.1389 13.344C62.3949 13.792 62.7415 14.1387 63.1789 14.384C63.6269 14.6293 64.1282 14.752 64.6829 14.752C65.1629 14.752 65.6002 14.6507 65.9949 14.448C66.3895 14.2453 66.7202 13.9413 66.9869 13.536L68.1549 14.272C67.8242 14.8587 67.3549 15.312 66.7469 15.632C66.1495 15.9413 65.4669 16.096 64.6989 16.096ZM73.2315 7.44C74.4048 7.44 75.3008 7.728 75.9195 8.304C76.5488 8.88 76.8635 9.73867 76.8635 10.88V16H75.4075V14.88C75.1515 15.2747 74.7835 15.5787 74.3035 15.792C73.8342 15.9947 73.2742 16.096 72.6235 16.096C71.6742 16.096 70.9115 15.8667 70.3355 15.408C69.7702 14.9493 69.4875 14.3467 69.4875 13.6C69.4875 12.8533 69.7595 12.256 70.3035 11.808C70.8475 11.3493 71.7115 11.12 72.8955 11.12H75.3275V10.816C75.3275 10.1547 75.1355 9.648 74.7515 9.296C74.3675 8.944 73.8022 8.768 73.0555 8.768C72.5542 8.768 72.0635 8.85333 71.5835 9.024C71.1035 9.184 70.6982 9.40267 70.3675 9.68L69.7275 8.528C70.1648 8.176 70.6875 7.90933 71.2955 7.728C71.9035 7.536 72.5488 7.44 73.2315 7.44ZM72.8795 14.912C73.4662 14.912 73.9728 14.784 74.3995 14.528C74.8262 14.2613 75.1355 13.888 75.3275 13.408V12.224H72.9595C71.6582 12.224 71.0075 12.6613 71.0075 13.536C71.0075 13.9627 71.1728 14.2987 71.5035 14.544C71.8342 14.7893 72.2928 14.912 72.8795 14.912ZM81.178 8.944C81.4447 8.45333 81.8393 8.08 82.362 7.824C82.8847 7.568 83.5193 7.44 84.266 7.44V8.928C84.1807 8.91733 84.0633 8.912 83.914 8.912C83.082 8.912 82.426 9.16267 81.946 9.664C81.4767 10.1547 81.242 10.8587 81.242 11.776V16H79.706V7.52H81.178V8.944ZM91.2709 15.504C91.0469 15.696 90.7695 15.8453 90.4389 15.952C90.1082 16.048 89.7669 16.096 89.4149 16.096C88.5615 16.096 87.9002 15.8667 87.4309 15.408C86.9615 14.9493 86.7269 14.2933 86.7269 13.44V8.784H85.2869V7.52H86.7269V5.664H88.2629V7.52H90.6949V8.784H88.2629V13.376C88.2629 13.8347 88.3749 14.1867 88.5989 14.432C88.8335 14.6773 89.1642 14.8 89.5909 14.8C90.0602 14.8 90.4602 14.6667 90.7909 14.4L91.2709 15.504Z" fill="#059B5C"/>
</svg>
